<svg width="22" height="22" viewBox="0 0 22 22" fill="none" xmlns="http://www.w3.org/2000/svg">
<mask id="mask0_269_261" style="mask-type:alpha" maskUnits="userSpaceOnUse" x="0" y="0" width="22" height="22">
<path d="M14 2H18C18.5304 2 19.0391 2.21071 19.4142 2.58579C19.7893 2.96086 20 3.46957 20 4V18C20 18.5304 19.7893 19.0391 19.4142 19.4142C19.0391 19.7893 18.5304 20 18 20H14M9 16L14 11M14 11L9 6M14 11H2" stroke="#09090B" stroke-width="3" stroke-linecap="round" stroke-linejoin="round"/>
</mask>
<g mask="url(#mask0_269_261)">
<rect x="-3" y="4" width="20" height="14" fill="#F1E8CA"/>
</g>
<mask id="mask1_269_261" style="mask-type:alpha" maskUnits="userSpaceOnUse" x="0" y="0" width="22" height="22">
<path d="M14 2H18C18.5304 2 19.0391 2.21071 19.4142 2.58579C19.7893 2.96086 20 3.46957 20 4V18C20 18.5304 19.7893 19.0391 19.4142 19.4142C19.0391 19.7893 18.5304 20 18 20H14M9 16L14 11M14 11L9 6M14 11H2" stroke="#09090B" stroke-width="3" stroke-linecap="round" stroke-linejoin="round"/>
</mask>
<g mask="url(#mask1_269_261)">
<path d="M12 -7H27V4H12V-7Z" fill="#F1E8CA"/>
<path d="M18 0H26V22H18V0Z" fill="#F1E8CA"/>
<path d="M11 17H21V23H11V17Z" fill="#F1E8CA"/>
</g>
</svg>
