<svg width="248" height="63" viewBox="0 0 248 63" fill="none" xmlns="http://www.w3.org/2000/svg">
<path d="M0.4 62V6H12.32V22H13.12L16.4 6H28.4V7.6L20.4 30.32V31.52L28.4 60.4V62H16.4L13.12 44.72H12.32V62H0.4ZM31.7281 3.6V0.0799961H43.8081V3.6H31.7281ZM31.7281 62V6H43.8081V62H31.7281ZM48.6031 62V6H60.5231V51.68H71.0031V62H48.6031ZM88.2281 62.8C85.6681 62.8 83.3215 62.1867 81.1881 60.96C79.0548 59.68 77.3481 58 76.0681 55.92C74.8415 53.7867 74.2281 51.4133 74.2281 48.8V19.2C74.2281 16.5867 74.8415 14.24 76.0681 12.16C77.3481 10.0267 79.0548 8.34666 81.1881 7.12C83.3215 5.84 85.6681 5.2 88.2281 5.2C90.7881 5.2 93.1348 5.84 95.2681 7.12C97.4015 8.34666 99.0815 10.0267 100.308 12.16C101.588 14.24 102.228 16.5867 102.228 19.2V48.8C102.228 51.4133 101.588 53.7867 100.308 55.92C99.0815 58 97.4015 59.68 95.2681 60.96C93.1348 62.1867 90.7881 62.8 88.2281 62.8ZM88.2281 52.24C88.8148 52.24 89.2948 52.0533 89.6681 51.68C90.0415 51.2533 90.2281 50.7733 90.2281 50.24V17.68C90.2281 17.0933 90.0415 16.6133 89.6681 16.24C89.2948 15.8133 88.8148 15.6 88.2281 15.6C87.6415 15.6 87.1348 15.8133 86.7081 16.24C86.3348 16.6133 86.1481 17.0933 86.1481 17.68V50.24C86.1481 50.7733 86.3348 51.2533 86.7081 51.68C87.1348 52.0533 87.6415 52.24 88.2281 52.24ZM137.134 62.8C134.574 62.8 132.228 62.1867 130.094 60.96C127.961 59.68 126.254 58 124.974 55.92C123.748 53.7867 123.134 51.4133 123.134 48.8V42.4H135.054V49.2C135.054 49.7333 135.241 50.24 135.614 50.72C136.041 51.1467 136.548 51.36 137.134 51.36C137.721 51.36 138.228 51.1467 138.654 50.72C139.081 50.24 139.294 49.7333 139.294 49.2C139.294 48.72 139.241 48.32 139.134 48C139.028 47.6267 138.788 47.1467 138.414 46.56L128.814 30.88C128.121 29.7067 127.321 28.48 126.414 27.2C125.508 25.8667 124.734 24.56 124.094 23.28C123.454 21.9467 123.134 20.6933 123.134 19.52V19.2C123.134 16.5867 123.748 14.24 124.974 12.16C126.254 10.0267 127.961 8.34666 130.094 7.12C132.228 5.84 134.574 5.2 137.134 5.2C139.748 5.2 142.094 5.84 144.174 7.12C146.308 8.34666 147.988 10.0267 149.214 12.16C150.494 14.24 151.134 16.5867 151.134 19.2V24.88H139.294V18.72C139.294 18.1333 139.081 17.6267 138.654 17.2C138.228 16.7733 137.721 16.56 137.134 16.56C136.601 16.56 136.121 16.7733 135.694 17.2C135.268 17.6267 135.054 18.1333 135.054 18.72C135.054 19.0933 135.108 19.4133 135.214 19.68C135.374 19.8933 135.588 20.24 135.854 20.72L145.774 36.48C147.001 38.4533 148.201 40.4267 149.374 42.4C150.548 44.32 151.134 46.3467 151.134 48.48V48.8C151.134 51.4133 150.494 53.7867 149.214 55.92C147.988 58 146.308 59.68 144.174 60.96C142.094 62.1867 139.748 62.8 137.134 62.8ZM155.166 62V6H167.086V28H171.326V6H183.166V62H171.326V40H167.086V62H155.166ZM201.197 62.8C198.637 62.8 196.29 62.1867 194.157 60.96C192.024 59.68 190.317 58 189.037 55.92C187.81 53.7867 187.197 51.4133 187.197 48.8V19.2C187.197 16.5867 187.81 14.24 189.037 12.16C190.317 10.0267 192.024 8.34666 194.157 7.12C196.29 5.84 198.637 5.2 201.197 5.2C203.757 5.2 206.104 5.84 208.237 7.12C210.37 8.34666 212.05 10.0267 213.277 12.16C214.557 14.24 215.197 16.5867 215.197 19.2V48.8C215.197 51.4133 214.557 53.7867 213.277 55.92C212.05 58 210.37 59.68 208.237 60.96C206.104 62.1867 203.757 62.8 201.197 62.8ZM201.197 52.24C201.784 52.24 202.264 52.0533 202.637 51.68C203.01 51.2533 203.197 50.7733 203.197 50.24V17.68C203.197 17.0933 203.01 16.6133 202.637 16.24C202.264 15.8133 201.784 15.6 201.197 15.6C200.61 15.6 200.104 15.8133 199.677 16.24C199.304 16.6133 199.117 17.0933 199.117 17.68V50.24C199.117 50.7733 199.304 51.2533 199.677 51.68C200.104 52.0533 200.61 52.24 201.197 52.24ZM219.306 62V6H231.706C234.586 6 237.2 6.69333 239.546 8.08C241.893 9.46667 243.76 11.3333 245.146 13.68C246.586 16.0267 247.306 18.64 247.306 21.52V31.12C247.306 34 246.586 36.6133 245.146 38.96C243.76 41.3067 241.893 43.1733 239.546 44.56C237.2 45.9467 234.586 46.64 231.706 46.64H231.226V62H219.306ZM231.226 36.24H231.466C232.16 36.24 232.8 36.16 233.386 36C233.973 35.84 234.426 35.3867 234.746 34.64C235.12 33.8933 235.306 32.64 235.306 30.88V21.84C235.306 20.0267 235.12 18.7467 234.746 18C234.426 17.2533 233.973 16.8 233.386 16.64C232.8 16.48 232.16 16.4 231.466 16.4H231.226V36.24Z" fill="#F1E8CA"/>
</svg>
