<svg width="854" height="472" viewBox="0 0 854 472" fill="none" xmlns="http://www.w3.org/2000/svg">
<path d="M540.734 357.282C540.734 357.282 542.071 396.315 570.209 408.241C609.159 402.563 644.469 392.939 675.854 371.51" fill="#9F3541"/>
<path d="M540.734 357.282C540.734 357.282 542.071 396.315 570.209 408.241C609.159 402.563 644.469 392.939 675.854 371.51" stroke="#101010" stroke-width="4" stroke-miterlimit="10"/>
<path d="M687.955 297.075C687.955 297.075 738.481 306.589 728.822 362.788C728.071 367.133 731.142 371.223 735.521 371.689C737.237 371.867 739.303 372.023 741.815 372.089C748.38 372.279 745.704 375.962 741.408 379.594C734.46 385.456 725.627 388.718 716.542 388.795C700.069 388.959 672.585 382.762 648.745 346.513C611.833 290.377 687.955 297.075 687.955 297.075Z" fill="#101010" stroke="#101010" stroke-width="4" stroke-miterlimit="10"/>
<path d="M705.737 240.673L671.05 238.304L667.405 291.686L702.092 294.054L705.737 240.673Z" fill="#101010" stroke="#101010" stroke-width="4" stroke-miterlimit="10" stroke-linecap="round"/>
<path d="M738.935 292.386C725.386 291.461 715.114 284.499 708.394 271.701L720.331 273.138C733.742 274.751 745.705 282.92 751.612 290.326C751.793 290.551 751.822 290.795 751.728 291.062C751.672 291.224 751.464 291.604 750.911 291.703C746.768 292.436 742.751 292.662 738.949 292.402L738.935 292.386ZM708.498 270.617C711.213 257.054 721.931 226.393 763.392 216.809C763.515 216.787 763.638 216.765 763.743 216.772C764.03 216.792 764.294 216.916 764.462 217.125C764.603 217.286 764.651 217.471 764.621 217.681C763.303 228.111 756.174 262.579 720.214 268.643L708.483 270.616L708.498 270.617Z" fill="#F1E8C9"/>
<path d="M762.074 219.463C760.172 231.338 752.191 260.974 719.835 266.419L711.432 267.831C713.309 260.319 716.376 253.359 720.611 247.069C729.854 233.346 743.797 224.066 762.059 219.462M712.658 274.509L720.056 275.393C731.679 276.778 742.145 283.343 748.175 289.819C745.04 290.226 742.001 290.337 739.089 290.138C727.803 289.367 718.944 284.124 712.658 274.509ZM763.898 214.509C763.566 214.486 763.216 214.508 762.877 214.591C711.481 226.482 706.548 269.65 705.948 271.777C705.918 271.775 705.903 271.774 705.871 271.787C705.867 271.847 705.88 271.878 705.895 271.879C714.584 289.147 727.976 293.927 738.749 294.662C743.713 295.001 748.129 294.484 751.26 293.925C753.699 293.5 754.826 290.758 753.345 288.913C746.838 280.769 734.393 272.552 720.56 270.895C755.922 264.942 765.015 232.336 766.844 217.984C767.074 216.166 765.662 214.645 763.867 214.522L763.898 214.509Z" fill="#101010"/>
<path d="M711.697 267.061L724.629 257.257" stroke="#101010" stroke-width="4" stroke-miterlimit="10" stroke-linecap="round"/>
<path d="M712.063 274.574L726.521 281.943" stroke="#101010" stroke-width="4" stroke-miterlimit="10" stroke-linecap="round"/>
<path d="M691.492 325.86C710.791 379.338 626.038 396.683 574.731 382.856C547.046 375.403 528.195 354.44 541.592 329.616C570.658 366.813 656.796 360.69 673.042 319.689L691.477 325.859L691.492 325.86Z" fill="#9F3541" stroke="#101010" stroke-width="4" stroke-miterlimit="10"/>
<path d="M512.384 202.17C512.745 204.211 519.702 219.087 553.28 229.489L567.121 206.605C567.121 206.605 526.978 187.114 512.538 201.681C512.408 201.808 512.351 201.986 512.385 202.155L512.384 202.17Z" fill="#101010" stroke="#101010" stroke-width="4" stroke-miterlimit="10"/>
<path d="M697.71 245.46L660.545 238.526C660.232 238.46 659.9 238.437 659.567 238.429C653.708 238.317 651.295 245.898 656.134 249.185C660.972 252.471 666.721 256.411 672.539 260.234C673.859 261.097 675.127 262.063 676.329 263.115C676.529 263.295 676.729 263.476 676.896 263.684L694.264 283.045C695.716 284.66 697.927 285.357 700.024 284.833C700.394 284.737 700.764 284.656 701.148 284.576C703.979 283.966 705.929 281.371 705.763 278.479C705.308 270.49 703.431 257.129 702.436 250.391C702.076 247.896 700.164 245.931 697.694 245.474L697.71 245.46Z" fill="#F1E8C9" stroke="#101010" stroke-width="4" stroke-miterlimit="10"/>
<path d="M567.121 206.605C567.121 206.605 531.919 240.855 544.676 266.025C544.676 266.025 528.252 282.563 532.263 307.514C535.126 325.309 547.376 340.151 563.873 347.402C589.098 358.492 654.819 363.905 673.041 319.704C673.041 319.704 694.235 335.643 708.07 312.622C721.904 289.616 707.389 265.539 676.882 288.088C676.882 288.088 664.744 286.259 671.286 247.718C677.815 209.162 567.135 206.621 567.135 206.621L567.121 206.605Z" fill="#EF837B" stroke="#101010" stroke-width="4" stroke-miterlimit="10"/>
<path d="M628.476 276.809C630.142 270.857 628.643 265.235 625.128 264.251C621.613 263.267 617.413 267.295 615.747 273.247C614.081 279.199 615.58 284.821 619.095 285.805C622.61 286.789 626.81 282.761 628.476 276.809Z" fill="#101010" stroke="#101010" stroke-width="4" stroke-miterlimit="10"/>
<path d="M573.765 264.406C575.431 258.454 573.932 252.831 570.417 251.847C566.902 250.864 562.702 254.891 561.036 260.843C559.371 266.795 560.869 272.417 564.384 273.401C567.899 274.385 572.099 270.358 573.765 264.406Z" fill="#101010" stroke="#101010" stroke-width="4" stroke-miterlimit="10"/>
<path d="M578.896 278.79C567.196 280.765 565.025 295.018 578.58 299.187" stroke="#101010" stroke-width="4" stroke-miterlimit="10" stroke-linecap="round"/>
<path d="M705.491 295.999C705.491 295.999 693.566 281.284 683.818 306.388" stroke="#101010" stroke-width="4" stroke-miterlimit="10" stroke-linecap="round"/>
<path d="M672.554 260.235L642.901 235.199L643.877 221.351L676.192 240.474" fill="#F1E8C9"/>
<path d="M672.554 260.235L642.901 235.199L643.877 221.351L676.192 240.474" stroke="#101010" stroke-width="4" stroke-linejoin="round"/>
<path d="M707.84 261.598L706.968 279.259C713.641 281.867 716.787 275.761 716.359 270.487C715.931 265.213 712.124 261.239 707.84 261.598Z" fill="#F1E8C9" stroke="#101010" stroke-width="4" stroke-miterlimit="10"/>
<path d="M654.425 168.092C657.155 158.971 676.945 163.733 673.267 176.761Z" fill="#9F3541"/>
<path d="M654.425 168.092C657.155 158.971 676.945 163.733 673.267 176.761" stroke="#101010" stroke-width="4" stroke-miterlimit="10"/>
<path d="M701.398 264.493C683.253 239.622 575.371 192.556 574.282 192.088L571.926 191.063L573.245 188.849C583.368 171.789 604.819 162.658 630.635 164.421C650.913 165.806 671.216 173.938 686.334 186.733C721.558 216.545 705.547 263.443 705.378 263.916L703.948 267.987L701.412 264.509L701.398 264.493Z" fill="#9F3541"/>
<path d="M630.48 166.684C649.446 167.979 669.391 175.359 684.867 188.467C719.303 217.603 703.247 263.164 703.247 263.164C684.534 237.512 575.196 190.013 575.196 190.013C585.492 172.647 607.259 165.114 630.479 166.699M630.789 162.158C604.099 160.335 581.861 169.883 571.293 187.684L568.671 192.114L573.397 194.164C574.487 194.633 681.809 241.464 699.578 265.839L704.65 272.81L707.509 264.683C707.679 264.179 711.793 252.333 711.483 236.669C711.083 215.662 702.875 197.791 687.771 185.012C672.294 171.919 651.519 163.589 630.773 162.172L630.789 162.158Z" fill="#101010"/>
<path d="M679.321 181.995C679.321 181.995 689.405 208.361 678.874 238.05" stroke="#101010" stroke-width="4" stroke-miterlimit="10" stroke-linecap="round"/>
<path d="M677.029 246.2C677.029 246.2 640.943 246.995 575.326 208.984C564.725 202.849 552.97 198.727 540.712 197.329C530.048 196.1 518.489 196.448 512.651 202.022C512.523 202.134 512.316 202.044 512.358 201.881C513.032 198.668 522.922 172.149 580.302 196.485C640.701 222.119 677.029 246.2 677.029 246.2Z" fill="#9F3541" stroke="#101010" stroke-width="4" stroke-miterlimit="10"/>
<path d="M575.196 395.136C576.197 398.236 574.906 401.392 572.33 402.262C565.937 404.417 569.735 399.856 565.834 398.165C562.757 396.833 566.112 391.878 568.7 391.039C571.289 390.2 574.195 392.036 575.196 395.136Z" fill="#101010" stroke="#101010" stroke-width="4" stroke-miterlimit="10"/>
<path d="M693.312 344.493C684.733 348.485 682.209 330.835 694.301 335.117Z" fill="#101010"/>
<path d="M693.312 344.493C684.733 348.485 682.209 330.835 694.301 335.117" stroke="#101010" stroke-width="4" stroke-miterlimit="10"/>
<path d="M676.777 350.003C676.662 351.693 675.654 355.581 673.505 352.857C672.459 351.527 671.241 351.171 670.652 349.585C670.063 347.999 672.311 347.258 673.924 346.731C675.956 346.051 676.893 348.313 676.777 350.003Z" fill="#101010" stroke="#101010" stroke-width="4" stroke-miterlimit="10"/>
<path d="M603.743 396.646C603.634 398.23 602.381 399.054 600.796 398.945C599.212 398.837 597.112 398.3 597.22 396.715C597.328 395.131 593.09 394.599 598.961 392.529C600.451 392.01 603.851 395.061 603.743 396.646Z" fill="#101010" stroke="#101010" stroke-width="4" stroke-miterlimit="10"/>
<path d="M625.604 378.402C625.604 378.402 628.152 365.282 609.992 371.06C601.237 373.843 615.087 375.698 615.087 375.698C615.087 375.698 623.773 384.568 625.605 378.387L625.604 378.402Z" fill="#101010" stroke="#101010" stroke-width="4" stroke-miterlimit="10"/>
<path d="M549.673 368.897C551.502 362.746 541.99 347.317 540.734 357.282Z" fill="#101010"/>
<path d="M549.673 368.897C551.502 362.746 541.99 347.317 540.734 357.282" stroke="#101010" stroke-width="4" stroke-miterlimit="10"/>
<path d="M544.864 372.282C544.864 372.282 555.599 375.123 547.789 381.168Z" fill="#101010"/>
<path d="M544.864 372.282C544.864 372.282 555.599 375.123 547.789 381.168" stroke="#101010" stroke-width="4" stroke-miterlimit="10"/>
<path d="M618.294 396.426C618.294 396.426 621.715 385.852 627.329 393.981Z" fill="#101010"/>
<path d="M618.294 396.426C618.294 396.426 621.715 385.852 627.329 393.981" stroke="#101010" stroke-width="4" stroke-miterlimit="10"/>
<path d="M682.341 367.088C682.341 367.088 665.516 353.979 689.923 355.948Z" fill="#101010"/>
<path d="M682.341 367.088C682.341 367.088 665.516 353.979 689.923 355.948" stroke="#101010" stroke-width="4" stroke-miterlimit="10"/>
<path d="M557.043 350.195C556.18 349.742 555.357 350.034 555.628 350.72C556.894 353.929 555.057 357.972 557.698 363.033C559.775 367.025 570.798 366.535 565.889 361.167C563.929 359.017 572.84 363.051 572.182 360.248C571.679 358.076 561.507 352.531 557.043 350.195Z" fill="#101010" stroke="#101010" stroke-width="4" stroke-miterlimit="10"/>
<path d="M683.284 325.527C683.284 325.527 681.615 337.54 674.113 323.536Z" fill="#101010"/>
<path d="M683.284 325.527C683.284 325.527 681.615 337.54 674.113 323.536" stroke="#101010" stroke-width="4" stroke-miterlimit="10"/>
<path d="M596.051 363.666C595.889 363.155 595.225 362.882 594.547 363.048C590.081 364.077 575.079 367.767 580.003 369.801C585.768 372.18 579.838 381.325 586.737 377.082C593.636 372.839 590.161 368.221 594.478 369.607C597.904 370.705 596.695 365.772 596.05 363.681L596.051 363.666Z" fill="#101010" stroke="#101010" stroke-width="4" stroke-miterlimit="10"/>
<path d="M609.765 356.842C609.765 356.842 618.182 369.21 625.706 354.701Z" fill="#101010"/>
<path d="M609.765 356.842C609.765 356.842 618.182 369.21 625.706 354.701" stroke="#101010" stroke-width="4" stroke-miterlimit="10"/>
<path d="M542.123 332.729C533.312 342.329 548.262 345.154 548.262 345.154C548.262 345.154 551.448 345.341 552.457 342.333" fill="#101010"/>
<path d="M542.123 332.729C533.312 342.329 548.262 345.154 548.262 345.154C548.262 345.154 551.448 345.341 552.457 342.333" stroke="#101010" stroke-width="4" stroke-miterlimit="10"/>
<path d="M667.494 333.225C671.479 338.576 662.236 347.631 658.093 339.481Z" fill="#101010"/>
<path d="M667.494 333.225C671.479 338.576 662.236 347.631 658.093 339.481" stroke="#101010" stroke-width="4" stroke-miterlimit="10"/>
<path d="M646.52 354.682C647.763 354.464 648.963 353.985 649.973 353.175C651.465 351.973 654.26 350.77 658.186 353.66C664.262 358.137 669.423 364.023 659.362 363.745C649.3 363.467 653.26 368.3 644.659 362.18C637.706 357.233 643.743 355.175 646.52 354.682Z" fill="#101010" stroke="#101010" stroke-width="4" stroke-miterlimit="10"/>
<path d="M562.059 386.629C561.899 388.968 560.787 394.379 558.707 390.66C557.693 388.847 556.482 388.386 555.933 386.211C555.384 384.036 557.656 382.963 559.286 382.18C561.338 381.199 562.219 384.291 562.059 386.629Z" fill="#101010" stroke="#101010" stroke-width="4" stroke-miterlimit="10"/>
<path d="M582.89 392.357C583.511 392.141 584.051 391.769 584.536 391.332C585.085 390.839 585.855 390.437 586.828 390.837C588.744 391.635 587.319 393.857 585.363 395.648C583.406 397.44 581.732 396.431 582.002 394.039C582.139 392.912 582.517 392.483 582.89 392.357Z" fill="#101010" stroke="#101010" stroke-width="4" stroke-miterlimit="10"/>
<path d="M573.52 373.284C573.405 374.974 572.397 378.862 570.248 376.138C569.202 374.808 567.984 374.452 567.395 372.866C566.806 371.28 569.054 370.539 570.667 370.012C572.699 369.332 573.636 371.594 573.52 373.284Z" fill="#101010" stroke="#101010" stroke-width="4" stroke-miterlimit="10"/>
<path d="M639.37 374.143C639.592 374.006 644.406 371.44 640.714 371.112C635.607 370.657 640.284 362.76 643.393 367.839C644.538 369.721 645.225 370.98 645.638 371.812C646.064 372.69 645.777 373.777 644.949 374.357C643.277 375.531 642.455 376.475 641.786 376.733C640.182 377.351 637.865 375.101 639.355 374.142L639.37 374.143Z" fill="#101010" stroke="#101010" stroke-width="4" stroke-miterlimit="10"/>
<path d="M560.894 143.515C558.684 139.469 557.199 135.911 556.451 132.874C555.689 129.836 555.325 127.173 555.36 124.887C555.379 122.599 555.578 120.582 555.927 118.802C556.275 117.037 556.46 115.427 556.512 114.006C556.548 112.584 556.127 111.206 555.247 109.887C554.672 108.984 553.863 108.398 552.82 108.13C551.777 107.877 550.72 108.032 549.65 108.611C548.642 109.164 547.936 109.949 547.563 110.985C547.189 112.02 547.258 113.01 547.769 113.955L552.213 122.125L539.32 129.142L535.104 121.397C533.622 118.673 533.045 115.814 533.357 112.789C533.685 109.764 534.728 106.925 536.517 104.258C538.306 101.591 540.711 99.4361 543.75 97.7791C546.851 96.096 550.003 95.2199 553.205 95.1657C556.408 95.1115 559.348 95.7822 562.043 97.1637C564.722 98.5442 566.811 100.597 568.292 103.32C569.531 105.603 570.142 107.752 570.141 109.768C570.14 111.784 569.834 113.809 569.258 115.816C568.666 117.822 568.142 119.954 567.686 122.181C567.216 124.408 567.142 126.828 567.449 129.426C567.757 132.024 568.814 134.976 570.591 138.251L560.924 143.517L560.894 143.515ZM569.122 159.539L563.276 148.802L573.7 143.116L579.545 153.854L569.122 159.539Z" fill="#101010" stroke="#101010" stroke-miterlimit="10"/>
<path d="M706.859 170.081L714.843 160.818L723.833 168.572L715.849 177.834L706.859 170.081ZM718.958 156.719C721.971 153.226 724.774 150.582 727.351 148.803C729.928 147.024 732.289 145.745 734.434 144.967C736.579 144.188 738.542 143.64 740.32 143.352C742.099 143.049 743.656 142.671 745.022 142.203C746.372 141.734 747.508 140.857 748.43 139.571C749.08 138.706 749.343 137.738 749.218 136.684C749.094 135.614 748.567 134.684 747.636 133.878C746.763 133.121 745.773 132.75 744.681 132.766C743.588 132.783 742.681 133.191 741.973 134.006L735.899 141.05L724.775 131.468L730.537 124.782C732.562 122.435 735.048 120.876 737.98 120.121C740.913 119.352 743.945 119.346 747.078 120.076C750.196 120.804 753.065 122.304 755.685 124.559C758.347 126.863 760.273 129.511 761.465 132.488C762.641 135.463 763.058 138.463 762.717 141.456C762.361 144.448 761.178 147.126 759.153 149.474C757.458 151.435 755.669 152.768 753.771 153.472C751.874 154.176 749.889 154.617 747.801 154.777C745.713 154.938 743.543 155.199 741.291 155.545C739.039 155.892 736.742 156.675 734.431 157.881C732.106 159.087 729.724 161.107 727.288 163.927L718.942 156.733L718.958 156.719Z" fill="#101010" stroke="#101010" stroke-miterlimit="10"/>
<path d="M642.116 117.274C642.52 112.679 643.263 108.909 644.314 105.949C645.365 102.99 646.545 100.584 647.826 98.6859C649.107 96.8027 650.397 95.2234 651.668 93.9307C652.937 92.6532 653.992 91.4215 654.813 90.265C655.636 89.0933 656.048 87.7269 656.05 86.1354C656.078 85.0611 655.717 84.1269 654.999 83.32C654.28 82.5281 653.311 82.0679 652.09 81.9693C650.946 81.8608 649.926 82.1399 649.033 82.7913C648.14 83.4428 647.656 84.3041 647.553 85.3733L646.724 94.624L632.094 93.3218L632.876 84.5378C633.148 81.4489 634.258 78.7356 636.205 76.4129C638.153 74.0751 640.593 72.3015 643.558 71.0638C646.522 69.8413 649.721 69.3777 653.172 69.674C656.683 69.9895 659.797 71.0055 662.498 72.7361C665.199 74.4667 667.278 76.655 668.751 79.287C670.208 81.918 670.8 84.793 670.53 87.8669C670.293 90.4428 669.617 92.5794 668.501 94.2616C667.371 95.9428 666.009 97.4566 664.417 98.8031C662.809 100.149 661.207 101.631 659.582 103.233C657.957 104.835 656.549 106.8 655.373 109.145C654.183 111.489 653.43 114.515 653.101 118.221L642.133 117.245L642.116 117.274ZM640.089 135.189L641.179 123.001L653.007 124.051L651.917 136.24L640.089 135.189Z" fill="#101010" stroke="#101010" stroke-miterlimit="10"/>
<path d="M626.087 270.765L626.132 270.768C628.096 270.872 629.139 270.913 630.759 270.053L631.625 269.582" fill="#EF837B"/>
<path d="M626.087 270.765L626.132 270.768C628.096 270.872 629.139 270.913 630.759 270.053L631.625 269.582" stroke="#101010" stroke-width="4" stroke-linecap="round" stroke-linejoin="round"/>
<path d="M564.396 258.716L564.353 258.682C562.663 257.688 561.758 257.171 560.884 255.55L560.412 254.684" fill="#EF837B"/>
<path d="M564.396 258.716L564.353 258.682C562.663 257.688 561.758 257.171 560.884 255.55L560.412 254.684" stroke="#101010" stroke-width="4" stroke-linecap="round" stroke-linejoin="round"/>
<path d="M581.376 331.498C581.376 331.498 593.989 322.825 605.924 329.4" stroke="#101010" stroke-width="4" stroke-miterlimit="10" stroke-linecap="round"/>
<path d="M561.599 235.302C561.599 235.302 575.653 229.941 582.693 240.957" stroke="#101010" stroke-width="4" stroke-miterlimit="10" stroke-linecap="round"/>
<path d="M619.841 250.132C619.841 250.132 629.305 261.814 640.931 255.832" stroke="#101010" stroke-width="4" stroke-miterlimit="10" stroke-linecap="round"/>
<path d="M147.286 227.48L181.162 223.173L187.716 274.723L153.84 279.03L147.286 227.48Z" fill="#101010" stroke="#101010" stroke-width="5" stroke-miterlimit="10" stroke-linecap="round"/>
<path d="M118.59 280.503C131.564 278.853 141.034 271.469 146.748 258.562L135.354 260.625C122.553 262.94 111.527 271.6 106.281 279.18C106.119 279.41 106.106 279.651 106.212 279.907C106.276 280.063 106.498 280.424 107.035 280.491C111.061 280.981 114.937 280.982 118.578 280.519L118.59 280.503ZM146.584 257.506C143.182 244.367 131.084 214.915 90.658 207.799C90.5387 207.785 90.4193 207.77 90.3182 207.783C90.0437 207.818 89.7968 207.954 89.6477 208.167C89.522 208.333 89.4867 208.517 89.5273 208.721C91.4045 218.867 100.273 252.246 135.204 256.214L146.599 257.504L146.584 257.506Z" fill="#F1E8C9"/>
<path d="M91.4796 211.151C94.0284 222.679 103.574 251.258 135.758 254.723L144.117 255.62C141.841 248.368 138.424 241.725 133.895 235.806C124.009 222.892 109.746 214.605 91.4944 211.15M143.288 262.235L136.051 263.529C124.679 265.559 114.742 272.598 109.169 279.292C112.281 279.51 115.282 279.443 118.139 279.079C129.213 277.671 137.642 272.021 143.288 262.235ZM89.4015 206.403C89.7272 206.361 90.0733 206.362 90.4122 206.424C141.719 215.104 149.032 257.12 149.743 259.17C149.773 259.166 149.788 259.164 149.819 259.175C149.827 259.234 149.816 259.265 149.801 259.267C142.222 276.691 129.301 282.149 118.73 283.493C113.859 284.113 109.48 283.861 106.364 283.494C103.937 283.219 102.671 280.597 104.025 278.704C109.973 270.346 121.766 261.575 135.298 259.151C100.124 255.363 89.3139 223.936 86.6969 209.979C86.3667 208.21 87.6712 206.638 89.433 206.414L89.4015 206.403Z" fill="#101010"/>
<path d="M143.105 253.454L130.199 246.115" stroke="#101010" stroke-width="5" stroke-miterlimit="10" stroke-linecap="round"/>
<path d="M142.756 262.479L128.589 268.77" stroke="#101010" stroke-width="5" stroke-miterlimit="10" stroke-linecap="round"/>
<path d="M166.187 310.675C150.351 363.447 233.956 375.327 283.213 359.02C309.792 350.227 327.004 328.892 312.557 305.681C286.29 343.287 201.959 342.326 183.833 303.653L166.201 310.674L166.187 310.675Z" fill="#9F3541" stroke="#101010" stroke-width="5" stroke-miterlimit="10"/>
<path d="M192.311 357.951C192.311 357.951 222.484 435.497 223.562 435.77C228.324 437.003 231.25 437.391 236.837 435.617C238.628 435.055 239.634 433.119 239.13 431.269L235.46 417.756L241.047 431.921C241.616 433.353 243.012 434.255 244.507 434.171C248.415 433.963 251.995 433.28 254.936 431.675C256.37 430.885 257.045 429.158 256.587 427.545L252.527 413.55L258.323 427.719C258.883 429.076 260.206 429.987 261.658 429.924C265.605 429.787 268.362 428.965 270.999 427.43C272.497 426.555 273.124 424.683 272.498 423.045L267.264 409.428L274.522 423.608C275.137 424.807 276.355 425.594 277.675 425.548C280.078 425.455 282.75 424.902 285.83 423.69C287.703 422.951 288.568 420.729 287.72 418.861L281.209 404.692L287.803 419.048C288.626 420.828 290.678 421.615 292.423 420.801C295.436 419.415 299.681 417.052 300.92 414.372C302.906 410.063 283.869 359.621 283.869 359.621C244.784 369.999 216.1 365.943 192.311 357.951Z" fill="#9F3541" stroke="#101010" stroke-width="5" stroke-miterlimit="10"/>
<path d="M334.219 179.351C333.988 181.383 328.099 196.436 296.086 208.562L281.3 186.772C281.3 186.772 319.159 165.321 334.04 178.877C334.174 178.996 334.24 179.168 334.217 179.336L334.219 179.351Z" fill="#9F3541" stroke="#101010" stroke-width="5" stroke-miterlimit="10"/>
<path d="M155.131 232.361L191.136 223.44C191.44 223.357 191.763 223.316 192.089 223.289C197.821 222.845 200.619 230.142 196.068 233.641C191.517 237.14 186.112 241.332 180.633 245.413C179.389 246.335 178.202 247.355 177.086 248.455C176.9 248.643 176.715 248.832 176.562 249.046L160.66 269.024C159.331 270.691 157.205 271.5 155.121 271.106C154.753 271.033 154.387 270.975 154.005 270.919C151.198 270.482 149.138 268.048 149.135 265.203C149.123 257.342 150.196 244.131 150.784 237.467C150.994 234.999 152.755 232.963 155.148 232.374L155.131 232.361Z" fill="#F1E8C9" stroke="#101010" stroke-width="5" stroke-miterlimit="10"/>
<path d="M281.043 186.72C281.043 186.72 317.314 218.462 306.355 243.956C306.355 243.956 323.311 259.316 320.857 284.105C319.105 301.783 308.04 317.082 292.397 325.145C268.481 337.477 204.8 346.49 184.485 303.999C184.485 303.999 164.774 320.878 149.963 298.991C135.152 277.104 147.887 252.602 178.905 273.09C178.905 273.09 190.618 270.609 182.005 233.034C173.392 195.46 281.03 186.736 281.03 186.736L281.043 186.72Z" fill="#EF837C" stroke="#101010" stroke-width="5" stroke-miterlimit="10"/>
<path d="M225.135 259.244C223.169 253.527 224.312 247.951 227.689 246.79C231.065 245.629 235.396 249.323 237.361 255.04C239.327 260.757 238.184 266.333 234.808 267.494C231.431 268.655 227.101 264.961 225.135 259.244Z" fill="#101010"/>
<path d="M277.853 244.015C275.888 238.298 277.031 232.722 280.407 231.561C283.783 230.4 288.114 234.093 290.08 239.811C292.046 245.528 290.902 251.104 287.526 252.264C284.15 253.425 279.819 249.732 277.853 244.015Z" fill="#101010"/>
<path d="M286.124 212.948C286.124 212.948 269.033 205.098 263.292 221.711" stroke="#101010" stroke-width="5" stroke-miterlimit="10" stroke-linecap="round"/>
<path d="M235.682 228.214C235.682 228.214 234.126 234.407 224.538 234.735C214.951 235.064 210.669 243.368 210.669 243.368" stroke="#101010" stroke-width="5" stroke-miterlimit="10" stroke-linecap="round"/>
<path d="M273.337 257.85C283.822 259.16 286.59 272.531 274.826 277.117" stroke="#101010" stroke-width="5" stroke-miterlimit="10" stroke-linecap="round"/>
<path d="M242.504 309.055C240.604 305.356 241.113 301.304 243.642 300.005C246.171 298.705 249.761 300.65 251.662 304.349C253.563 308.048 253.053 312.1 250.524 313.399C247.996 314.698 244.405 312.753 242.504 309.055Z" fill="#101010" stroke="#101010" stroke-width="5" stroke-miterlimit="10" stroke-linecap="round"/>
<path d="M151.299 282.582C151.299 282.582 162.516 269.164 173.2 290.038" stroke="#101010" stroke-width="5" stroke-miterlimit="10" stroke-linecap="round"/>
<path d="M181.656 245.56L207.565 218.95L205.773 205.077L177.015 225.875" fill="#F1E8C9"/>
<path d="M181.656 245.56L207.565 218.95L205.773 205.077L177.015 225.875" stroke="#101010" stroke-width="5"/>
<path d="M147.158 250.013L148.842 265.805C142.544 268.55 139.225 263.262 139.385 258.504C139.547 253.76 143.018 249.95 147.158 250.013Z" fill="#F1E8C9" stroke="#101010" stroke-width="5" stroke-miterlimit="10"/>
<path d="M193.307 153.896C190.018 144.395 170.92 150.458 175.402 164.039Z" fill="#9F3541"/>
<path d="M193.307 153.896C190.018 144.395 170.92 150.458 175.402 164.039" stroke="#101010" stroke-width="5" stroke-miterlimit="10"/>
<path d="M153.257 250.434C169.498 225.403 271.692 173.827 272.724 173.313L274.956 172.19L273.551 170.129C262.763 154.25 241.411 146.667 216.426 149.843C196.8 152.339 177.527 161.345 163.552 174.553C130.992 205.328 149.166 249.658 149.357 250.105L150.973 253.951L153.244 250.451L153.257 250.434Z" fill="#9F3541"/>
<path d="M217.13 151.272C198.509 153.639 179.273 162.055 164.77 175.853C132.497 206.528 150.939 250.468 150.939 250.468C167.912 224.13 272.965 171.06 272.965 171.06C261.819 154.552 239.931 148.388 217.132 151.287M216.566 146.832C242.771 143.501 265.24 151.621 276.679 168.543L279.517 172.753L274.977 175.045C273.929 175.569 170.825 227.865 154.709 252.891L150.109 260.047L146.825 252.209C146.627 251.723 141.893 240.295 141.299 224.852C140.488 204.143 147.553 186.072 161.709 172.619C176.214 158.835 196.214 149.435 216.583 146.845L216.566 146.832Z" fill="#101010"/>
<path d="M169.815 169.239C169.815 169.239 162.126 195.57 173.654 224.127" stroke="#101010" stroke-width="5" stroke-miterlimit="10" stroke-linecap="round"/>
<path d="M176.383 232.674C176.383 232.674 211.602 231.465 273.293 189.989C283.261 183.294 294.472 178.538 306.336 176.467C316.656 174.654 327.943 174.359 333.965 179.584C334.097 179.689 334.293 179.588 334.243 179.427C333.394 176.266 322.176 150.415 267.699 177.822C210.356 206.688 176.383 232.674 176.383 232.674Z" fill="#9F3541" stroke="#101010" stroke-width="5" stroke-miterlimit="10"/>
<path d="M234.67 184.94C233.857 185.044 233.114 184.468 233.01 183.655C232.907 182.841 233.482 182.098 234.296 181.995C235.109 181.891 235.853 182.467 235.956 183.28C236.059 184.094 235.484 184.837 234.67 184.94Z" fill="white"/>
<path d="M212.041 195.3C211.228 195.404 210.484 194.828 210.381 194.015C210.278 193.201 210.853 192.458 211.667 192.355C212.48 192.251 213.223 192.827 213.327 193.64C213.43 194.454 212.855 195.197 212.041 195.3Z" fill="white"/>
<path d="M239.413 163.384C238.6 163.487 237.856 162.912 237.753 162.098C237.65 161.285 238.225 160.542 239.039 160.438C239.852 160.335 240.595 160.91 240.699 161.724C240.802 162.537 240.227 163.281 239.413 163.384Z" fill="white"/>
<path d="M200.932 166.78C200.118 166.883 199.417 166.637 199.365 166.231C199.314 165.824 199.931 165.41 200.745 165.307C201.558 165.203 202.259 165.449 202.311 165.856C202.363 166.263 201.745 166.676 200.932 166.78Z" fill="white"/>
<path d="M214.4 178.537C213.586 178.641 212.843 178.065 212.74 177.252C212.636 176.438 213.212 175.695 214.025 175.592C214.839 175.488 215.582 176.064 215.685 176.877C215.789 177.691 215.213 178.434 214.4 178.537Z" fill="white"/>
<path d="M191.945 184.386C191.539 184.437 191.125 183.82 191.022 183.006C190.918 182.193 191.164 181.492 191.571 181.44C191.977 181.388 192.391 182.006 192.494 182.819C192.598 183.632 192.352 184.334 191.945 184.386Z" fill="white"/>
<path d="M221.177 161.213C220.364 161.316 219.621 160.74 219.517 159.927C219.414 159.114 219.989 158.37 220.803 158.267C221.616 158.163 222.359 158.739 222.463 159.552C222.566 160.366 221.991 161.109 221.177 161.213Z" fill="white"/>
<path d="M165.554 312.304L165.835 313.338C166.391 315.357 168.466 316.641 170.123 315.68C174.323 313.28 167.636 301.222 167.636 301.222" fill="#9F3541"/>
<mask id="mask0_46_1177" style="mask-type:luminance" maskUnits="userSpaceOnUse" x="164" y="302" width="5" height="11">
<path d="M168.87 312.439L165.466 312.872L164.626 306.269L167.368 302.266L168.87 312.439Z" fill="white"/>
</mask>
<g mask="url(#mask0_46_1177)">
<path d="M156.353 278.854C141.744 293.431 153.054 313.302 173.54 309.415C209.897 373.581 347.162 336.058 264.086 220.63C196.323 212.394 161.309 232.563 156.353 278.854Z" fill="#EF837C" stroke="#101010" stroke-width="5" stroke-miterlimit="10"/>
</g>
<path d="M243.073 400.333C242.316 403.447 243.727 406.497 246.212 407.222C252.38 409.018 248.516 404.711 252.098 402.837C254.923 401.361 251.455 396.642 248.959 395.948C246.464 395.255 243.83 397.219 243.073 400.333Z" fill="#101010"/>
<path d="M165.104 329.224C174.86 332.479 176.84 315.066 163.558 320.148Z" fill="#101010"/>
<path d="M181.728 333.573C181.905 334.967 183.188 338.102 185.653 335.64C186.854 334.438 188.281 334.029 188.937 332.657C189.592 331.284 186.924 330.878 185.011 330.59C182.6 330.214 181.551 332.18 181.728 333.573Z" fill="#101010"/>
<path d="M279.39 395.419C279.577 396.889 280.779 397.59 282.235 397.405C283.691 397.219 285.6 396.607 285.413 395.137C285.226 393.667 289.108 392.946 283.577 391.33C282.172 390.925 279.203 393.949 279.39 395.419Z" fill="#101010"/>
<path d="M254.762 366.512C254.762 366.512 256.847 384.867 267.638 361.844Z" fill="#101010"/>
<path d="M266.387 386.721C264.922 386.104 264.127 384.346 264.579 382.729C266.194 376.995 270.605 364.92 278.252 369.413C287.335 374.748 280.162 377.125 275.863 376.931C274.483 376.871 273.549 378.407 274.072 379.821C275.751 384.254 277.082 391.236 266.375 386.738L266.387 386.721Z" fill="#101010"/>
<path d="M234.277 358.119C234.277 358.119 231.335 347.31 248.66 351.011C257.011 352.793 244.059 355.204 244.059 355.204C244.059 355.204 236.255 363.159 234.275 358.106L234.277 358.119Z" fill="#101010"/>
<path d="M306.062 344.986C303.562 338.786 314.266 322.077 316.26 332.26Z" fill="#101010"/>
<path d="M205.497 391.034C218.186 386.798 214.674 400.82 214.674 400.82C214.674 400.82 213.543 403.659 210.283 403.471" fill="#101010"/>
<path d="M297.031 395.523C297.031 395.523 284.681 407.449 300.516 408.55Z" fill="#101010"/>
<path d="M177.519 350.852C177.519 350.852 194.041 336.473 169.07 339.958Z" fill="#101010"/>
<path d="M226.879 367.026C220.018 370.988 236.643 386.485 245.794 366.609Z" fill="#101010"/>
<path d="M299.192 326.566C299.979 326.078 300.773 326.32 300.558 327.003C299.553 330.202 301.526 334.051 299.335 339.129C297.612 343.135 287.186 343.238 291.498 337.741C293.219 335.539 285.054 339.946 285.508 337.175C285.854 335.029 295.12 329.081 299.192 326.566Z" fill="#101010"/>
<path d="M174.174 309.476C174.174 309.476 176.762 323.39 182.811 306.776Z" fill="#101010"/>
<path d="M261.702 342.26C261.834 341.726 262.485 341.409 263.179 341.54C267.74 342.337 283.076 345.257 278.24 347.625C272.579 350.396 279.111 359.43 271.902 355.477C264.694 351.524 267.912 346.59 263.649 348.259C260.264 349.582 261.181 344.455 261.703 342.275L261.702 342.26Z" fill="#101010"/>
<path d="M247.901 336.09C247.901 336.09 240.711 348.57 232.776 334.847Z" fill="#101010"/>
<path d="M313.678 309.594C323.755 317.216 307.309 320.881 307.309 320.881C307.309 320.881 303.791 321.302 302.572 318.771" fill="#101010"/>
<path d="M235.676 394.339L229.613 394.058C227.717 393.97 226.243 392.136 226.415 390.076C226.582 387.983 228.062 386.332 229.961 386.091L232.478 385.771C233.773 385.606 235.015 386.435 235.484 387.772L237.037 392.227C237.411 393.28 236.697 394.374 235.674 394.323L235.676 394.339Z" fill="#101010"/>
<path d="M257.011 380.489C255.928 379.461 254.825 381.401 254.705 381.682C254.303 382.663 253.882 382.702 250.319 380.381C245.517 377.259 246.696 381.727 244.522 386.414C242.347 391.102 248.096 388.601 252.753 391.255C257.412 393.923 252.431 388.05 256.517 388.002C259.895 387.971 258.433 381.843 257.011 380.489Z" fill="#101010"/>
<path d="M209.466 369.885C202.875 368.104 204.812 373.939 205.317 375.711C205.704 377.047 207.592 376.024 207.833 375.843C208.657 375.241 209.019 375.406 210.857 378.996C213.272 383.702 219.442 386.319 218.743 377.527C218.707 377.125 218.607 376.701 218.436 376.331C216.745 372.798 213.634 370.8 209.483 369.898L209.466 369.885Z" fill="#101010"/>
<path d="M219.935 412.231C222.483 414.782 223.823 423.311 227.374 417.791C229.332 414.754 232.087 413.968 233.185 410.546C234.282 407.125 227.996 407.793 225.746 404.986C222.119 400.452 214.936 407.188 219.935 412.231Z" fill="#101010"/>
<path d="M268.881 402.18C268.714 402.118 264.816 400.915 267.703 400.56C271.703 400.063 267.712 395.903 265.457 398.873C264.626 399.977 264.135 400.704 263.843 401.181C263.537 401.695 263.823 402.276 264.477 402.561C265.84 403.136 266.52 403.62 267.064 403.729C268.352 403.993 270.088 402.644 268.881 402.18Z" fill="#101010"/>
<path d="M191.048 316.205C187.94 321.992 196.726 331.16 199.767 322.42Z" fill="#101010"/>
<path d="M211.921 336.268C210.746 336.118 209.596 335.711 208.603 334.969C207.137 333.868 204.452 332.833 200.957 335.866C195.549 340.564 191.081 346.595 200.467 345.806C209.852 345.016 206.443 349.954 214.112 343.517C220.312 338.314 214.546 336.608 211.921 336.268Z" fill="#101010"/>
<path d="M240.161 416.478C240.471 418.915 241.891 424.519 243.606 420.53C244.442 418.586 245.557 418.045 245.928 415.745C246.3 413.444 244.078 412.432 242.483 411.692C240.474 410.765 239.851 414.04 240.161 416.478Z" fill="#101010"/>
<path d="M261.692 415.146C261.692 415.146 259.686 415.652 259.777 417.675C259.82 418.727 260.709 419.182 261.552 419.392C262.315 419.572 263.122 419.14 263.337 418.451C263.551 417.763 264.406 417.351 264.771 417.371C266.093 417.427 265.503 416.234 265.503 416.234C265.503 416.234 264.297 413.995 261.694 415.159L261.692 415.146Z" fill="#101010"/>
<path d="M285.223 415.831C284.22 415.639 283.342 415.252 282.567 414.763C281.686 414.224 280.424 413.822 278.911 414.436C275.898 415.65 278.279 418.208 281.463 420.167C284.647 422.125 287.267 420.693 286.717 417.8C286.46 416.427 285.818 415.947 285.223 415.831Z" fill="#101010"/>
<path d="M284.052 349.679C284.273 351.42 285.659 355.368 288.057 352.377C289.225 350.917 290.645 350.452 291.26 348.762C291.875 347.073 289.184 346.483 287.255 346.064C284.822 345.52 283.83 347.937 284.052 349.679Z" fill="#101010"/>
<path d="M220.348 354.856C220.084 354.741 214.369 352.632 218.652 352.013C224.578 351.155 218.788 343.842 215.39 349.042C214.139 350.968 213.394 352.25 212.95 353.094C212.493 353.984 212.874 355.019 213.863 355.517C215.861 356.526 216.859 357.379 217.65 357.575C219.543 358.047 222.143 355.668 220.366 354.854L220.348 354.856Z" fill="#101010"/>
<path d="M231.231 425.208C230.026 424.606 228.965 425.36 227.681 425.705C226.077 426.121 224.495 427.047 225.465 429.056C226.647 431.505 228.61 431.664 228.933 430.61C229.402 429.13 230.393 429.85 231.163 429.616C231.933 429.382 231.022 428.394 232.075 427.686C233.232 426.904 231.751 425.475 231.219 425.225L231.231 425.208Z" fill="#101010"/>
<path d="M128.653 123.395C125.756 119.917 123.65 116.773 122.354 113.989C121.042 111.208 120.186 108.712 119.785 106.503C119.37 104.296 119.178 102.315 119.176 100.534C119.176 98.7681 119.049 97.1827 118.829 95.8039C118.594 94.4269 117.927 93.1797 116.829 92.0771C116.103 91.3162 115.213 90.9056 114.158 90.8452C113.104 90.7996 112.116 91.1497 111.195 91.9103C110.329 92.6341 109.799 93.5246 109.635 94.5931C109.472 95.6615 109.726 96.602 110.398 97.4146L116.231 104.441L105.144 113.648L99.6122 106.988C97.6681 104.646 96.5687 102.002 96.2954 99.028C96.0368 96.0526 96.5021 93.1199 97.7188 90.2113C98.9354 87.3028 100.843 84.7703 103.456 82.5973C106.123 80.3874 108.993 78.9449 112.067 78.2847C115.141 77.6245 118.101 77.7122 120.959 78.5312C123.802 79.352 126.203 80.9326 128.147 83.2746C129.773 85.238 130.77 87.1916 131.152 89.1336C131.533 91.0757 131.624 93.0846 131.45 95.1273C131.261 97.1718 131.16 99.3248 131.145 101.557C131.114 103.791 131.502 106.136 132.292 108.58C133.082 111.024 134.66 113.667 136.994 116.483L128.682 123.392L128.653 123.395ZM139.621 137.267L131.952 128.035L140.912 120.58L148.581 129.812L139.621 137.267Z" fill="#101010"/>
<path d="M274.292 121.268L280.223 110.83L290.355 116.591L284.423 127.029L274.292 121.268ZM283.408 106.1C285.647 102.163 287.845 99.0851 289.989 96.8818C292.134 94.6785 294.165 92.9984 296.083 91.8415C298.002 90.6847 299.788 89.7841 301.446 89.1692C303.102 88.5396 304.53 87.8792 305.756 87.1694C306.968 86.4616 307.896 85.4007 308.54 83.9869C309.002 83.0301 309.071 82.0484 308.751 81.0565C308.428 80.0499 307.743 79.2539 306.694 78.6539C305.71 78.0907 304.685 77.9215 303.636 78.1447C302.587 78.3679 301.791 78.9331 301.264 79.8532L296.751 87.7906L284.217 80.6736L288.497 73.14C290.002 70.4942 292.101 68.5211 294.781 67.2375C297.46 65.939 300.379 65.3583 303.536 65.4659C306.678 65.5753 309.726 66.4749 312.677 68.15C315.679 69.8637 318.037 72.0484 319.75 74.6892C321.448 77.332 322.419 80.142 322.659 83.0898C322.884 86.0395 322.253 88.8437 320.748 91.4895C319.488 93.7001 318.018 95.3238 316.324 96.3623C314.63 97.4008 312.801 98.2021 310.821 98.7532C308.841 99.3043 306.8 99.9679 304.697 100.729C302.593 101.49 300.53 102.681 298.533 104.282C296.522 105.884 294.612 108.282 292.801 111.461L283.396 106.116L283.408 106.1Z" fill="#101010"/>
<path d="M201.904 82.6975C201.421 78.1941 201.42 74.4226 201.871 71.372C202.321 68.3215 203.001 65.7805 203.875 63.7088C204.751 61.6518 205.693 59.8856 206.672 58.3992C207.652 56.9276 208.434 55.5411 209.006 54.2711C209.576 52.9863 209.713 51.592 209.413 50.0586C209.236 49.0185 208.711 48.1872 207.866 47.5463C207.023 46.9201 206.003 46.6607 204.808 46.7977C203.685 46.9105 202.756 47.3729 202.019 48.17C201.282 48.9671 200.98 49.8885 201.084 50.938L202.042 60.0056L187.703 61.5293L186.788 52.9201C186.463 49.8933 187.017 47.069 188.452 44.462C189.884 41.8403 191.898 39.6686 194.519 37.9136C197.141 36.1733 200.135 35.1192 203.515 34.7493C206.956 34.3866 210.149 34.774 213.079 35.928C216.01 37.082 218.428 38.7951 220.346 41.0506C222.249 43.3081 223.365 45.9649 223.688 48.977C223.95 51.5031 223.704 53.6895 222.949 55.5216C222.179 57.3556 221.155 59.0722 219.877 60.6715C218.584 62.2727 217.322 64.0046 216.061 65.8562C214.8 67.7077 213.817 69.8681 213.13 72.3501C212.428 74.834 212.278 77.8913 212.665 81.5239L201.915 82.6662L201.904 82.6975ZM203.353 100.338L202.089 88.3912L213.681 87.1569L214.945 99.1041L203.353 100.338Z" fill="#101010"/>
</svg>
