<svg width="854" height="472" viewBox="0 0 854 472" fill="none" xmlns="http://www.w3.org/2000/svg">
<path d="M550.845 361.113C550.845 361.113 554.765 399.255 583.123 409.054C620.894 400.888 654.834 389.099 684.142 366.012" fill="#9F3541"/>
<path d="M550.845 361.113C550.845 361.113 554.765 399.255 583.123 409.054C620.894 400.888 654.834 389.099 684.142 366.012" stroke="#101010" stroke-width="5" stroke-miterlimit="10"/>
<path d="M691.016 292.297C691.016 292.297 741.14 298.235 735.439 353.927C734.993 358.232 738.275 362.033 742.595 362.196C744.288 362.256 746.322 362.271 748.786 362.167C755.23 361.914 752.854 365.7 748.89 369.546C742.476 375.752 734.043 379.538 725.15 380.221C709.026 381.483 681.692 377.251 655.918 343.341C616.009 290.827 691.016 292.297 691.016 292.297Z" fill="#101010"/>
<path d="M704.661 235.863H670.527V288.392H704.661V235.863Z" fill="#101010" stroke="#101010" stroke-width="5" stroke-miterlimit="10" stroke-linecap="round"/>
<path d="M740.635 284.294C727.303 284.294 716.776 278.162 709.338 266.077L721.126 266.685C734.37 267.368 746.633 274.569 752.914 281.429C753.107 281.636 753.151 281.874 753.077 282.141C753.032 282.305 752.854 282.691 752.32 282.824C748.311 283.819 744.392 284.309 740.65 284.309L740.635 284.294ZM709.367 265.008C711.119 251.541 719.567 220.793 759.535 208.633C759.654 208.604 759.773 208.574 759.877 208.574C760.159 208.574 760.426 208.678 760.604 208.871C760.753 209.02 760.812 209.198 760.797 209.406C760.204 219.709 755.527 253.947 720.71 262.291L709.353 265.008H709.367Z" fill="#F1E8C9"/>
<path d="M758.422 211.321C757.353 223.08 751.518 252.64 720.191 260.138L712.055 262.083C713.391 254.6 715.93 247.577 719.656 241.134C727.793 227.074 740.828 217.052 758.407 211.321M713.703 268.541L721.007 268.912C732.484 269.492 743.174 275.222 749.514 281.161C746.47 281.77 743.501 282.082 740.635 282.082C729.53 282.082 720.503 277.539 713.703 268.541ZM759.877 206.347C759.55 206.347 759.209 206.392 758.882 206.496C709.338 221.58 707.393 264.191 706.947 266.314C706.918 266.314 706.903 266.314 706.873 266.329C706.873 266.388 706.888 266.418 706.903 266.418C716.568 282.75 730.005 286.536 740.606 286.536C745.49 286.536 749.781 285.734 752.81 284.977C755.17 284.398 756.091 281.636 754.517 279.929C747.598 272.387 734.86 265.171 721.2 264.473C755.438 256.278 762.163 223.733 762.995 209.554C763.099 207.758 761.614 206.362 759.847 206.362L759.877 206.347Z" fill="#101010"/>
<path d="M712.262 261.311L724.274 250.844" stroke="#101010" stroke-width="5" stroke-miterlimit="10" stroke-linecap="round"/>
<path d="M713.124 268.645L727.778 274.896" stroke="#101010" stroke-width="5" stroke-miterlimit="10" stroke-linecap="round"/>
<path d="M696.406 320.254C718.884 371.342 637.032 393.999 585.855 383.888C558.239 378.439 538.374 359.168 549.836 333.957C580.792 368.447 664.752 356.688 677.921 315.443L696.391 320.254H696.406Z" fill="#9F3541" stroke="#101010" stroke-width="5" stroke-miterlimit="10"/>
<path d="M512.703 211.083C513.193 213.058 521.003 227.163 554.587 235.106L566.613 211.766C566.613 211.766 525.992 195.36 512.822 210.593C512.703 210.727 512.659 210.905 512.703 211.068V211.083Z" fill="#9F3541" stroke="#101010" stroke-width="5" stroke-miterlimit="10"/>
<path d="M697.119 241.089L660.253 236.784C659.942 236.739 659.615 236.739 659.288 236.754C653.543 237.036 651.687 244.623 656.646 247.518C661.604 250.413 667.499 253.887 673.452 257.243C674.803 258 676.11 258.861 677.357 259.811C677.565 259.975 677.773 260.138 677.951 260.331L696.257 278.133C697.787 279.617 699.999 280.152 702.018 279.499C702.374 279.38 702.731 279.276 703.102 279.172C705.834 278.385 707.571 275.713 707.215 272.892C706.235 265.097 703.503 252.135 702.078 245.603C701.558 243.183 699.554 241.386 697.104 241.104L697.119 241.089Z" fill="#F1E8C9" stroke="#101010" stroke-width="5" stroke-miterlimit="10"/>
<path d="M566.613 211.766C566.613 211.766 534.425 247.666 548.604 271.466C548.604 271.466 533.623 288.763 539.22 312.934C543.214 330.171 556.205 343.89 572.849 349.888C598.297 359.064 663.03 359.969 677.921 315.458C677.921 315.458 699.746 329.652 711.758 306.179C723.769 282.72 707.942 260.108 679.569 284.235C679.569 284.235 667.558 283.255 671.389 245.068C675.204 206.867 566.628 211.781 566.628 211.781L566.613 211.766Z" fill="#EF837C" stroke="#101010" stroke-width="5" stroke-miterlimit="10"/>
<path d="M631.395 276.417C632.629 270.475 630.785 265.069 627.276 264.34C623.768 263.612 619.923 267.837 618.69 273.779C617.456 279.72 619.3 285.126 622.809 285.855C626.317 286.583 630.162 282.358 631.395 276.417Z" fill="#101010"/>
<path d="M576.979 267.927C578.212 261.985 576.368 256.579 572.86 255.85C569.351 255.122 565.507 259.347 564.273 265.289C563.04 271.23 564.884 276.636 568.392 277.365C571.901 278.093 575.745 273.868 576.979 267.927Z" fill="#101010"/>
<path d="M582.974 281.681C571.646 284.398 570.473 298.503 584.029 301.68" stroke="#101010" stroke-width="5" stroke-miterlimit="10" stroke-linecap="round"/>
<path d="M708.12 290.055C708.12 290.055 695.456 276.44 687.587 301.68" stroke="#101010" stroke-width="5" stroke-miterlimit="10" stroke-linecap="round"/>
<path d="M673.467 257.243L642.749 234.705L642.778 221.075L675.709 237.645" fill="#F1E8C9"/>
<path d="M673.467 257.243L642.749 234.705L642.778 221.075L675.709 237.645" stroke="#101010" stroke-width="5"/>
<path d="M708.12 256.218L708.447 273.575C715.158 275.683 717.83 269.492 717.058 264.355C716.286 259.217 712.292 255.58 708.12 256.218Z" fill="#F1E8C9" stroke="#101010" stroke-width="5" stroke-miterlimit="10"/>
<path d="M649.549 168.205C651.612 159.089 671.314 162.429 668.582 175.435Z" fill="#9F3541"/>
<path d="M649.549 168.205C651.612 159.089 671.314 162.429 668.582 175.435" stroke="#101010" stroke-width="5" stroke-miterlimit="10"/>
<path d="M702.003 259.485C682.568 236.338 573.754 197.454 572.656 197.068L570.28 196.221L571.423 193.965C580.198 176.579 600.598 166.201 626.001 166.201C645.956 166.201 666.385 172.808 682.049 184.329C718.543 211.172 705.997 258.178 705.863 258.653L704.735 262.736L702.018 259.499L702.003 259.485Z" fill="#9F3541"/>
<path d="M626.001 168.428C644.664 168.428 664.693 174.322 680.727 186.125C716.405 212.36 703.725 258.059 703.725 258.059C683.682 234.185 573.413 194.974 573.413 194.974C582.336 177.277 603.152 168.443 626.001 168.443M626.001 163.974C599.737 163.974 578.595 174.812 569.434 192.955L567.162 197.469L571.928 199.161C573.027 199.547 681.277 238.239 700.311 260.925L705.745 267.413L708.001 259.262C708.135 258.757 711.372 246.88 710.021 231.557C708.224 211.009 698.989 194.054 683.34 182.547C667.306 170.759 646.401 163.988 625.986 163.988L626.001 163.974Z" fill="#101010"/>
<path d="M674.863 180.157C674.863 180.157 686.503 205.308 678.174 235.091" stroke="#101010" stroke-width="5" stroke-miterlimit="10" stroke-linecap="round"/>
<path d="M676.912 243.197C676.912 243.197 641.62 246.39 574.809 213.548C564.015 208.248 552.226 204.996 540.126 204.447C529.599 203.957 518.301 205.07 512.956 210.92C512.837 211.039 512.629 210.965 512.659 210.801C513.104 207.609 521.018 180.973 578.847 200.972C639.72 222.04 676.912 243.197 676.912 243.197Z" fill="#9F3541" stroke="#101010" stroke-width="5" stroke-miterlimit="10"/>
<path d="M587.132 395.884C588.319 398.854 587.265 402.031 584.801 403.056C578.684 405.594 582.099 400.873 578.164 399.477C575.061 398.379 578.016 393.301 580.495 392.306C582.975 391.312 585.944 392.915 587.132 395.884Z" fill="#101010"/>
<path d="M699.435 338.382C691.298 342.866 687.646 325.747 699.776 329.132Z" fill="#101010"/>
<path d="M683.608 344.885C683.608 346.548 682.88 350.423 680.594 347.899C679.48 346.666 678.263 346.399 677.58 344.885C676.897 343.37 679.05 342.494 680.594 341.871C682.539 341.069 683.608 343.222 683.608 344.885Z" fill="#101010"/>
<path d="M615.193 395.454C615.193 397.013 614.02 397.904 612.461 397.904C610.902 397.904 608.808 397.518 608.808 395.959C608.808 394.4 604.622 394.162 610.234 391.742C611.659 391.133 615.193 393.895 615.193 395.454Z" fill="#101010"/>
<path d="M635.384 376.123C635.384 376.123 637.003 363.102 619.602 369.976C611.214 373.287 624.902 374.178 624.902 374.178C624.902 374.178 634.004 382.284 635.384 376.108V376.123Z" fill="#101010"/>
<path d="M560.377 371.892C561.758 365.745 551.41 351.269 550.845 361.113Z" fill="#101010"/>
<path d="M555.894 375.529C555.894 375.529 566.598 377.593 559.353 384.036Z" fill="#101010"/>
<path d="M629.431 394.266C629.431 394.266 632.074 383.68 638.116 391.267Z" fill="#101010"/>
<path d="M690.2 361.246C690.2 361.246 672.844 349.532 696.881 349.829Z" fill="#101010"/>
<path d="M566.346 353.08C565.47 352.694 564.683 353.036 564.995 353.689C566.45 356.748 564.92 360.831 567.845 365.611C570.147 369.382 580.911 368.165 575.744 363.236C573.68 361.261 582.678 364.617 581.846 361.914C581.208 359.821 570.874 355.07 566.346 353.08Z" fill="#101010"/>
<path d="M688.344 320.476C688.344 320.476 687.512 332.354 679.228 319.14Z" fill="#101010"/>
<path d="M605.453 363.666C605.26 363.176 604.592 362.954 603.938 363.161C599.633 364.468 585.187 369.085 590.146 370.748C595.951 372.693 590.754 382.047 597.228 377.429C603.701 372.812 599.989 368.521 604.31 369.59C607.739 370.437 606.225 365.685 605.453 363.681V363.666Z" fill="#101010"/>
<path d="M618.429 356.065C618.429 356.065 627.501 367.616 633.9 352.902Z" fill="#101010"/>
<path d="M550.563 336.971C542.576 346.963 557.408 348.73 557.408 348.73C557.408 348.73 560.541 348.7 561.328 345.687" fill="#101010"/>
<path d="M673.393 329.073C677.654 334.047 669.206 343.534 664.604 335.828Z" fill="#101010"/>
<path d="M654.285 351.492C655.487 351.195 656.631 350.646 657.566 349.784C658.947 348.508 661.604 347.142 665.643 349.71C671.893 353.689 677.342 359.108 667.469 359.509C657.596 359.91 661.797 364.379 652.963 358.96C645.822 354.58 651.597 352.16 654.285 351.492Z" fill="#101010"/>
<path d="M573.695 388.431C573.695 390.732 572.967 396.107 570.681 392.603C569.567 390.896 568.35 390.525 567.667 388.431C566.984 386.338 569.137 385.135 570.681 384.259C572.626 383.16 573.695 386.13 573.695 388.431Z" fill="#101010"/>
<path d="M594.481 392.648C595.075 392.395 595.58 391.995 596.025 391.534C596.53 391.015 597.257 390.569 598.237 390.896C600.167 391.549 598.92 393.821 597.124 395.706C595.327 397.592 593.62 396.716 593.724 394.355C593.783 393.242 594.125 392.796 594.481 392.648Z" fill="#101010"/>
<path d="M584.029 374.594C584.029 376.257 583.301 380.132 581.015 377.608C579.901 376.375 578.684 376.108 578.001 374.594C577.318 373.079 579.471 372.203 581.015 371.58C582.96 370.778 584.029 372.931 584.029 374.594Z" fill="#101010"/>
<path d="M648.584 371.03C648.791 370.882 653.335 368.046 649.697 367.972C644.664 367.868 648.717 359.821 652.102 364.587C653.35 366.354 654.107 367.541 654.567 368.328C655.042 369.16 654.834 370.243 654.062 370.867C652.503 372.129 651.761 373.109 651.122 373.406C649.593 374.119 647.173 372.07 648.569 371.03H648.584Z" fill="#101010"/>
<path d="M556.294 150.389C553.859 146.573 552.167 143.188 551.231 140.263C550.281 137.338 549.747 134.755 549.628 132.513C549.494 130.271 549.554 128.281 549.776 126.515C549.999 124.763 550.073 123.174 550.029 121.778C549.969 120.383 549.465 119.061 548.514 117.829C547.891 116.983 547.059 116.463 546.02 116.27C544.981 116.092 543.956 116.315 542.947 116.953C541.997 117.562 541.358 118.378 541.061 119.418C540.764 120.457 540.898 121.422 541.462 122.313L546.362 130.019L534.202 137.754L529.555 130.449C527.922 127.881 527.164 125.119 527.268 122.135C527.387 119.15 528.218 116.3 529.792 113.568C531.366 110.836 533.578 108.565 536.444 106.738C539.369 104.882 542.397 103.814 545.53 103.546C548.663 103.279 551.588 103.739 554.32 104.912C557.037 106.085 559.219 107.956 560.852 110.524C562.218 112.677 562.961 114.741 563.094 116.716C563.228 118.69 563.064 120.695 562.634 122.699C562.189 124.703 561.817 126.826 561.52 129.039C561.209 131.251 561.298 133.626 561.773 136.15C562.248 138.674 563.48 141.495 565.44 144.583L556.324 150.389H556.294ZM565.425 165.533L558.982 155.407L568.81 149.142L575.254 159.267L565.425 165.533Z" fill="#101010"/>
<path d="M701.038 166.646L708.239 157.04L717.563 164.033L710.362 173.639L701.038 166.646ZM711.995 152.749C714.712 149.127 717.281 146.35 719.686 144.435C722.091 142.52 724.318 141.109 726.367 140.204C728.416 139.298 730.302 138.63 732.024 138.229C733.746 137.813 735.246 137.338 736.552 136.789C737.844 136.239 738.898 135.304 739.715 133.983C740.294 133.092 740.487 132.127 740.294 131.102C740.101 130.063 739.522 129.187 738.557 128.46C737.651 127.777 736.656 127.48 735.587 127.569C734.518 127.658 733.657 128.118 733.019 128.964L727.54 136.269L716.004 127.628L721.2 120.695C723.027 118.26 725.358 116.567 728.179 115.632C730.999 114.681 733.969 114.474 737.087 114.978C740.19 115.483 743.1 116.76 745.817 118.794C748.578 120.873 750.642 123.337 752.008 126.173C753.359 129.009 753.968 131.919 753.834 134.873C753.686 137.828 752.706 140.53 750.88 142.965C749.35 144.999 747.688 146.424 745.876 147.241C744.065 148.058 742.15 148.622 740.116 148.919C738.082 149.216 735.973 149.617 733.791 150.107C731.608 150.596 729.411 151.517 727.228 152.853C725.031 154.189 722.834 156.327 720.636 159.252L711.98 152.764L711.995 152.749Z" fill="#101010"/>
<path d="M634.093 119.254C634.182 114.726 634.657 110.985 635.488 108.015C636.32 105.046 637.315 102.611 638.443 100.666C639.571 98.7358 640.729 97.1026 641.887 95.7515C643.046 94.4153 643.996 93.1384 644.723 91.9507C645.451 90.7481 645.763 89.3821 645.659 87.8232C645.614 86.769 645.198 85.8782 644.441 85.1359C643.684 84.4084 642.704 84.0223 641.501 84.0075C640.373 83.9778 639.393 84.3193 638.562 85.0171C637.73 85.7149 637.315 86.5909 637.285 87.645L637.092 96.7611L622.675 96.4642L622.854 87.8083C622.913 84.7647 623.819 82.0328 625.571 79.6276C627.323 77.2075 629.594 75.3071 632.415 73.8967C635.236 72.501 638.339 71.8329 641.739 71.8923C645.198 71.9665 648.316 72.7534 651.078 74.2678C653.839 75.7822 656.022 77.7866 657.64 80.266C659.244 82.7455 660.016 85.5219 659.956 88.5507C659.897 91.0895 659.377 93.2275 658.397 94.9498C657.403 96.672 656.17 98.2458 654.7 99.6711C653.216 101.096 651.746 102.655 650.261 104.333C648.777 106.011 647.529 108.03 646.535 110.406C645.525 112.781 644.991 115.795 644.916 119.447L634.108 119.225L634.093 119.254ZM633.306 136.937L633.558 124.926L645.213 125.163L644.961 137.175L633.306 136.937Z" fill="#101010"/>
<path d="M586.627 236.739C586.627 236.739 587.948 241.401 571.201 243.168C558.328 244.519 557.571 250.844 557.571 250.844" stroke="#101010" stroke-width="5" stroke-miterlimit="10" stroke-linecap="round"/>
<path d="M646.149 252.625C641.086 255.179 626.313 244.355 614.999 247.087" stroke="#101010" stroke-width="5" stroke-miterlimit="10" stroke-linecap="round"/>
<path d="M628.659 270.665H628.703C630.633 270.635 631.658 270.605 633.187 269.655L634.004 269.135" fill="#EF837C"/>
<path d="M628.659 270.665H628.703C630.633 270.635 631.658 270.605 633.187 269.655L634.004 269.135" stroke="#101010" stroke-width="5" stroke-linecap="round"/>
<path d="M567.43 262.989L567.385 262.959C565.663 262.098 564.742 261.652 563.777 260.123L563.258 259.307" fill="#EF837C"/>
<path d="M567.43 262.989L567.385 262.959C565.663 262.098 564.742 261.652 563.777 260.123L563.258 259.307" stroke="#101010" stroke-width="5" stroke-linecap="round"/>
<path d="M579.411 328.553C582.098 321.946 596.99 316.794 604.414 331.478C605.275 333.185 604.518 335.249 603.345 336.11C600.984 337.832 595.877 337.476 592.091 334.046C591.408 333.423 590.472 333.126 589.552 333.334C587.518 333.779 583.88 334.358 580.955 333.571C578.669 332.963 578.55 330.647 579.396 328.553H579.411Z" fill="#101010"/>
<path d="M148.903 218.874H183.052V270.839H148.903V218.874Z" fill="#101010" stroke="#101010" stroke-width="5" stroke-miterlimit="10" stroke-linecap="round"/>
<path d="M113.749 267.855C126.827 267.855 137.153 261.724 144.449 249.641L132.886 250.25C119.895 250.932 107.865 258.132 101.705 264.99C101.516 265.198 101.472 265.435 101.545 265.702C101.588 265.866 101.763 266.252 102.288 266.385C106.22 267.38 110.065 267.87 113.735 267.87L113.749 267.855ZM144.42 248.572C142.702 235.109 134.415 204.366 95.2096 192.209C95.0931 192.179 94.9765 192.15 94.8746 192.15C94.5979 192.15 94.3357 192.254 94.161 192.447C94.0153 192.595 93.9571 192.773 93.9716 192.981C94.5542 203.283 99.1418 237.513 133.294 245.856L144.435 248.572H144.42Z" fill="#F1E8C9"/>
<path d="M95.6018 195.638C96.6764 207.395 102.542 236.95 134.032 244.446L142.21 246.39C140.867 238.909 138.315 231.888 134.569 225.445C126.391 211.388 113.287 201.368 95.6168 195.638M140.554 252.848L133.211 253.219C121.674 253.798 110.929 259.528 104.556 265.465C107.616 266.074 110.601 266.386 113.481 266.386C124.644 266.386 133.718 261.843 140.554 252.848ZM94.1393 190.665C94.4676 190.665 94.8108 190.71 95.1392 190.813C144.941 205.895 146.896 248.498 147.344 250.621C147.374 250.621 147.389 250.621 147.419 250.636C147.419 250.695 147.404 250.725 147.389 250.725C137.673 267.054 124.167 270.839 113.511 270.839C108.601 270.839 104.288 270.037 101.243 269.28C98.8703 268.701 97.9449 265.94 99.5269 264.233C106.482 256.692 119.287 249.478 133.017 248.78C98.6016 240.586 91.8409 208.048 91.0052 193.871C90.9007 192.075 92.3931 190.68 94.1691 190.68L94.1393 190.665Z" fill="#101010"/>
<path d="M141.48 244.114L129.602 235.206" stroke="#101010" stroke-width="5" stroke-miterlimit="10" stroke-linecap="round"/>
<path d="M139.995 253.023L125.148 257.477" stroke="#101010" stroke-width="5" stroke-miterlimit="10" stroke-linecap="round"/>
<path d="M157.16 303.789C134.795 354.142 216.234 376.473 267.154 366.507C294.631 361.137 314.396 342.143 302.992 317.296C272.192 351.289 188.654 339.699 175.551 299.048L157.175 303.789H157.16Z" fill="#9F3541" stroke="#101010" stroke-width="5" stroke-miterlimit="10"/>
<path d="M177.113 353.982C177.113 353.982 197.265 434.715 198.3 435.122C202.868 436.945 205.722 437.699 211.488 436.644C213.336 436.312 214.578 434.519 214.312 432.619L212.375 418.752L216.13 433.509C216.515 435.001 217.786 436.071 219.28 436.177C223.183 436.463 226.82 436.237 229.94 435.016C231.462 434.413 232.349 432.785 232.098 431.127L229.836 416.732L233.798 431.519C234.183 432.936 235.38 434.006 236.829 434.127C240.762 434.489 243.601 434.021 246.41 432.831C248.007 432.152 248.864 430.374 248.45 428.67L244.976 414.501L250.387 429.484C250.845 430.75 251.954 431.685 253.27 431.806C255.665 432.017 258.386 431.806 261.594 430.992C263.546 430.494 264.684 428.399 264.078 426.439L259.406 411.562L264.137 426.635C264.729 428.504 266.665 429.545 268.499 428.957C271.663 427.962 276.172 426.153 277.739 423.651C280.253 419.626 267.73 367.187 267.73 367.187C227.648 372.553 199.704 364.911 177.113 353.982Z" fill="#9F3541" stroke="#101010" stroke-width="5" stroke-miterlimit="10"/>
<path d="M340.414 194.707C339.928 196.693 332.187 210.883 298.901 218.874L286.981 195.394C286.981 195.394 327.243 178.889 340.296 194.214C340.414 194.348 340.458 194.527 340.414 194.692V194.707Z" fill="#9F3541" stroke="#101010" stroke-width="5" stroke-miterlimit="10"/>
<path d="M156.07 224.706L192.913 220.398C193.224 220.353 193.551 220.353 193.877 220.368C199.619 220.65 201.474 228.242 196.518 231.139C191.562 234.036 185.672 237.513 179.722 240.87C178.371 241.628 177.066 242.49 175.819 243.44C175.612 243.604 175.404 243.767 175.226 243.96L156.931 261.774C155.402 263.259 153.191 263.794 151.173 263.141C150.817 263.022 150.461 262.918 150.09 262.814C147.36 262.026 145.624 259.352 145.98 256.529C146.96 248.73 149.69 235.76 151.114 229.223C151.633 226.801 153.637 225.003 156.085 224.721L156.07 224.706Z" fill="#F1E8C9" stroke="#101010" stroke-width="5" stroke-miterlimit="10"/>
<path d="M286.733 195.309C286.733 195.309 318.71 231.373 304.624 255.282C304.624 255.282 319.507 272.657 313.946 296.939C309.979 314.255 297.073 328.036 280.538 334.061C255.257 343.279 190.948 344.189 176.154 299.474C176.154 299.474 154.472 313.733 142.54 290.152C130.607 266.572 146.33 243.872 174.517 268.108C174.517 268.108 186.45 267.124 182.644 228.763C178.839 190.403 286.718 195.324 286.718 195.324L286.733 195.309Z" fill="#EF837C" stroke="#101010" stroke-width="5" stroke-miterlimit="10"/>
<path d="M222.124 260.204C220.895 254.284 222.733 248.897 226.228 248.171C229.724 247.446 233.554 251.656 234.783 257.575C236.012 263.495 234.175 268.882 230.679 269.608C227.184 270.333 223.353 266.123 222.124 260.204Z" fill="#101010"/>
<path d="M276.343 251.745C275.113 245.825 276.951 240.438 280.447 239.712C283.942 238.987 287.772 243.197 289.002 249.116C290.231 255.036 288.393 260.423 284.898 261.149C281.402 261.874 277.572 257.664 276.343 251.745Z" fill="#101010"/>
<path d="M288.466 221.969C288.466 221.969 272.501 212.027 264.71 227.783" stroke="#101010" stroke-width="5" stroke-miterlimit="10" stroke-linecap="round"/>
<path d="M236.501 230.752C236.501 230.752 234.176 236.699 224.623 235.815C215.071 234.932 209.776 242.63 209.776 242.63" stroke="#101010" stroke-width="5" stroke-miterlimit="10" stroke-linecap="round"/>
<path d="M270.117 264.9C280.353 267.522 281.413 281.135 269.164 284.201" stroke="#101010" stroke-width="5" stroke-miterlimit="10" stroke-linecap="round"/>
<path d="M233.073 311.807C231.654 307.898 232.67 303.943 235.343 302.973C238.015 302.003 241.332 304.385 242.751 308.294C244.17 312.203 243.153 316.158 240.481 317.128C237.808 318.098 234.492 315.716 233.073 311.807Z" fill="#101010" stroke="#101010" stroke-width="5" stroke-miterlimit="10" stroke-linecap="round"/>
<path d="M145.934 274.043C145.934 274.043 158.754 262.146 166.72 284.201" stroke="#101010" stroke-width="5" stroke-miterlimit="10" stroke-linecap="round"/>
<path d="M180.718 241.145L209.776 218.015L209.748 204.027L178.598 221.032" fill="#F1E8C9"/>
<path d="M180.718 241.145L209.776 218.015L209.748 204.027L178.598 221.032" stroke="#101010" stroke-width="5"/>
<path d="M145.934 241.211L145.613 257.089C139.02 259.018 136.394 253.354 137.153 248.655C137.911 243.968 141.835 240.627 145.934 241.211Z" fill="#F1E8C9" stroke="#101010" stroke-width="5" stroke-miterlimit="10"/>
<path d="M203.838 151.682C201.773 141.843 182.063 145.448 184.796 159.486Z" fill="#9F3541"/>
<path d="M203.838 151.682C201.773 141.843 182.063 145.448 184.796 159.486" stroke="#101010" stroke-width="5" stroke-miterlimit="10"/>
<path d="M151.931 242.399C171.2 219.615 279.082 181.341 280.172 180.961L282.527 180.128L281.393 177.906C272.694 160.793 252.469 150.578 227.283 150.578C207.499 150.578 187.244 157.081 171.715 168.422C135.533 194.844 147.971 241.113 148.104 241.58L149.223 245.599L151.916 242.413L151.931 242.399Z" fill="#9F3541"/>
<path d="M227.801 152.084C209.031 152.084 188.886 158.006 172.758 169.865C136.874 196.224 149.627 242.14 149.627 242.14C169.787 218.153 280.694 178.756 280.694 178.756C271.719 160.975 250.783 152.099 227.801 152.099M227.801 147.609C254.218 147.609 275.482 158.498 284.696 176.727L286.981 181.262L282.187 182.963C281.082 183.351 172.206 222.225 153.062 245.019L147.596 251.538L145.326 243.348C145.192 242.841 141.937 230.907 143.296 215.512C145.102 194.867 154.391 177.831 170.13 166.27C186.258 154.426 207.283 147.624 227.816 147.624L227.801 147.609Z" fill="#101010"/>
<path d="M178.597 163.94C178.597 163.94 167.649 189.091 175.483 218.874" stroke="#101010" stroke-width="5" stroke-miterlimit="10" stroke-linecap="round"/>
<path d="M177.113 227.697C177.113 227.697 212.203 230.94 278.633 197.575C289.365 192.191 301.086 188.887 313.117 188.329C323.584 187.831 334.818 188.963 340.132 194.906C340.25 195.026 340.457 194.951 340.427 194.785C339.985 191.542 332.116 164.483 274.617 184.8C214.092 206.203 177.113 227.697 177.113 227.697Z" fill="#9F3541" stroke="#101010" stroke-width="5" stroke-miterlimit="10"/>
<path d="M240.955 187.696C240.135 187.696 239.47 187.031 239.47 186.211C239.47 185.391 240.135 184.726 240.955 184.726C241.775 184.726 242.44 185.391 242.44 186.211C242.44 187.031 241.775 187.696 240.955 187.696Z" fill="white"/>
<path d="M217.2 195.119C216.38 195.119 215.715 194.454 215.715 193.634C215.715 192.814 216.38 192.15 217.2 192.15C218.02 192.15 218.684 192.814 218.684 193.634C218.684 194.454 218.02 195.119 217.2 195.119Z" fill="white"/>
<path d="M248.379 166.91C247.559 166.91 246.894 166.245 246.894 165.425C246.894 164.605 247.559 163.94 248.379 163.94C249.199 163.94 249.863 164.605 249.863 165.425C249.863 166.245 249.199 166.91 248.379 166.91Z" fill="white"/>
<path d="M209.776 165.425C208.956 165.425 208.292 165.093 208.292 164.683C208.292 164.273 208.956 163.94 209.776 163.94C210.596 163.94 211.261 164.273 211.261 164.683C211.261 165.093 210.596 165.425 209.776 165.425Z" fill="white"/>
<path d="M221.654 178.787C220.834 178.787 220.169 178.123 220.169 177.303C220.169 176.483 220.834 175.818 221.654 175.818C222.474 175.818 223.139 176.483 223.139 177.303C223.139 178.123 222.474 178.787 221.654 178.787Z" fill="white"/>
<path d="M198.641 181.757C198.231 181.757 197.899 181.092 197.899 180.272C197.899 179.452 198.231 178.787 198.641 178.787C199.051 178.787 199.383 179.452 199.383 180.272C199.383 181.092 199.051 181.757 198.641 181.757Z" fill="white"/>
<path d="M230.562 162.456C229.742 162.456 229.077 161.791 229.077 160.971C229.077 160.151 229.742 159.486 230.562 159.486C231.382 159.486 232.047 160.151 232.047 160.971C232.047 161.791 231.382 162.456 230.562 162.456Z" fill="white"/>
<path d="M156.327 305.326L156.475 306.386C156.772 308.459 158.669 309.995 160.433 309.251C164.903 307.399 159.79 294.594 159.79 294.594" fill="#9F3541"/>
<mask id="mask0_39_2995" style="mask-type:luminance" maskUnits="userSpaceOnUse" x="156" y="295" width="4" height="11">
<path d="M159.6 305.878H156.168V299.221L159.392 295.597L159.6 305.878Z" fill="white"/>
</mask>
<g mask="url(#mask0_39_2995)">
<path d="M151.419 270.981C135.088 283.6 143.801 304.739 164.614 303.467C192.587 371.706 333.489 351.795 265.635 226.81C199.451 210.094 162.173 225.686 151.419 270.981Z" fill="#EF837C" stroke="#101010" stroke-width="5" stroke-miterlimit="10"/>
</g>
<path d="M222.125 402.428C220.981 405.422 221.996 408.625 224.37 409.658C230.261 412.217 226.972 407.458 230.762 406.051C233.751 404.943 230.905 399.824 228.517 398.821C226.129 397.818 223.269 399.435 222.125 402.428Z" fill="#101010"/>
<path d="M153.746 322.054C163.014 326.513 167.175 309.488 153.358 312.855Z" fill="#101010"/>
<path d="M169.689 328.465C169.689 329.869 170.566 333.142 173.323 331.01C174.665 329.969 176.133 329.744 176.956 328.465C177.779 327.186 175.184 326.446 173.323 325.919C170.978 325.242 169.689 327.06 169.689 328.465Z" fill="#101010"/>
<path d="M258.772 402.134C258.772 403.616 259.876 404.462 261.344 404.462C262.811 404.462 264.782 404.095 264.782 402.614C264.782 401.132 268.724 400.906 263.44 398.605C262.098 398.027 258.772 400.652 258.772 402.134Z" fill="#101010"/>
<path d="M237.986 370.352C237.986 370.352 237.739 388.823 251.348 367.345Z" fill="#101010"/>
<path d="M246.97 391.865C245.594 391.068 245.027 389.224 245.679 387.677C248.005 382.193 253.904 370.77 260.922 376.192C269.26 382.63 261.844 384.083 257.604 383.349C256.243 383.115 255.123 384.521 255.463 385.99C256.569 390.599 257.009 397.694 246.955 391.881L246.97 391.865Z" fill="#101010"/>
<path d="M218.723 359.441C218.723 359.441 217.168 348.348 233.887 354.205C241.947 357.025 228.794 357.784 228.794 357.784C228.794 357.784 220.05 364.691 218.723 359.429V359.441Z" fill="#101010"/>
<path d="M291.591 355.467C289.893 349.002 302.619 333.776 303.313 344.129Z" fill="#101010"/>
<path d="M186.021 388.464C199.143 385.862 193.891 399.33 193.891 399.33C193.891 399.33 192.411 402.003 189.2 401.406" fill="#101010"/>
<path d="M276.259 404.462C276.259 404.462 262.503 414.735 278.073 417.825Z" fill="#101010"/>
<path d="M163.334 345.074C163.334 345.074 181.538 332.894 156.327 333.202Z" fill="#101010"/>
<path d="M210.261 367.345C202.955 370.41 217.492 387.88 229.077 369.317Z" fill="#101010"/>
<path d="M287.099 336.328C287.942 335.943 288.699 336.283 288.399 336.934C286.999 339.981 288.47 344.047 285.656 348.809C283.442 352.565 273.086 351.353 278.057 346.443C280.043 344.476 271.386 347.818 272.186 345.127C272.801 343.042 282.742 338.309 287.099 336.328Z" fill="#101010"/>
<path d="M165.235 303.607C165.235 303.607 166.048 317.737 174.143 302.018Z" fill="#101010"/>
<path d="M247.929 347.168C248.127 346.656 248.814 346.423 249.485 346.64C253.909 348.007 268.755 352.837 263.659 354.577C257.693 356.612 263.033 366.397 256.381 361.566C249.729 356.736 253.543 352.247 249.104 353.365C245.579 354.251 247.135 349.281 247.929 347.184V347.168Z" fill="#101010"/>
<path d="M235.016 339.307C235.016 339.307 226.31 350.781 220.169 336.166Z" fill="#101010"/>
<path d="M303.61 321.319C312.645 330.15 295.869 331.712 295.869 331.712C295.869 331.712 292.325 331.686 291.435 329.022" fill="#101010"/>
<path d="M215.542 395.549L209.563 394.506C207.694 394.18 206.463 392.174 206.893 390.152C207.323 388.097 209 386.646 210.914 386.646H213.451C214.756 386.646 215.884 387.624 216.18 389.01L217.16 393.625C217.397 394.718 216.551 395.713 215.542 395.533V395.549Z" fill="#101010"/>
<path d="M238.454 384.501C237.51 383.344 236.171 385.13 236.016 385.393C235.494 386.315 235.071 386.301 231.829 383.549C227.46 379.847 228.066 384.427 225.317 388.804C222.569 393.18 228.587 391.423 232.872 394.643C237.157 397.878 232.957 391.423 237.016 391.892C240.371 392.287 239.694 386.023 238.454 384.501Z" fill="#101010"/>
<path d="M192.626 367.985C186.312 365.386 187.498 371.419 187.775 373.241C187.991 374.615 189.993 373.838 190.255 373.689C191.148 373.196 191.487 373.405 192.857 377.198C194.659 382.171 200.449 385.546 200.865 376.735C200.881 376.332 200.834 375.899 200.711 375.511C199.479 371.793 196.646 369.418 192.642 368L192.626 367.985Z" fill="#101010"/>
<path d="M197.671 411.313C199.877 414.165 200.13 422.795 204.349 417.767C206.674 415.001 209.507 414.569 211.027 411.313C212.548 408.057 206.227 407.927 204.349 404.859C201.323 399.903 193.348 405.68 197.671 411.313Z" fill="#101010"/>
<path d="M247.493 407.515C247.335 407.432 243.62 405.748 246.529 405.759C250.56 405.771 247.125 401.141 244.514 403.803C243.55 404.793 242.972 405.453 242.621 405.889C242.253 406.36 242.464 406.973 243.077 407.338C244.356 408.081 244.97 408.646 245.495 408.823C246.74 409.247 248.632 408.128 247.493 407.515Z" fill="#101010"/>
<path d="M181.126 312.411C177.313 317.759 184.872 327.962 188.991 319.676Z" fill="#101010"/>
<path d="M199.301 334.946C198.155 334.649 197.065 334.1 196.174 333.239C194.858 331.962 192.325 330.596 188.476 333.164C182.519 337.143 177.325 342.562 186.736 342.963C196.146 343.363 192.141 347.832 200.561 342.413C207.367 338.034 201.863 335.614 199.301 334.946Z" fill="#101010"/>
<path d="M217.2 418.077C217.2 420.534 217.901 426.272 220.106 422.531C221.18 420.708 222.354 420.312 223.013 418.077C223.672 415.842 221.596 414.558 220.106 413.622C218.231 412.449 217.2 415.62 217.2 418.077Z" fill="#101010"/>
<path d="M238.727 419.471C238.727 419.471 236.673 419.72 236.508 421.739C236.418 422.787 237.242 423.351 238.052 423.666C238.787 423.941 239.641 423.613 239.941 422.958C240.241 422.302 241.141 422.001 241.501 422.066C242.805 422.289 242.37 421.031 242.37 421.031C242.37 421.031 241.456 418.658 238.727 419.484V419.471Z" fill="#101010"/>
<path d="M261.984 423.118C261.013 422.802 260.191 422.307 259.483 421.724C258.677 421.078 257.476 420.521 255.897 420.939C252.755 421.763 254.795 424.601 257.707 426.945C260.618 429.29 263.398 428.2 263.217 425.26C263.135 423.866 262.559 423.308 261.984 423.118Z" fill="#101010"/>
<path d="M269.165 357.347C269.165 359.102 270.042 363.193 272.798 360.529C274.14 359.228 275.608 358.946 276.431 357.347C277.254 355.748 274.659 354.823 272.798 354.165C270.453 353.319 269.165 355.591 269.165 357.347Z" fill="#101010"/>
<path d="M205.317 354.448C205.07 354.301 199.666 351.487 203.992 351.414C209.979 351.311 205.158 343.326 201.131 348.055C199.648 349.808 198.747 350.986 198.2 351.767C197.635 352.592 197.882 353.668 198.8 354.286C200.655 355.539 201.538 356.511 202.297 356.806C204.116 357.513 206.995 355.48 205.335 354.448H205.317Z" fill="#101010"/>
<path d="M207.24 425.611C206.121 424.862 204.973 425.476 203.655 425.656C202.012 425.866 200.326 426.586 201.034 428.701C201.899 431.28 203.825 431.685 204.279 430.68C204.93 429.271 205.823 430.11 206.616 429.975C207.41 429.84 206.631 428.746 207.764 428.176C209.011 427.546 207.722 425.941 207.226 425.626L207.24 425.611Z" fill="#101010"/>
<path d="M143.546 113.271C141.112 109.455 139.419 106.07 138.484 103.145C137.533 100.221 136.999 97.6372 136.88 95.3953C136.747 93.1534 136.806 91.1639 137.029 89.3971C137.251 87.6451 137.326 86.0565 137.281 84.6609C137.222 83.2652 136.717 81.9439 135.767 80.7116C135.143 79.8653 134.312 79.3456 133.272 79.1526C132.233 78.9745 131.209 79.1972 130.199 79.8356C129.249 80.4443 128.61 81.2609 128.313 82.3002C128.016 83.3395 128.15 84.3045 128.714 85.1954L133.614 92.901L121.454 100.636L116.807 93.3315C115.174 90.763 114.417 88.0014 114.52 85.0172C114.639 82.0329 115.471 79.1823 117.044 76.4504C118.618 73.7186 120.83 71.447 123.696 69.6208C126.621 67.7649 129.65 66.6959 132.782 66.4287C135.915 66.1615 138.84 66.6217 141.572 67.7946C144.289 68.9675 146.471 70.8383 148.105 73.4068C149.47 75.5596 150.213 77.6234 150.346 79.598C150.48 81.5727 150.317 83.577 149.886 85.5814C149.441 87.5857 149.07 89.7089 148.773 91.9211C148.461 94.1333 148.55 96.5088 149.025 99.0328C149.5 101.557 150.732 104.378 152.692 107.466L143.576 113.271H143.546ZM152.677 128.415L146.234 118.289L156.063 112.024L162.506 122.15L152.677 128.415Z" fill="#101010"/>
<path d="M288.29 129.529L295.491 119.923L304.815 126.915L297.614 136.522L288.29 129.529ZM299.248 115.632C301.965 112.009 304.533 109.233 306.938 107.317C309.344 105.402 311.571 103.992 313.619 103.086C315.668 102.18 317.554 101.512 319.276 101.111C320.998 100.696 322.498 100.221 323.805 99.6712C325.096 99.1218 326.15 98.1865 326.967 96.8651C327.546 95.9743 327.739 95.0092 327.546 93.9847C327.353 92.9455 326.774 92.0695 325.809 91.342C324.903 90.659 323.908 90.3621 322.839 90.4512C321.77 90.5402 320.909 91.0005 320.271 91.8468L314.792 99.1515L303.256 90.5105L308.453 83.577C310.279 81.1421 312.61 79.4495 315.431 78.5141C318.252 77.5639 321.221 77.3561 324.339 77.8609C327.442 78.3657 330.352 79.6425 333.069 81.6766C335.831 83.7551 337.894 86.2197 339.26 89.0555C340.611 91.8913 341.22 94.8013 341.086 97.7559C340.938 100.71 339.958 103.413 338.132 105.848C336.603 107.882 334.94 109.307 333.128 110.123C331.317 110.94 329.402 111.504 327.368 111.801C325.334 112.098 323.225 112.499 321.043 112.989C318.86 113.479 316.663 114.399 314.481 115.736C312.283 117.072 310.086 119.21 307.888 122.135L299.233 115.647L299.248 115.632Z" fill="#101010"/>
<path d="M221.345 82.1368C221.434 77.6084 221.909 73.8669 222.741 70.8975C223.572 67.9281 224.567 65.4932 225.695 63.5483C226.824 61.6181 227.982 59.985 229.14 58.6339C230.298 57.2977 231.248 56.0208 231.976 54.833C232.703 53.6304 233.015 52.2645 232.911 50.7056C232.866 49.6514 232.451 48.7606 231.693 48.0183C230.936 47.2907 229.956 46.9047 228.754 46.8899C227.625 46.8602 226.645 47.2017 225.814 47.8995C224.983 48.5973 224.567 49.4733 224.537 50.5274L224.344 59.6435L209.928 59.3465L210.106 50.6907C210.165 47.6471 211.071 44.9152 212.823 42.51C214.575 40.0899 216.846 38.1895 219.667 36.779C222.488 35.3834 225.591 34.7153 228.991 34.7747C232.451 34.8489 235.569 35.6358 238.33 37.1502C241.092 38.6646 243.274 40.669 244.893 43.1484C246.496 45.6279 247.268 48.4043 247.209 51.4331C247.149 53.9719 246.63 56.1099 245.65 57.8321C244.655 59.5544 243.423 61.1282 241.953 62.5535C240.468 63.9788 238.998 65.5378 237.514 67.2155C236.029 68.8932 234.782 70.9124 233.787 73.2879C232.777 75.6634 232.243 78.6774 232.169 82.3298L221.36 82.1071L221.345 82.1368ZM220.558 99.8196L220.811 87.8083L232.466 88.0459L232.213 100.057L220.558 99.8196Z" fill="#101010"/>
</svg>
