<svg width="854" height="472" viewBox="0 0 854 472" fill="none" xmlns="http://www.w3.org/2000/svg">
<path d="M527.907 340.66C527.907 340.66 523.904 378.793 549.642 394.211C588.285 393.983 623.924 389.422 657.351 372.851" fill="#9F3541"/>
<path d="M527.907 340.66C527.907 340.66 523.904 378.793 549.642 394.211C588.285 393.983 623.924 389.422 657.351 372.851" stroke="#101010" stroke-width="5" stroke-miterlimit="10"/>
<path d="M679.229 302.122C679.229 302.122 727.062 318.236 710.036 371.566C708.716 375.689 711.146 380.083 715.34 381.13C716.984 381.536 718.972 381.969 721.405 382.374C727.763 383.451 724.66 386.668 719.99 389.617C712.438 394.372 703.407 396.344 694.563 395.184C678.524 393.106 652.644 383.347 634.389 344.863C606.125 285.267 679.229 302.122 679.229 302.122Z" fill="#101010"/>
<path d="M704.181 249.698L670.777 242.682L659.98 294.09L693.385 301.105L704.181 249.698Z" fill="#101010" stroke="#101010" stroke-width="5" stroke-miterlimit="10" stroke-linecap="round"/>
<path d="M729.434 304.488C716.386 301.748 707.344 293.584 702.548 280.227L713.96 283.246C726.781 286.636 737.302 296.204 742.039 304.208C742.185 304.451 742.18 304.692 742.052 304.939C741.975 305.089 741.721 305.43 741.171 305.451C737.043 305.601 733.107 305.275 729.445 304.506L729.434 304.488ZM702.797 279.187C707.279 266.369 721.867 238.013 763.481 234.328C763.603 234.323 763.725 234.318 763.827 234.34C764.103 234.398 764.343 234.554 764.478 234.78C764.593 234.956 764.614 235.142 764.557 235.343C761.858 245.304 750.244 277.849 714.457 278.86L702.783 279.184L702.797 279.187Z" fill="#F1E8C9"/>
<path d="M761.839 236.729C758.376 248.017 746.59 275.747 714.39 276.646L706.028 276.877C708.874 269.829 712.802 263.478 717.773 257.938C728.625 245.85 743.443 238.721 761.824 236.726M706.314 283.537L713.386 285.401C724.499 288.327 733.783 296.132 738.766 303.247C735.663 303.217 732.693 302.912 729.888 302.323C719.02 300.041 711.119 293.739 706.314 283.537ZM764.285 232.16C763.965 232.093 763.622 232.066 763.281 232.101C711.694 236.681 701.032 277.982 700.16 279.969C700.131 279.962 700.117 279.959 700.084 279.968C700.072 280.026 700.081 280.058 700.095 280.061C706.198 298.031 718.569 304.497 728.944 306.676C733.724 307.68 738.088 307.777 741.208 307.659C743.637 307.577 745.106 305.064 743.916 303.07C738.695 294.266 727.712 284.587 714.487 281.096C749.678 280.112 762.949 249.645 766.677 235.94C767.148 234.203 765.982 232.532 764.253 232.169L764.285 232.16Z" fill="#101010"/>
<path d="M706.39 276.164L720.296 268.389" stroke="#101010" stroke-width="5" stroke-miterlimit="10" stroke-linecap="round"/>
<path d="M705.726 283.519L718.782 292.648" stroke="#101010" stroke-width="5" stroke-miterlimit="10" stroke-linecap="round"/>
<path d="M678.758 330.59C690.256 385.208 605.495 390.558 557.488 370.144C531.582 359.136 516.102 336.193 532.5 313.877C555.707 353.992 640.291 359.741 661.656 322.083L678.743 330.587L678.758 330.59Z" fill="#9F3541" stroke="#101010" stroke-width="5" stroke-miterlimit="10"/>
<path d="M521.415 185.994C521.488 188.027 526.232 203.436 557.467 218.112L574.033 197.742C574.033 197.742 537.651 173.338 521.632 185.539C521.488 185.645 521.408 185.81 521.418 185.979L521.415 185.994Z" fill="#9F3541" stroke="#101010" stroke-width="5" stroke-miterlimit="10"/>
<path d="M695.726 253.262L660.533 241.471C660.237 241.364 659.917 241.297 659.594 241.244C653.913 240.339 650.538 247.383 654.796 251.235C659.054 255.088 664.108 259.699 669.245 264.207C670.411 265.225 671.513 266.337 672.538 267.523C672.708 267.725 672.878 267.928 673.013 268.153L687.27 289.338C688.461 291.105 690.516 292.083 692.627 291.858C693 291.815 693.37 291.787 693.754 291.761C696.59 291.553 698.839 289.294 699.07 286.46C699.713 278.631 699.703 265.385 699.651 258.698C699.64 256.223 698.048 254.053 695.708 253.273L695.726 253.262Z" fill="#F1E8C9" stroke="#101010" stroke-width="5" stroke-miterlimit="10"/>
<path d="M574.033 197.742C574.033 197.742 535.153 226.26 544.138 252.466C544.138 252.466 525.922 266.315 526.432 291.12C526.798 308.81 536.692 324.906 551.748 334.197C574.766 348.407 637.931 362.598 661.653 322.097C661.653 322.097 680.095 340.474 696.675 319.971C713.251 299.482 702.409 274.1 669.684 291.879C669.684 291.879 658.13 288.452 669.727 251.868C681.313 215.266 574.045 197.76 574.045 197.76L574.033 197.742Z" fill="#EF837C" stroke="#101010" stroke-width="5" stroke-miterlimit="10"/>
<path d="M624.145 274.327C626.573 268.766 625.88 263.096 622.596 261.662C619.312 260.228 614.681 263.573 612.253 269.134C609.825 274.695 610.518 280.365 613.802 281.799C617.086 283.233 621.716 279.888 624.145 274.327Z" fill="#101010"/>
<path d="M572.635 254.834C575.063 249.273 574.37 243.603 571.086 242.169C567.802 240.735 563.171 244.08 560.743 249.641C558.315 255.202 559.008 260.872 562.292 262.306C565.576 263.74 570.206 260.395 572.635 254.834Z" fill="#101010"/>
<path d="M575.676 269.527C564.031 269.858 559.984 283.42 572.597 289.316" stroke="#101010" stroke-width="5" stroke-miterlimit="10" stroke-linecap="round"/>
<path d="M696.429 303.443C696.429 303.443 686.833 287.516 673.944 310.6" stroke="#101010" stroke-width="5" stroke-miterlimit="10" stroke-linecap="round"/>
<path d="M669.259 264.21L643.829 235.839L646.659 222.507L675.481 245.491" fill="#F1E8C9"/>
<path d="M669.259 264.21L643.829 235.839L646.659 222.507L675.481 245.491" stroke="#101010" stroke-width="5"/>
<path d="M703.383 270.329L700.135 287.382C706.27 290.825 710.158 285.315 710.458 280.129C710.758 274.943 707.597 270.562 703.383 270.329Z" fill="#F1E8C9" stroke="#101010" stroke-width="5" stroke-miterlimit="10"/>
<path d="M664.151 172.157C668.044 163.659 686.639 170.978 681.293 183.145Z" fill="#9F3541"/>
<path d="M664.151 172.157C668.044 163.659 686.639 170.978 681.293 183.145" stroke="#101010" stroke-width="5" stroke-miterlimit="10"/>
<path d="M696.725 272.269C682.463 245.622 583.964 185.203 582.968 184.599L580.817 183.283L582.4 181.309C594.56 166.098 616.657 160.134 641.518 165.355C661.047 169.457 679.682 180.121 692.644 194.616C722.841 228.387 700.902 271.811 700.674 272.248L698.731 276.012L696.737 272.286L696.725 272.269Z" fill="#9F3541"/>
<path d="M641.061 167.535C659.325 171.371 677.715 181.256 690.981 196.103C720.505 229.11 698.704 271.228 698.704 271.228C683.995 243.744 584.139 182.706 584.139 182.706C596.509 167.22 618.696 162.853 641.058 167.55M641.976 163.176C616.273 157.778 593.354 164.039 580.66 179.912L577.509 183.863L581.826 186.499C582.822 187.102 680.808 247.216 694.773 273.33L698.757 280.797L702.641 273.283C702.876 272.817 708.485 261.858 710.311 246.585C712.777 226.106 707.224 207.615 694.274 193.138C681.004 178.306 661.937 167.383 641.959 163.187L641.976 163.176Z" fill="#101010"/>
<path d="M686.469 189.056C686.469 189.056 692.691 216.063 678.418 243.498" stroke="#101010" stroke-width="5" stroke-miterlimit="10" stroke-linecap="round"/>
<path d="M675.517 251.172C675.517 251.172 640.323 247.043 581.687 201.17C572.214 193.765 561.345 188.16 549.616 185.135C539.415 182.492 528.128 181.26 521.695 185.886C521.555 185.978 521.367 185.862 521.429 185.709C522.521 182.676 535.74 158.236 588.224 189.693C643.468 222.823 675.517 251.172 675.517 251.172Z" fill="#9F3541" stroke="#101010" stroke-width="5" stroke-miterlimit="10"/>
<path d="M556.272 382.147C556.824 385.297 555.14 388.19 552.517 388.686C546.009 389.913 550.321 385.995 546.757 383.82C543.947 382.107 547.882 377.745 550.513 377.281C553.144 376.817 555.72 378.997 556.272 382.147Z" fill="#101010"/>
<path d="M677.996 348.954C669.112 351.669 669.056 334.166 680.231 339.972Z" fill="#101010"/>
<path d="M661.17 352.065C660.829 353.692 659.32 357.335 657.601 354.395C656.765 352.96 655.628 352.448 655.271 350.826C654.914 349.203 657.201 348.789 658.84 348.496C660.908 348.111 661.512 350.437 661.17 352.065Z" fill="#101010"/>
<path d="M583.822 387.493C583.502 389.019 582.171 389.649 580.645 389.329C579.12 389.008 577.15 388.2 577.471 386.675C577.791 385.149 573.742 384.056 579.732 382.841C581.252 382.538 584.143 385.967 583.822 387.493Z" fill="#101010"/>
<path d="M607.556 372.725C607.556 372.725 611.816 360.314 593.374 363.466C584.484 364.982 597.698 368.667 597.698 368.667C597.698 368.667 604.939 378.471 607.559 372.71L607.556 372.725Z" fill="#101010"/>
<path d="M535.02 353.167C537.635 347.436 530.482 331.142 527.907 340.659Z" fill="#101010"/>
<path d="M529.884 355.806C529.884 355.806 539.936 360.026 531.521 364.843Z" fill="#101010"/>
<path d="M598.001 389.257C598.001 389.257 602.763 379.44 607.117 388.107Z" fill="#101010"/>
<path d="M664.259 369.432C664.259 369.432 649.681 354.4 673.144 359.631Z" fill="#101010"/>
<path d="M544.727 335.985C543.949 335.427 543.109 335.599 543.28 336.303C544.075 339.595 541.74 343.276 543.619 348.556C545.097 352.72 555.881 353.741 551.838 347.855C550.224 345.498 558.339 350.631 558.081 347.816C557.887 345.636 548.75 338.862 544.727 335.985Z" fill="#101010"/>
<path d="M670.822 329.151C670.822 329.151 667.567 340.604 662.175 325.969Z" fill="#101010"/>
<path d="M580.824 354.382C580.736 353.863 580.128 353.508 579.446 353.577C574.963 353.971 559.877 355.52 564.388 358.167C569.669 361.264 562.661 369.349 569.945 366.161C577.23 362.973 574.479 358.011 578.488 359.945C581.67 361.478 581.164 356.517 580.821 354.397L580.824 354.382Z" fill="#101010"/>
<path d="M595.086 349.61C595.086 349.61 601.589 362.779 610.876 349.695Z" fill="#101010"/>
<path d="M532.593 316.976C522.722 325.113 536.874 329.89 536.874 329.89C536.874 329.89 539.946 330.505 541.336 327.717" fill="#101010"/>
<path d="M654.424 334.491C657.571 340.234 647.354 347.783 644.433 339.296Z" fill="#101010"/>
<path d="M631.115 352.504C632.353 352.461 633.585 352.158 634.678 351.507C636.291 350.542 639.173 349.751 642.597 353.095C647.897 358.274 652.115 364.697 642.37 363.06C632.625 361.423 635.819 366.66 628.287 359.541C622.199 353.787 628.348 352.606 631.115 352.504Z" fill="#101010"/>
<path d="M544.654 372.091C544.181 374.343 542.364 379.454 540.847 375.555C540.108 373.655 538.993 373.041 538.755 370.852C538.517 368.663 540.871 367.929 542.562 367.389C544.691 366.713 545.127 369.839 544.654 372.091Z" fill="#101010"/>
<path d="M564.13 380.49C564.763 380.365 565.339 380.076 565.87 379.718C566.47 379.313 567.274 379.026 568.166 379.547C569.92 380.583 568.233 382.55 566.087 384.026C563.942 385.502 562.451 384.294 563.038 382.005C563.325 380.928 563.75 380.562 564.13 380.49Z" fill="#101010"/>
<path d="M557.611 360.673C557.269 362.3 555.761 365.943 554.042 363.003C553.206 361.568 552.069 361.057 551.712 359.434C551.355 357.812 553.642 357.397 555.281 357.104C557.349 356.719 557.953 359.046 557.611 360.673Z" fill="#101010"/>
<path d="M621.52 370.454C621.754 370.351 626.783 368.51 623.239 367.689C618.334 366.553 623.955 359.511 626.288 364.871C627.146 366.856 627.643 368.174 627.931 369.039C628.225 369.95 627.799 370.968 626.915 371.42C625.13 372.334 624.203 373.141 623.517 373.3C621.874 373.683 619.926 371.181 621.506 370.451L621.52 370.454Z" fill="#101010"/>
<path d="M576.55 135.554C574.951 131.32 573.99 127.659 573.676 124.604C573.347 121.546 573.355 118.908 573.7 116.69C574.03 114.468 574.497 112.534 575.078 110.85C575.656 109.182 576.055 107.642 576.298 106.267C576.527 104.889 576.304 103.492 575.628 102.091C575.191 101.134 574.485 100.455 573.507 100.053C572.527 99.6646 571.478 99.6719 570.359 100.089C569.304 100.49 568.511 101.158 568.007 102.114C567.503 103.07 567.435 104.042 567.804 105.029L571.016 113.578L557.526 118.649L554.479 110.545C553.409 107.695 553.235 104.837 553.95 101.938C554.68 99.0417 556.079 96.4228 558.181 94.0727C560.283 91.7227 562.915 89.9543 566.094 88.756C569.338 87.5409 572.522 87.1172 575.643 87.4995C578.764 87.8819 581.531 88.9334 583.964 90.6428C586.382 92.3491 588.133 94.6285 589.204 97.4778C590.098 99.8654 590.4 102.038 590.125 103.998C589.85 105.958 589.278 107.886 588.445 109.759C587.597 111.629 586.797 113.63 586.052 115.734C585.292 117.835 584.891 120.178 584.838 122.746C584.784 125.314 585.41 128.328 586.693 131.753L576.579 135.56L576.55 135.554ZM582.373 152.252L578.148 141.018L589.055 136.906L593.28 148.14L582.373 152.252Z" fill="#101010"/>
<path d="M714.862 181.214L723.883 173.293L731.571 182.053L722.55 189.974L714.862 181.214ZM728.441 169.866C731.845 166.879 734.929 164.689 737.677 163.309C740.424 161.929 742.894 161.007 745.085 160.542C747.276 160.076 749.259 159.81 751.027 159.772C752.798 159.719 754.363 159.562 755.754 159.293C757.131 159.021 758.355 158.322 759.426 157.197C760.176 156.444 760.563 155.539 760.585 154.497C760.609 153.44 760.223 152.464 759.428 151.554C758.682 150.699 757.769 150.204 756.705 150.071C755.64 149.939 754.703 150.212 753.904 150.909L747.041 156.932L737.528 146.105L744.038 140.387C746.326 138.38 748.955 137.202 751.908 136.867C754.864 136.516 757.813 136.923 760.76 138.058C763.693 139.19 766.279 141.038 768.52 143.587C770.795 146.188 772.308 149.025 773.062 152.081C773.801 155.134 773.799 158.107 773.061 160.971C772.309 163.832 770.794 166.275 768.507 168.282C766.592 169.959 764.672 171.012 762.731 171.438C760.791 171.865 758.8 172.024 756.749 171.896C754.697 171.769 752.551 171.728 750.315 171.759C748.078 171.79 745.738 172.239 743.328 173.098C740.903 173.954 738.313 175.595 735.561 178.006L728.424 169.877L728.441 169.866Z" fill="#101010"/>
<path d="M659.086 121.075C660.104 116.661 661.338 113.097 662.762 110.362C664.186 107.627 665.66 105.448 667.164 103.777C668.665 102.12 670.134 100.76 671.545 99.6754C672.953 98.6057 674.145 97.5515 675.101 96.5386C676.061 95.5112 676.646 94.2385 676.865 92.6915C677.038 91.6507 676.814 90.6934 676.226 89.8113C675.634 88.9437 674.755 88.3645 673.581 88.1028C672.483 87.8418 671.454 87.9746 670.496 88.4867C669.539 88.9987 668.952 89.7705 668.707 90.7961L666.644 99.6778L652.597 96.4242L654.55 87.9898C655.234 85.0234 656.681 82.536 658.89 80.5422C661.102 78.5339 663.716 77.1409 666.767 76.3403C669.814 75.5543 672.988 75.5382 676.303 76.2951C679.674 77.0787 682.563 78.4897 684.955 80.5393C687.346 82.589 689.07 84.9991 690.144 87.7582C691.204 90.5143 691.389 93.3901 690.708 96.342C690.128 98.8145 689.18 100.8 687.867 102.284C686.54 103.765 685.01 105.052 683.279 106.145C681.533 107.235 679.774 108.458 677.976 109.795C676.178 111.132 674.543 112.851 673.081 114.972C671.605 117.089 670.462 119.929 669.639 123.488L659.107 121.048L659.086 121.075ZM654.682 138.218L657.397 126.515L668.755 129.143L666.039 140.846L654.682 138.218Z" fill="#101010"/>
<path d="M588.487 226.295C588.487 226.295 588.822 231.129 572.069 229.416C559.194 228.093 557.153 234.127 557.153 234.127" stroke="#101010" stroke-width="5" stroke-miterlimit="10" stroke-linecap="round"/>
<path d="M643.473 254.076C637.993 255.535 625.76 241.906 614.127 242.254" stroke="#101010" stroke-width="5" stroke-miterlimit="10" stroke-linecap="round"/>
<path d="M622.649 268.135L622.693 268.145C624.588 268.512 625.596 268.694 627.288 268.078L628.194 267.737" fill="#EF837C"/>
<path d="M622.649 268.135L622.693 268.145C624.588 268.512 625.596 268.694 627.288 268.078L628.194 267.737" stroke="#101010" stroke-width="5" stroke-linecap="round"/>
<path d="M564.305 248.039L564.267 248.001C562.759 246.804 561.949 246.179 561.319 244.484L560.978 243.578" fill="#EF837C"/>
<path d="M564.305 248.039L564.267 248.001C562.759 246.804 561.949 246.179 561.319 244.484L560.978 243.578" stroke="#101010" stroke-width="5" stroke-linecap="round"/>
<path d="M562.555 314.666C566.543 308.753 582.175 306.771 586.422 322.667C586.914 324.515 585.749 326.379 584.424 326.981C581.76 328.181 576.835 326.783 573.835 322.648C573.294 321.898 572.44 321.415 571.496 321.429C569.414 321.447 565.735 321.266 563.035 319.895C560.922 318.829 561.282 316.538 562.54 314.663L562.555 314.666Z" fill="#101010"/>
<path d="M147.156 228.619L180.955 223.752L188.361 275.186L154.561 280.053L147.156 228.619Z" fill="#101010" stroke="#101010" stroke-width="5" stroke-miterlimit="10" stroke-linecap="round"/>
<path d="M119.341 282.109C132.285 280.245 141.632 272.705 147.132 259.706L135.773 261.956C123.012 264.484 112.131 273.324 107.011 280.99C106.853 281.223 106.844 281.464 106.954 281.718C107.021 281.873 107.249 282.23 107.787 282.288C111.82 282.712 115.696 282.649 119.328 282.126L119.341 282.109ZM146.951 258.652C143.331 245.571 130.747 216.323 90.2094 209.878C90.0899 209.865 89.9703 209.852 89.8694 209.867C89.5955 209.906 89.3509 210.046 89.2054 210.262C89.0824 210.43 89.0501 210.615 89.0942 210.818C91.139 220.932 100.558 254.159 135.55 257.549L146.965 258.65L146.951 258.652Z" fill="#F1E8C9"/>
<path d="M91.0864 213.216C93.8255 224.699 103.843 253.117 136.08 256.049L144.452 256.808C142.056 249.594 138.53 243.008 133.904 237.165C123.805 224.417 109.408 216.367 91.1011 213.214M143.733 263.435L136.518 264.849C125.182 267.066 115.363 274.269 109.901 281.054C113.016 281.221 116.015 281.104 118.866 280.693C129.915 279.102 138.249 273.313 143.733 263.435ZM88.93 208.502C89.255 208.455 89.6011 208.451 89.9409 208.507C141.384 216.337 149.391 258.226 150.137 260.264C150.166 260.259 150.181 260.257 150.213 260.268C150.221 260.326 150.211 260.358 150.196 260.36C142.906 277.907 130.077 283.578 119.53 285.097C114.67 285.797 110.287 285.618 107.166 285.303C104.734 285.068 103.425 282.467 104.748 280.552C110.556 272.097 122.203 263.131 135.693 260.484C100.462 257.278 89.1325 226.035 86.2849 212.122C85.9255 210.36 87.2038 208.766 88.9617 208.513L88.93 208.502Z" fill="#101010"/>
<path d="M143.405 254.659L130.379 247.534" stroke="#101010" stroke-width="5" stroke-miterlimit="10" stroke-linecap="round"/>
<path d="M143.205 263.688L129.144 270.212" stroke="#101010" stroke-width="5" stroke-miterlimit="10" stroke-linecap="round"/>
<path d="M167.43 311.49C152.469 364.516 236.26 375.012 285.24 357.891C311.67 348.66 328.527 327.043 313.698 304.075C288.057 342.11 203.721 342.545 184.958 304.176L167.444 311.488L167.43 311.49Z" fill="#9F3541" stroke="#101010" stroke-width="5" stroke-miterlimit="10"/>
<path d="M194.332 358.327C194.332 358.327 225.784 435.363 226.867 435.618C231.649 436.773 234.58 437.112 240.137 435.246C241.919 434.654 242.893 432.702 242.359 430.86L238.465 417.41L244.286 431.481C244.879 432.903 246.29 433.781 247.783 433.673C251.687 433.4 255.255 432.658 258.169 431.005C259.59 430.191 260.236 428.453 259.751 426.848L255.46 412.922L261.49 426.994C262.072 428.341 263.41 429.23 264.861 429.143C268.806 428.94 271.549 428.073 274.159 426.494C275.643 425.595 276.239 423.712 275.586 422.086L270.128 408.557L277.619 422.615C278.253 423.803 279.484 424.57 280.804 424.502C283.204 424.369 285.867 423.773 288.927 422.51C290.787 421.739 291.616 419.503 290.736 417.65L283.992 403.591L290.823 417.836C291.675 419.601 293.74 420.355 295.471 419.512C298.461 418.076 302.666 415.643 303.861 412.943C305.775 408.602 285.906 358.482 285.906 358.482C246.998 369.505 218.251 365.924 194.332 358.327Z" fill="#9F3541" stroke="#101010" stroke-width="5" stroke-miterlimit="10"/>
<path d="M333.266 177.404C333.069 179.439 327.43 194.587 295.622 207.241L280.477 185.699C280.477 185.699 317.976 163.624 333.08 176.933C333.215 177.049 333.284 177.22 333.264 177.389L333.266 177.404Z" fill="#9F3541" stroke="#101010" stroke-width="5" stroke-miterlimit="10"/>
<path d="M155.08 233.369L190.933 223.854C191.235 223.766 191.558 223.719 191.883 223.687C197.607 223.148 200.525 230.398 196.032 233.972C191.54 237.546 186.205 241.826 180.794 245.998C179.566 246.94 178.396 247.979 177.298 249.098C177.115 249.289 176.933 249.481 176.784 249.697L161.215 269.936C159.914 271.624 157.802 272.469 155.711 272.109C155.342 272.042 154.974 271.99 154.592 271.94C151.778 271.55 149.678 269.15 149.629 266.306C149.486 258.446 150.34 245.219 150.818 238.546C150.987 236.075 152.714 234.01 155.097 233.382L155.08 233.369Z" fill="#F1E8C9" stroke="#101010" stroke-width="5" stroke-miterlimit="10"/>
<path d="M280.22 185.651C280.22 185.651 317.01 216.789 306.476 242.461C306.476 242.461 323.682 257.538 321.639 282.364C320.18 300.069 309.37 315.549 293.863 323.869C270.153 336.596 206.631 346.661 185.615 304.512C185.615 304.512 166.187 321.715 151.015 300.076C135.844 278.437 148.171 253.728 179.525 273.7C179.525 273.7 191.195 271.025 181.961 233.598C172.728 196.171 280.207 185.668 280.207 185.668L280.22 185.651Z" fill="#EF837C" stroke="#101010" stroke-width="5" stroke-miterlimit="10"/>
<path d="M225.519 259.091C223.459 253.407 224.51 247.813 227.866 246.596C231.223 245.38 235.614 249.001 237.674 254.685C239.735 260.369 238.684 265.963 235.327 267.179C231.97 268.396 227.579 264.774 225.519 259.091Z" fill="#101010"/>
<path d="M277.978 242.991C275.918 237.307 276.969 231.713 280.326 230.496C283.682 229.28 288.073 232.901 290.134 238.585C292.194 244.269 291.143 249.863 287.786 251.079C284.43 252.296 280.039 248.675 277.978 242.991Z" fill="#101010"/>
<path d="M285.734 211.792C285.734 211.792 268.516 204.226 263.05 220.931" stroke="#101010" stroke-width="5" stroke-miterlimit="10" stroke-linecap="round"/>
<path d="M235.552 227.891C235.552 227.891 234.098 234.108 224.517 234.595C214.936 235.082 210.793 243.456 210.793 243.456" stroke="#101010" stroke-width="5" stroke-miterlimit="10" stroke-linecap="round"/>
<path d="M273.691 256.899C284.197 258.036 287.186 271.358 275.499 276.139" stroke="#101010" stroke-width="5" stroke-miterlimit="10" stroke-linecap="round"/>
<path d="M243.71 308.607C241.749 304.94 242.191 300.88 244.698 299.539C247.205 298.198 250.827 300.084 252.789 303.75C254.75 307.417 254.308 311.477 251.801 312.818C249.294 314.159 245.672 312.273 243.71 308.607Z" fill="#101010" stroke="#101010" stroke-width="5" stroke-miterlimit="10" stroke-linecap="round"/>
<path d="M152.079 283.647C152.079 283.647 163.073 270.045 174.101 290.739" stroke="#101010" stroke-width="5" stroke-miterlimit="10" stroke-linecap="round"/>
<path d="M181.82 246.128L207.285 219.092L205.263 205.252L176.854 226.522" fill="#F1E8C9"/>
<path d="M181.82 246.128L207.285 219.092L205.263 205.252L176.854 226.522" stroke="#101010" stroke-width="5"/>
<path d="M147.4 251.151L149.345 266.912C143.094 269.761 139.688 264.529 139.769 259.769C139.852 255.023 143.259 251.157 147.4 251.151Z" fill="#F1E8C9" stroke="#101010" stroke-width="5" stroke-miterlimit="10"/>
<path d="M191.953 154.283C188.507 144.838 169.512 151.216 174.218 164.721Z" fill="#9F3541"/>
<path d="M191.953 154.283C188.507 144.838 169.512 151.216 174.218 164.721" stroke="#101010" stroke-width="5" stroke-miterlimit="10"/>
<path d="M153.505 251.471C169.33 226.174 270.656 172.915 271.68 172.384L273.893 171.224L272.454 169.186C261.405 153.488 239.93 146.259 215.001 149.849C195.419 152.668 176.298 161.992 162.543 175.43C130.497 206.739 149.402 250.762 149.6 251.206L151.28 255.025L153.492 251.488L153.505 251.471Z" fill="#9F3541"/>
<path d="M215.729 151.265C197.15 153.941 178.055 162.673 163.782 176.71C132.021 207.914 151.188 251.543 151.188 251.543C167.723 224.928 271.883 170.127 271.883 170.127C260.466 153.806 238.479 148.005 215.731 151.28M215.091 146.836C241.238 143.071 263.838 150.819 275.555 167.549L278.463 171.712L273.961 174.078C272.922 174.619 170.698 228.614 154.998 253.904L150.517 261.135L147.103 253.352C146.898 252.869 141.975 241.521 141.126 226.09C139.972 205.398 146.737 187.212 160.669 173.526C174.943 159.504 194.785 149.775 215.108 146.848L215.091 146.836Z" fill="#101010"/>
<path d="M168.717 170.013C168.717 170.013 161.465 196.468 173.464 224.83" stroke="#101010" stroke-width="5" stroke-miterlimit="10" stroke-linecap="round"/>
<path d="M176.334 233.33C176.334 233.33 211.528 231.539 272.525 189.048C282.38 182.189 293.511 177.249 305.34 174.982C315.628 172.997 326.909 172.516 333.016 177.641C333.15 177.743 333.344 177.639 333.291 177.479C332.391 174.332 320.746 148.671 266.73 176.975C209.873 206.786 176.334 233.33 176.334 233.33Z" fill="#9F3541" stroke="#101010" stroke-width="5" stroke-miterlimit="10"/>
<path d="M233.824 184.639C233.012 184.756 232.26 184.193 232.143 183.381C232.026 182.569 232.589 181.817 233.401 181.7C234.212 181.583 234.965 182.146 235.082 182.958C235.199 183.769 234.636 184.522 233.824 184.639Z" fill="white"/>
<path d="M211.369 195.372C210.558 195.489 209.805 194.926 209.688 194.114C209.571 193.303 210.134 192.55 210.946 192.433C211.758 192.316 212.51 192.88 212.627 193.691C212.744 194.503 212.181 195.255 211.369 195.372Z" fill="white"/>
<path d="M238.209 163.007C237.398 163.124 236.645 162.561 236.528 161.749C236.411 160.938 236.975 160.185 237.786 160.068C238.598 159.951 239.35 160.515 239.467 161.326C239.584 162.138 239.021 162.89 238.209 163.007Z" fill="white"/>
<path d="M199.789 167.039C198.978 167.156 198.273 166.922 198.214 166.516C198.156 166.11 198.766 165.687 199.578 165.57C200.389 165.453 201.095 165.687 201.153 166.093C201.212 166.499 200.601 166.922 199.789 167.039Z" fill="white"/>
<path d="M213.45 178.572C212.639 178.689 211.886 178.126 211.769 177.314C211.652 176.503 212.215 175.75 213.027 175.633C213.839 175.516 214.591 176.08 214.708 176.891C214.825 177.703 214.262 178.456 213.45 178.572Z" fill="white"/>
<path d="M191.095 184.791C190.69 184.85 190.266 184.239 190.149 183.427C190.032 182.616 190.266 181.911 190.672 181.852C191.078 181.794 191.502 182.404 191.619 183.216C191.735 184.027 191.501 184.733 191.095 184.791Z" fill="white"/>
<path d="M219.94 161.138C219.128 161.255 218.376 160.691 218.259 159.88C218.142 159.068 218.705 158.316 219.517 158.199C220.328 158.082 221.081 158.645 221.198 159.457C221.315 160.268 220.752 161.021 219.94 161.138Z" fill="white"/>
<path d="M166.824 313.129L167.122 314.158C167.712 316.168 169.808 317.417 171.448 316.429C175.608 313.959 168.723 302.014 168.723 302.014" fill="#9F3541"/>
<mask id="mask0_39_3119" style="mask-type:luminance" maskUnits="userSpaceOnUse" x="165" y="303" width="6" height="11">
<path d="M170.142 313.209L166.745 313.699L165.796 307.11L168.472 303.063L170.142 313.209Z" fill="white"/>
</mask>
<g mask="url(#mask0_39_3119)">
<path d="M157.071 279.835C142.705 294.652 154.342 314.334 174.762 310.108C212.175 373.664 348.801 333.875 263.826 219.837C195.936 212.724 161.261 233.469 157.071 279.835Z" fill="#EF837C" stroke="#101010" stroke-width="5" stroke-miterlimit="10"/>
</g>
<path d="M245.789 399.863C245.083 402.989 246.545 406.015 249.042 406.699C255.238 408.393 251.304 404.15 254.854 402.218C257.655 400.695 254.109 396.034 251.602 395.382C249.095 394.729 246.495 396.737 245.789 399.863Z" fill="#101010"/>
<path d="M166.654 330.054C176.463 333.147 178.154 315.703 164.958 321.005Z" fill="#101010"/>
<path d="M183.348 334.128C183.548 335.518 184.882 338.632 187.307 336.129C188.487 334.908 189.908 334.475 190.54 333.092C191.173 331.709 188.499 331.346 186.581 331.09C184.164 330.754 183.148 332.738 183.348 334.128Z" fill="#101010"/>
<path d="M282.02 394.349C282.231 395.816 283.445 396.496 284.898 396.287C286.35 396.078 288.249 395.434 288.038 393.967C287.826 392.501 291.696 391.715 286.138 390.191C284.728 389.81 281.809 392.882 282.02 394.349Z" fill="#101010"/>
<path d="M256.917 365.854C256.917 365.854 259.305 384.171 269.714 360.973Z" fill="#101010"/>
<path d="M268.875 385.867C267.4 385.274 266.576 383.53 267.001 381.906C268.521 376.146 272.732 363.999 280.452 368.366C289.622 373.55 282.489 376.045 278.188 375.922C276.807 375.884 275.898 377.436 276.445 378.841C278.196 383.246 279.642 390.205 268.863 385.885L268.875 385.867Z" fill="#101010"/>
<path d="M236.296 357.8C236.296 357.8 233.176 347.042 250.559 350.456C258.939 352.099 246.028 354.725 246.028 354.725C246.028 354.725 238.357 362.807 236.294 357.788L236.296 357.8Z" fill="#101010"/>
<path d="M307.853 343.481C305.251 337.324 315.677 320.44 317.84 330.589Z" fill="#101010"/>
<path d="M208.064 391.188C220.681 386.741 217.402 400.82 217.402 400.82C217.402 400.82 216.318 403.677 213.055 403.544" fill="#101010"/>
<path d="M299.66 394.162C299.66 394.162 287.51 406.29 303.36 407.129Z" fill="#101010"/>
<path d="M179.425 351.473C179.425 351.473 195.707 336.823 170.797 340.721Z" fill="#101010"/>
<path d="M229.046 366.829C222.252 370.904 239.131 386.123 247.952 366.099Z" fill="#101010"/>
<path d="M300.68 325.178C301.459 324.677 302.257 324.906 302.053 325.592C301.101 328.807 303.137 332.623 301.03 337.737C299.374 341.771 288.951 342.046 293.172 336.478C294.857 334.248 286.765 338.79 287.173 336.012C287.484 333.861 296.65 327.76 300.68 325.178Z" fill="#101010"/>
<path d="M175.397 310.159C175.397 310.159 178.215 324.028 183.987 307.316Z" fill="#101010"/>
<path d="M263.454 341.49C263.578 340.954 264.224 340.626 264.919 340.745C269.493 341.468 284.875 344.133 280.08 346.581C274.465 349.445 281.145 358.369 273.872 354.536C266.6 350.703 269.735 345.717 265.5 347.456C262.138 348.835 262.97 343.694 263.456 341.505L263.454 341.49Z" fill="#101010"/>
<path d="M249.553 335.549C249.553 335.549 242.571 348.147 234.41 334.556Z" fill="#101010"/>
<path d="M314.883 307.969C325.085 315.422 308.702 319.359 308.702 319.359C308.702 319.359 305.191 319.838 303.93 317.328" fill="#101010"/>
<path d="M238.294 393.993L232.227 393.812C230.33 393.756 228.826 391.946 228.963 389.883C229.096 387.788 230.549 386.113 232.443 385.84L234.954 385.478C236.247 385.292 237.502 386.1 237.993 387.43L239.62 391.858C240.011 392.905 239.316 394.011 238.291 393.977L238.294 393.993Z" fill="#101010"/>
<path d="M259.397 379.791C258.297 378.782 257.226 380.74 257.11 381.023C256.726 382.01 256.305 382.055 252.704 379.794C247.851 376.752 249.104 381.2 247.007 385.923C244.91 390.646 250.617 388.05 255.318 390.626C260.02 393.217 254.942 387.427 259.027 387.312C262.404 387.225 260.841 381.121 259.397 379.791Z" fill="#101010"/>
<path d="M211.683 369.975C205.063 368.304 207.097 374.106 207.631 375.87C208.04 377.199 209.911 376.145 210.149 375.96C210.963 375.345 211.328 375.503 213.225 379.062C215.717 383.727 221.929 386.242 221.085 377.463C221.043 377.061 220.935 376.639 220.758 376.273C219.009 372.768 215.866 370.822 211.701 369.988L211.683 369.975Z" fill="#101010"/>
<path d="M222.851 412.143C225.441 414.651 226.922 423.157 230.381 417.579C232.288 414.51 235.03 413.678 236.071 410.239C237.112 406.8 230.838 407.572 228.541 404.803C224.84 400.329 217.769 407.183 222.851 412.143Z" fill="#101010"/>
<path d="M271.624 401.283C271.456 401.223 267.538 400.085 270.419 399.682C274.411 399.119 270.351 395.026 268.146 398.033C267.333 399.15 266.855 399.886 266.57 400.367C266.273 400.886 266.568 401.463 267.227 401.737C268.599 402.289 269.287 402.762 269.833 402.862C271.125 403.104 272.838 401.727 271.624 401.283Z" fill="#101010"/>
<path d="M192.38 316.608C189.368 322.445 198.304 331.467 201.199 322.678Z" fill="#101010"/>
<path d="M213.581 336.323C212.404 336.192 211.248 335.804 210.243 335.078C208.758 334.002 206.056 333.011 202.613 336.102C197.283 340.889 192.915 346.993 202.286 346.048C211.658 345.104 208.331 350.098 215.892 343.534C222.005 338.229 216.212 336.619 213.581 336.323Z" fill="#101010"/>
<path d="M243.145 416.054C243.495 418.486 245.007 424.066 246.657 420.048C247.46 418.091 248.565 417.532 248.899 415.225C249.232 412.919 246.994 411.944 245.387 411.231C243.363 410.337 242.795 413.622 243.145 416.054Z" fill="#101010"/>
<path d="M264.651 414.366C264.651 414.366 262.653 414.905 262.777 416.927C262.838 417.978 263.734 418.418 264.581 418.614C265.347 418.782 266.146 418.335 266.35 417.644C266.553 416.953 267.401 416.526 267.766 416.539C269.089 416.574 268.479 415.39 268.479 415.39C268.479 415.39 267.236 413.172 264.653 414.379L264.651 414.366Z" fill="#101010"/>
<path d="M288.19 414.662C287.184 414.486 286.3 414.114 285.516 413.638C284.627 413.113 283.359 412.733 281.855 413.372C278.863 414.635 281.286 417.154 284.502 419.059C287.718 420.965 290.314 419.49 289.716 416.606C289.436 415.238 288.787 414.768 288.19 414.662Z" fill="#101010"/>
<path d="M285.924 348.538C286.174 350.276 287.625 354.2 289.974 351.17C291.117 349.691 292.529 349.202 293.116 347.502C293.703 345.803 291.003 345.257 289.067 344.871C286.625 344.367 285.674 346.801 285.924 348.538Z" fill="#101010"/>
<path d="M222.315 354.769C222.049 354.658 216.299 352.643 220.571 351.954C226.483 350.998 220.573 343.782 217.261 349.037C216.042 350.984 215.319 352.278 214.888 353.129C214.447 354.026 214.845 355.056 215.842 355.537C217.856 356.512 218.868 357.349 219.662 357.532C221.563 357.973 224.123 355.55 222.332 354.766L222.315 354.769Z" fill="#101010"/>
<path d="M234.36 424.931C233.146 424.348 232.097 425.121 230.819 425.487C229.222 425.929 227.656 426.881 228.658 428.873C229.881 431.303 231.846 431.429 232.152 430.37C232.596 428.882 233.599 429.586 234.365 429.34C235.131 429.093 234.204 428.12 235.245 427.395C236.389 426.594 234.884 425.189 234.348 424.948L234.36 424.931Z" fill="#101010"/>
<path d="M126.803 124.857C123.849 121.427 121.691 118.318 120.349 115.556C118.991 112.796 118.094 110.316 117.657 108.113C117.205 105.913 116.98 103.936 116.949 102.155C116.92 100.39 116.767 98.8065 116.524 97.4315C116.266 96.0586 115.578 94.8226 114.462 93.7383C113.724 92.9896 112.827 92.5937 111.771 92.5508C110.717 92.5226 109.735 92.889 108.826 93.6648C107.973 94.4027 107.457 95.302 107.311 96.373C107.165 97.444 107.435 98.3801 108.121 99.1815L114.068 106.11L103.135 115.499L97.4944 108.932C95.5119 106.622 94.3688 103.997 94.0464 101.028C93.7386 98.0573 94.1553 95.1172 95.3237 92.189C96.4921 89.2607 98.358 86.697 100.934 84.4811C103.564 82.2273 106.41 80.7376 109.473 80.0266C112.535 79.3156 115.496 79.3543 118.367 80.1259C121.223 80.8996 123.65 82.4402 125.633 84.7498C127.292 86.6859 128.321 88.6228 128.734 90.5583C129.148 92.4937 129.272 94.5009 129.131 96.5461C128.976 98.5935 128.911 100.748 128.933 102.98C128.939 105.214 129.366 107.552 130.196 109.983C131.026 112.414 132.648 115.03 135.028 117.807L126.832 124.853L126.803 124.857ZM137.999 138.545L130.178 129.441L139.013 121.839L146.834 130.943L137.999 138.545Z" fill="#101010"/>
<path d="M272.386 120.319L278.144 109.785L288.37 115.378L282.612 125.912L272.386 120.319ZM281.251 105.003C283.424 101.03 285.57 97.9159 287.678 95.6773C289.786 93.4388 291.789 91.7254 293.688 90.5369C295.587 89.3485 297.358 88.4185 299.006 87.7763C300.651 87.1193 302.068 86.4354 303.283 85.7054C304.483 84.9776 305.393 83.9015 306.013 82.4773C306.459 81.513 306.512 80.5303 306.175 79.5438C305.836 78.5426 305.138 77.7581 304.079 77.1756C303.086 76.6287 302.059 76.4765 301.013 76.7171C299.968 76.9576 299.181 77.5359 298.67 78.4645L294.288 86.4755L281.638 79.5668L285.794 71.9634C287.254 69.2931 289.32 67.2856 291.979 65.9578C294.636 64.6152 297.545 63.9863 300.703 64.0416C303.846 64.099 306.909 64.9481 309.888 66.5741C312.918 68.2379 315.311 70.3832 317.068 72.9954C318.809 75.6097 319.826 78.4033 320.115 81.3467C320.389 84.2923 319.804 87.1065 318.344 89.7768C317.12 92.008 315.677 93.6558 314.001 94.7222C312.324 95.7886 310.509 96.62 308.538 97.2038C306.567 97.7876 304.538 98.4848 302.447 99.2808C300.357 100.077 298.313 101.301 296.343 102.935C294.359 104.571 292.489 107 290.73 110.208L281.238 105.02L281.251 105.003Z" fill="#101010"/>
<path d="M199.37 82.9524C198.813 78.4576 198.75 74.6866 199.15 71.629C199.549 68.5714 200.187 66.0196 201.027 63.9337C201.868 61.8624 202.782 60.0809 203.736 58.5785C204.691 57.0909 205.45 55.6917 206.001 54.4124C206.549 53.1183 206.663 51.7219 206.338 50.1937C206.144 49.1567 205.606 48.3342 204.75 47.7073C203.897 47.0952 202.872 46.8527 201.68 47.0094C200.559 47.1409 199.637 47.6185 198.914 48.4277C198.19 49.2369 197.904 50.1632 198.025 51.2108L199.133 60.2613L184.821 62.022L183.764 53.4292C183.389 50.4081 183.896 47.5751 185.287 44.9447C186.676 42.2997 188.654 40.0949 191.245 38.2968C193.838 36.5134 196.814 35.4098 200.188 34.9841C203.623 34.5645 206.821 34.899 209.77 36.0044C212.719 37.1098 215.165 38.7826 217.12 41.0061C219.061 43.2317 220.221 45.8697 220.594 48.8761C220.897 51.3975 220.687 53.5877 219.963 55.432C219.224 57.2785 218.228 59.0118 216.976 60.6321C215.71 62.2544 214.477 64.0069 213.247 65.8791C212.016 67.7513 211.07 69.9276 210.424 72.4207C209.763 74.9159 209.663 77.9752 210.111 81.6009L199.38 82.9209L199.37 82.9524ZM201.111 100.567L199.649 88.6422L211.219 87.2163L212.681 99.1409L201.111 100.567Z" fill="#101010"/>
</svg>
