<svg width="399" height="384" viewBox="0 0 399 384" fill="none" xmlns="http://www.w3.org/2000/svg">
<path d="M343.914 290.386C353.854 264.926 322.684 250.186 315.874 248.446L313.144 241.866L305.044 244.676L306.254 250.566C306.254 250.566 292.274 251.766 286.474 266.046L281.494 260.926L274.624 268.176L280.514 274.996C281.054 275.216 281.294 322.596 321.844 310.226C331.794 307.196 340.134 300.066 343.914 290.386Z" fill="#F3E8CA" stroke="#101010" stroke-width="3" stroke-miterlimit="10"/>
<path d="M317.954 296.636C314.014 296.636 309.644 294.476 305.954 290.716C302.754 287.446 301.104 283.816 301.164 280.216C301.224 277.046 302.594 274.106 305.134 271.706C307.164 269.786 309.674 268.766 312.394 268.766C316.424 268.766 320.594 271.036 323.814 275.006C332.654 285.876 326.784 292.346 324.774 294.066C322.784 295.766 320.494 296.636 317.944 296.636H317.954Z" fill="#9F3641"/>
<path d="M312.404 270.276C315.984 270.276 319.724 272.346 322.664 275.956C330.644 285.776 325.564 291.426 323.814 292.926C322.104 294.386 320.144 295.126 317.964 295.126C314.424 295.126 310.444 293.136 307.034 289.656C304.124 286.686 302.614 283.426 302.674 280.236C302.724 277.486 303.934 274.906 306.174 272.796C307.924 271.146 310.074 270.266 312.404 270.266M312.404 267.276C309.374 267.276 306.474 268.396 304.114 270.626C298.364 276.066 297.754 284.496 304.884 291.766C308.824 295.796 313.514 298.136 317.954 298.136C320.734 298.136 323.414 297.216 325.754 295.206C329.074 292.356 333.784 284.886 324.984 274.066C321.304 269.536 316.714 267.276 312.404 267.276Z" fill="#101010"/>
<path d="M264.084 252.236C264.594 251.006 265.494 249.686 266.674 248.406C275.124 239.266 294.174 225.346 302.494 224.576C302.574 224.576 302.664 224.566 302.764 224.566C304.784 224.546 306.594 225.856 307.314 227.756C309.434 233.326 313.264 241.056 313.254 241.076C311.194 242.946 308.904 244.376 306.404 245.376L306.134 245.516C306.124 245.316 299.394 235.976 294.014 238.726C288.634 241.476 280.984 247.066 276.094 250.166C275.434 250.586 274.834 251.646 275.234 252.196C276.254 253.606 281.684 260.276 282.594 261.436C282.594 261.436 282.104 263.556 275.224 268.936C275.224 268.936 260.864 260.086 264.094 252.246L264.084 252.236Z" fill="#9F3641" stroke="#101010" stroke-width="3" stroke-miterlimit="10"/>
<path d="M143.224 265.256C153.024 278.166 171.314 282.506 193.114 278.566Z" fill="#101010"/>
<path d="M143.224 265.256C153.024 278.166 171.314 282.506 193.114 278.566" stroke="#101010" stroke-width="3" stroke-miterlimit="10"/>
<path d="M143.904 266.156L192.194 278.436L198.804 239.536" fill="#101010"/>
<path d="M260.734 272.166C252.834 284.786 237.134 291.626 211.424 283.916C219.984 273.826 237.544 262.056 260.734 272.166Z" fill="#101010" stroke="#101010" stroke-width="2" stroke-miterlimit="10"/>
<path d="M160.654 246.746C153.034 276.956 147.874 314.866 143.974 356.766L167.284 363.356C169.924 327.456 175.854 292.826 183.074 257.846L160.654 246.736" fill="#F0847C"/>
<path d="M160.654 246.746C153.034 276.956 147.874 314.866 143.974 356.766L167.284 363.356C169.924 327.456 175.854 292.826 183.074 257.846L160.654 246.736" stroke="#101010" stroke-width="3" stroke-miterlimit="10"/>
<path d="M225.144 264.226C224.554 293.976 233.004 318.686 263.664 347.946C264.834 349.556 267.204 349.676 268.524 348.196L279.204 336.226C260.024 315.256 243.324 290.306 251.214 261.516C243.304 267.326 234.384 266.806 225.144 264.236V264.226Z" fill="#F0847C" stroke="#101010" stroke-width="3" stroke-miterlimit="10"/>
<path d="M150.924 244.876C142.324 245.446 137.344 240.126 137.344 240.126L137.374 239.956L138.994 238.746C139.054 238.706 139.134 238.706 139.174 238.746C139.754 239.396 143.434 243.156 150.794 242.666C150.864 242.666 150.934 242.706 150.934 242.776L151.044 244.726C151.044 244.796 150.984 244.856 150.904 244.866L150.924 244.876Z" fill="#101010" stroke="#101010" stroke-width="2" stroke-miterlimit="10" stroke-linecap="round"/>
<path d="M143.884 264.686C160.564 264.896 176.724 269.486 192.424 277.826L202.644 238.966L199.834 228.346L154.364 218.286L143.894 264.696L143.884 264.686Z" fill="#9F3641" stroke="#101010" stroke-width="3" stroke-miterlimit="10"/>
<path d="M199.404 228.016L210.674 282.126C224.514 274.146 240.954 268.416 260.414 270.016L252.824 225.046C236.424 231.076 218.444 231.456 199.404 228.026V228.016Z" fill="#9F3641" stroke="#101010" stroke-width="3" stroke-miterlimit="10"/>
<path d="M217.694 51.286C217.694 51.286 251.974 78.336 251.974 78.376C253.164 88.606 271.164 99.676 281.484 96.706C280.784 87.266 278.594 78.496 271.244 72.066C279.904 70.746 288.444 68.576 294.814 49.446C278.224 47.796 263.294 47.336 258.784 54.426C258.714 54.536 226.434 40.746 217.684 51.286H217.694Z" fill="#101010"/>
<path d="M256.024 58.0559C261.444 59.2059 261.904 68.5759 255.694 69.7259Z" fill="#F2E8CA"/>
<path d="M289.524 53.7661C276.254 80.8761 258.624 65.2561 270.864 59.9761C250.234 53.0661 291.724 49.2561 289.524 53.7661Z" fill="#F2E8CA"/>
<path d="M276.624 92.9061C276.834 92.9361 277.014 92.7361 276.984 92.5261C273.724 71.4561 257.254 65.2961 265.094 78.2761C250.414 73.2361 256.504 89.6761 276.624 92.9061Z" fill="#F2E8CA"/>
<path d="M244.354 68.016C255.394 76.536 249.504 90.806 235.434 89.956C216.524 136.036 121.274 122.586 167.144 38.196C211.884 26.906 237.084 37.436 244.354 68.016Z" fill="#F0847C" stroke="#101010" stroke-width="3" stroke-miterlimit="10"/>
<path d="M250.744 73.6159C253.694 59.4559 254.344 63.3059 229.964 50.5359L226.784 50.8559C232.784 54.6359 242.434 63.3359 250.754 73.6159H250.744Z" fill="#F2E8CA" stroke="#101010" stroke-width="3" stroke-miterlimit="10"/>
<path d="M240.794 90.666L240.704 91.336C240.524 92.646 239.374 93.616 238.304 93.146C235.594 91.976 238.694 83.886 238.694 83.886" fill="#9F3641"/>
<mask id="mask0_41_827" style="mask-type:luminance" maskUnits="userSpaceOnUse" x="238" y="84" width="4" height="8">
<path d="M238.824 91.556H241.144V87.056L238.964 84.606L238.824 91.556Z" fill="white"/>
</mask>
<g mask="url(#mask0_41_827)">
<path d="M244.324 67.9959C255.364 76.5259 249.474 90.8159 235.404 89.9559C216.494 136.086 121.244 122.626 167.114 38.1359C211.854 26.8359 237.054 37.3759 244.324 67.9959Z" fill="#F0847C" stroke="#101010" stroke-width="3" stroke-miterlimit="10"/>
</g>
<path d="M171.514 93.3758C173.184 100.826 194.754 104.586 202.194 92.9958" stroke="#101010" stroke-width="2" stroke-miterlimit="10" stroke-linecap="round"/>
<path d="M183.484 78.9758C178.314 80.2158 177.784 86.6458 183.964 88.0958" stroke="#101010" stroke-width="2" stroke-miterlimit="10" stroke-linecap="round"/>
<path d="M146.194 64.386C137.314 59.736 146.774 52.706 167.594 55.196C172.004 55.726 176.144 57.476 179.934 59.806C182.774 61.556 186.084 61.516 188.684 61.036C190.284 60.746 191.774 60.036 193.154 59.166C202.104 53.486 219.264 56.816 237.464 61.296L247.034 69.876C241.884 67.996 236.044 66.886 229.714 66.326C223.194 96.386 188.024 89.356 189.954 67.126C187.034 66.296 184.444 66.126 182.434 67.126C178.674 95.266 143.144 88.456 146.204 64.376" fill="#101010"/>
<path d="M164.094 52.446C167.604 49.236 172.374 49.356 178.974 55.686" stroke="#101010" stroke-width="2" stroke-linecap="round" stroke-linejoin="round"/>
<path d="M210.164 205.696L212.954 195.596L210.164 205.696L215.414 207.506L218.244 197.226L215.414 207.506" fill="#F3E8CA"/>
<path d="M210.164 205.696L212.954 195.596L210.164 205.696ZM210.164 205.696L215.414 207.506L218.244 197.226L215.414 207.506" stroke="#101010" stroke-width="2" stroke-miterlimit="10"/>
<path d="M199.324 201.976L200.694 192.856L199.324 201.976L204.094 203.616L205.494 194.326L204.094 203.616" fill="#F3E8CA"/>
<path d="M199.324 201.976L200.694 192.856L199.324 201.976ZM199.324 201.976L204.094 203.616L205.494 194.326L204.094 203.616" stroke="#101010" stroke-width="2" stroke-miterlimit="10"/>
<path d="M137.024 194.046C137.024 194.046 114.384 184.036 123.494 145.516Z" fill="#101010"/>
<path d="M124.064 145.776L137.804 147.826L144.144 174.976L132.904 191.976L123.764 145.766C123.944 145.886 123.844 145.736 124.054 145.766L124.064 145.776Z" fill="#101010"/>
<path d="M124.884 156.516L124.184 156.056L92.1945 151.206L92.2645 150.386C92.2645 150.216 92.4345 143.266 79.4245 132.326L79.2745 132.196L79.1845 132.016C79.1245 131.906 73.4845 121.296 67.0645 124.086L66.8745 124.146C66.8745 124.146 65.8245 124.426 65.3445 125.666C64.8145 127.066 64.6845 130.556 69.8845 138.206L70.5645 139.216C70.6645 139.256 70.7745 139.296 70.8745 139.346C71.3945 140.176 71.7645 140.796 72.1945 141.496C72.5745 142.126 72.8145 142.836 72.8645 143.566C72.9445 144.576 72.8945 145.606 72.9245 146.616L73.4145 148.726C73.7545 149.306 74.1045 149.876 74.4345 150.466L75.6945 151.596C75.5945 151.526 77.1645 152.706 77.1445 152.696L77.0345 152.866L75.3745 152.066L75.3545 152.046L73.8245 151.096L73.8045 151.076L73.7345 150.986C73.2745 150.396 72.6245 149.726 72.2745 149.116L72.1645 148.826C72.1345 148.756 72.1045 148.676 72.0745 148.576L71.9845 148.326C71.8745 148.036 71.7445 147.716 71.6445 147.446L71.4345 146.906C71.4345 146.906 71.4145 146.846 71.4145 146.826C71.3445 146.296 71.2445 145.776 71.1445 145.256C70.9945 144.496 70.8445 143.736 70.7345 142.966C70.5445 142.546 70.3945 142.116 70.2645 141.686C70.2245 141.556 70.1945 141.426 70.1645 141.296C70.1245 141.136 70.0645 140.976 70.0345 140.806C69.9545 140.416 69.7245 140.076 69.4045 139.836L49.9845 135.546C49.4845 135.436 49.0045 135.376 48.4945 135.356C45.6145 135.266 42.2945 135.696 41.6145 137.226C41.2945 137.936 41.3045 139.676 44.7545 143.366L61.1145 146.946L60.6845 148.916L44.2345 145.316C42.3145 145.736 37.4745 147.286 37.0245 149.646C36.7245 151.216 38.3745 153.226 41.8045 155.456L41.8545 155.486L60.4045 156.866L60.2545 158.876L41.1645 157.456C40.4745 157.816 39.4845 158.456 38.8745 159.276C38.5945 159.646 38.3945 160.046 38.3345 160.476C38.1845 161.566 38.9445 162.786 40.6045 164.096C42.2545 165.406 44.3245 166.356 46.5845 166.836L68.6945 171.596C71.2645 172.146 73.8945 172.246 76.5145 171.896C80.9845 171.286 84.1545 170.366 85.4445 169.286L85.9245 168.886L86.4945 169.126C95.7745 173.136 115.624 179.986 120.354 180.036L120.584 180.066C120.654 180.086 127.804 181.786 133.974 177.866C138.174 175.186 155.204 154.026 156.564 147.516C157.154 145.046 165.024 101.336 124.904 156.466L124.884 156.516Z" fill="#F0847C" stroke="#F0847C" stroke-miterlimit="10"/>
<path d="M123.374 153.566L95.2545 149.116C95.1145 149.096 95.0045 148.986 94.9845 148.836C94.6845 146.366 93.2445 140.296 82.3145 131.046C82.2845 131.026 82.2645 130.996 82.2445 130.966C81.2945 129.256 74.7845 118.526 67.2345 121.746C66.7845 121.876 65.1845 122.466 64.4145 124.406C63.3545 127.076 64.3445 130.986 67.3745 136.076C67.5245 136.316 67.3145 136.626 67.0345 136.566L51.3645 133.106C50.7545 132.966 50.1345 132.896 49.5145 132.876C46.8045 132.786 42.0545 133.056 40.7745 135.916C39.9645 137.716 40.7045 139.976 43.0345 142.816C43.1845 142.996 43.1145 143.266 42.8945 143.336C40.4145 144.116 36.6445 145.776 36.0745 148.716C35.6645 150.846 36.9445 153.026 39.9845 155.346C40.1545 155.476 40.1545 155.746 39.9845 155.866C38.8545 156.676 37.6045 157.926 37.3745 159.586C37.1145 161.426 38.1245 163.266 40.3645 165.046C42.2445 166.536 44.5845 167.616 47.1345 168.166L69.1445 172.906C71.9245 173.506 74.7845 173.616 77.6245 173.226C81.9945 172.636 85.1045 171.766 86.8845 170.646C86.9745 170.586 87.0645 170.576 87.1645 170.616C91.4645 172.426 114.864 181.166 120.854 181.346C121.894 181.586 128.864 182.606 135.604 178.886C140.504 176.176 158.194 151.436 159.084 146.946L159.164 146.546L158.944 146.206C158.444 145.436 168.264 99.376 123.694 153.446C123.624 153.536 123.504 153.576 123.394 153.566H123.374ZM156.874 147.196C156.874 147.326 156.874 147.446 156.834 147.566C154.464 154.596 138.554 174.916 134.424 177.546C128.294 181.456 121.174 179.756 121.104 179.736L120.874 179.706C116.164 179.666 96.4145 172.846 87.1745 168.856L86.6145 168.616L86.1445 169.006C84.8545 170.076 81.7045 170.996 77.2545 171.606C74.6445 171.956 72.0245 171.856 69.4645 171.306L47.4545 166.566C45.2045 166.076 43.1445 165.136 41.5045 163.836C39.8545 162.526 39.0945 161.316 39.2445 160.226C39.3045 159.796 39.5045 159.396 39.7745 159.026C40.1445 158.536 40.6445 158.116 41.1345 157.776C41.6745 157.406 42.3345 157.236 42.9945 157.286L60.2545 158.566C60.6945 158.596 61.0845 158.266 61.1245 157.826L61.1545 157.436C61.1845 156.986 60.8545 156.606 60.4045 156.566L42.7445 155.256L42.6945 155.226C39.2745 153.006 37.6345 151.006 37.9345 149.446C38.3045 147.496 41.6745 146.106 43.9045 145.446C44.6545 145.226 45.4345 145.206 46.1945 145.376L60.6845 148.546C61.1245 148.646 61.5545 148.366 61.6445 147.926L61.7245 147.546C61.8245 147.106 61.5445 146.676 61.1045 146.586L47.3145 143.566C46.1445 143.306 45.0845 142.666 44.3345 141.726C42.1745 139.046 42.2145 137.686 42.4845 137.076C43.1545 135.556 46.4645 135.126 49.3245 135.216C49.8245 135.236 50.3145 135.296 50.8045 135.406L69.1745 139.266C69.3445 139.296 70.1345 139.636 70.4745 139.796C70.5745 139.846 70.6345 139.936 70.6545 140.036C70.7045 140.406 70.7945 140.766 70.8845 141.126C70.9145 141.256 70.9445 141.386 70.9845 141.506C71.1145 141.936 71.3545 142.266 71.5445 142.676C71.6545 143.436 71.7145 144.296 71.8645 145.056C71.9645 145.546 72.0645 146.046 72.1245 146.546C72.1245 146.556 72.1445 146.706 72.1545 146.706C72.1545 146.706 72.2445 146.936 72.3645 147.236L72.7045 148.106C72.7345 148.196 72.7645 148.276 72.7945 148.346L72.8845 148.586C72.9545 148.756 72.9945 148.876 72.9945 148.876C73.3445 149.486 73.9945 150.146 74.4445 150.736L74.5145 150.826H74.5345L76.0645 151.786H76.0845L77.7345 152.596L77.8345 152.426C77.8345 152.426 76.7045 151.576 76.4445 151.376L76.3545 151.296L75.7745 150.776C75.3545 150.396 75.0045 149.956 74.7145 149.466C74.3245 148.806 74.0345 148.086 73.8645 147.336L73.7945 147.026C73.6945 146.596 73.6445 146.156 73.6045 145.716C73.2645 141.336 71.3945 139.056 71.2945 139.016L70.6145 138.016C65.4445 130.406 65.5645 126.936 66.0945 125.536C66.5745 124.296 67.5845 124.026 67.6145 124.016L67.8045 123.956C74.1845 121.176 79.8045 131.746 79.8645 131.846L79.9545 132.026L80.1045 132.156C93.0545 143.046 92.8845 149.956 92.8845 150.126L92.8145 150.946L124.734 156.076L125.464 155.866C166.604 101.956 156.604 144.246 156.824 147.186L156.874 147.196Z" fill="#101010"/>
<path d="M261.504 382.516C261.504 382.516 232.974 386.376 226.844 377.716C226.844 377.716 225.094 373.036 228.904 369.476C228.904 369.476 229.814 356.166 247.434 353.346C247.434 353.346 253.574 340.336 258.504 341.556C258.504 341.556 257.724 343.226 259.174 344.136C263.274 346.706 268.054 346.006 271.554 342.666C274.494 339.846 278.654 334.266 275.584 330.646C275.584 330.646 284.504 330.006 289.304 336.186C290.824 337.646 296.984 343.846 295.834 350.836C295.014 355.826 290.744 359.616 284.994 364.726C283.164 366.356 281.544 367.596 280.384 368.446C280.384 368.446 277.004 380.326 261.514 382.516" fill="#101010"/>
<path d="M229.834 375.026C237.984 382.176 253.304 380.676 274.614 371.936C250.384 379.656 241.474 380.686 229.834 375.026Z" fill="#616160"/>
<path d="M250.614 355.176C255.034 353.526 258.924 354.536 262.524 357.036C258.484 355.006 254.504 354.276 250.614 355.176Z" fill="#616160"/>
<path d="M282.754 251.656C280.204 251.656 278.474 250.716 278.284 250.616L277.024 249.906L282.924 238.486C282.544 237.676 280.524 235.996 279.304 235.866C278.984 235.836 278.674 235.786 278.374 235.726L272.014 241.186L270.314 233.846C269.844 231.836 269.884 229.716 270.424 227.726C271.134 225.086 272.574 219.956 273.164 218.256C271.984 214.976 265.024 195.836 261.234 185.416L260.764 184.126L286.774 171.936L295.134 209.736C312.614 221.426 305.614 241.876 305.544 242.086C304.184 246.166 299.754 246.926 298.104 247.056C295.374 249.466 292.444 249.986 290.414 249.986C289.694 249.986 289.084 249.916 288.654 249.846C286.804 251.046 284.824 251.656 282.754 251.656Z" fill="#F0847C"/>
<path d="M285.714 174.086L293.804 210.646C311.154 221.766 304.134 241.576 304.134 241.576C302.794 245.586 297.484 245.586 297.484 245.586C294.994 247.986 292.244 248.486 290.414 248.486C289.154 248.486 288.324 248.256 288.324 248.256C286.294 249.736 284.334 250.166 282.754 250.166C280.524 250.166 279.024 249.316 279.024 249.316L284.454 238.796C284.744 237.306 281.394 234.596 279.454 234.386C278.684 234.306 277.924 234.136 277.224 233.836L277.354 234.636L272.904 238.446L271.764 233.516C271.354 231.736 271.384 229.886 271.864 228.126C272.764 224.776 274.294 219.406 274.684 218.446C274.714 218.386 274.724 218.326 274.744 218.256C274.754 218.246 262.634 184.896 262.634 184.896L285.714 174.086ZM287.834 169.776L284.444 171.366L261.364 182.176L258.884 183.336L259.824 185.916C263.454 195.886 270.004 213.926 271.574 218.266C270.804 220.646 269.374 225.826 268.974 227.326C268.374 229.556 268.334 231.926 268.854 234.176L269.994 239.106L271.114 243.936L274.874 240.706L278.824 237.316C278.934 237.326 279.034 237.346 279.144 237.356C279.604 237.436 280.574 238.086 281.154 238.646L276.364 247.916L275.034 250.486L277.554 251.906C277.774 252.036 279.834 253.146 282.754 253.146C284.944 253.146 287.034 252.556 288.984 251.396C289.394 251.446 289.874 251.476 290.414 251.476C292.604 251.476 295.744 250.936 298.704 248.506C301.554 248.176 305.584 246.676 306.964 242.546C307.144 242.036 308.894 236.766 308.464 230.086C307.884 221.216 303.744 213.886 296.474 208.826L288.644 173.436L287.834 169.776Z" fill="#101010"/>
<path d="M147.034 185.816L153.264 148.996L155.204 149.376L140.614 235.666C144.344 235.046 155.124 234.086 172.274 239.106C172.424 239.146 187.604 243.566 197.854 244.656C214.944 246.476 245.744 248.246 260.254 239.726C261.364 237.916 260.404 222.606 256.894 200.736C253.424 179.086 249.264 162.226 246.564 158.776L248.064 157.416C250.874 160.996 254.444 175.596 257.354 191.626C261.954 190.796 282.914 186.386 297.504 172.976C295.374 167.226 279.594 126.896 255.574 121.696L159.754 126.726L126.634 146.496C129.724 151.546 142.914 174.536 137.404 190.826C141.434 190.156 146.594 188.456 147.034 185.816Z" fill="white"/>
<path d="M299.304 174.066C284.384 188.156 262.644 192.786 257.714 193.686C261.084 212.776 263.434 233.276 262.394 239.286C262.264 240.036 262.004 241.076 261.274 241.516C252.484 246.726 238.014 248.256 224.064 248.256C214.304 248.256 204.794 247.506 197.654 246.746C187.244 245.636 171.904 241.176 171.754 241.126C151.124 235.096 139.734 237.966 139.624 237.996L138.154 238.386L138.424 236.786L146.364 189.856C142.804 192.356 136.844 193.056 135.944 193.146C135.794 193.186 135.484 193.056 135.344 192.996C135.064 192.876 129.044 188.516 128.144 184.316L130.394 184.286C130.664 186.366 133.724 189.186 135.414 190.506C141.544 173.526 124.584 147.006 124.414 146.736L123.794 145.776L159.194 124.636H159.424L255.714 119.576L255.834 119.596C282.724 125.276 298.914 170.966 299.594 172.906L299.834 173.586L299.324 174.066H299.304Z" fill="white" stroke="#101010" stroke-width="3" stroke-miterlimit="10"/>
<path d="M256.414 191.776C256.414 191.776 256.774 191.716 257.344 191.616C254.434 175.586 250.864 160.986 248.054 157.406L246.554 158.766C249.264 162.216 253.414 179.076 256.884 200.726C260.394 222.596 261.354 237.906 260.244 239.716C245.734 248.236 214.934 246.466 197.844 244.646C187.594 243.556 172.414 239.136 172.264 239.096C155.114 234.086 144.344 235.036 140.604 235.656L155.194 149.366L153.254 148.986L147.024 185.806L148.944 186.176C148.694 187.706 147.684 188.906 146.344 189.856L138.404 236.786L138.134 238.386L139.604 237.996C139.714 237.966 151.094 235.096 171.734 241.126C171.884 241.176 187.224 245.636 197.634 246.746C204.774 247.506 214.284 248.256 224.044 248.256C237.994 248.256 252.464 246.726 261.254 241.516C261.994 241.076 262.254 240.036 262.374 239.286C263.414 233.276 261.064 212.766 257.694 193.686C257.064 193.806 256.694 193.856 256.664 193.866L256.404 191.776H256.414Z" fill="#101010" stroke="#101010" stroke-miterlimit="10"/>
<path d="M147.014 185.816C146.574 188.456 141.414 190.166 137.384 190.826C137.184 191.406 136.974 191.986 136.724 192.546C136.724 192.546 136.174 193.096 135.924 193.146C136.824 193.056 142.784 192.356 146.344 189.856L147.024 185.816H147.004H147.014Z" fill="#101010"/>
<path d="M148.944 186.176L147.024 185.806L146.344 189.846C147.694 188.896 148.694 187.696 148.944 186.166V186.176Z" fill="#101010" stroke="#101010" stroke-miterlimit="10"/>
<path d="M255.814 119.596L255.694 119.576L159.404 124.626H159.174L123.774 145.776L124.394 146.736C124.574 147.006 141.534 173.536 135.394 190.506C133.704 189.186 130.644 186.366 130.374 184.286L128.124 184.316C129.024 188.516 135.034 192.876 135.324 192.996C135.464 193.056 135.774 193.176 135.924 193.146L135.734 191.046C136.244 190.996 136.804 190.916 137.374 190.826C142.884 174.526 129.694 151.536 126.604 146.496L159.724 126.726L255.544 121.696C279.564 126.886 295.344 167.226 297.474 172.976C282.894 186.386 261.924 190.796 257.324 191.626C257.444 192.316 257.574 193.006 257.694 193.696C262.634 192.796 284.374 188.166 299.284 174.076L299.794 173.596L299.554 172.916C298.874 170.976 282.684 125.286 255.794 119.606L255.814 119.596Z" fill="#101010"/>
<path d="M256.414 191.776L256.674 193.866C256.674 193.866 257.074 193.806 257.704 193.686C257.584 192.996 257.454 192.306 257.334 191.616C256.764 191.716 256.434 191.766 256.404 191.776H256.414Z" fill="#101010"/>
<path d="M137.384 190.826C136.804 190.926 136.254 190.996 135.744 191.046L135.934 193.146C136.174 193.086 136.734 192.546 136.734 192.546C136.984 191.986 137.194 191.406 137.394 190.826H137.384Z" fill="#101010"/>
<path d="M290.244 238.626C291.974 239.446 290.814 243.046 290.484 244.486C290.084 246.526 289.304 248.286 287.614 249.646L287.424 249.576C287.134 247.416 287.954 245.666 288.984 243.916C289.564 242.636 290.254 241.356 290.484 239.966C290.534 239.526 290.524 239.066 290.164 238.796L290.244 238.616V238.626Z" fill="#101010"/>
<path d="M298.374 235.936C300.174 236.526 299.384 240.086 299.184 241.506C298.984 243.506 298.374 245.246 296.834 246.686L296.645 246.636C296.145 244.586 296.785 242.836 297.645 241.086C298.095 239.816 298.654 238.536 298.744 237.196C298.744 236.776 298.684 236.346 298.314 236.136L298.374 235.946V235.936Z" fill="#101010"/>
<path d="M162.474 127.986C158.524 135.076 164.284 145.966 177.154 153.866C177.934 154.346 178.984 154.416 179.864 154.066C191.674 149.356 212.784 139.256 222.494 132.836C222.994 132.506 222.674 131.726 222.084 131.826C196.494 136.206 175.644 136.316 163.364 128.356" fill="#9F3641"/>
<path d="M162.474 127.986C158.524 135.076 164.284 145.966 177.154 153.866C177.934 154.346 178.984 154.416 179.864 154.066C191.674 149.356 212.784 139.256 222.494 132.836C222.994 132.506 222.674 131.726 222.084 131.826C196.494 136.206 175.644 136.316 163.364 128.356" stroke="#101010" stroke-width="3" stroke-miterlimit="10"/>
<path d="M192.574 203.796L185.934 201.206C185.114 200.886 184.604 200.046 184.714 199.166C187.284 178.126 191.594 162.936 218.604 131.066C174.074 152.346 143.574 118.536 163.234 107.126C179.674 122.116 220.214 121.836 234.984 94.7959L235.064 94.7559C256.474 97.2559 260.764 112.076 251.284 121.546C231.424 142.356 223.504 180.576 222.284 217.716L192.574 203.796Z" fill="#9F3641" stroke="#101010" stroke-width="3" stroke-miterlimit="10"/>
<path d="M219.908 192.804C221.293 192.103 221.396 189.518 220.137 187.029C218.879 184.54 216.736 183.09 215.351 183.79C213.966 184.49 213.864 187.076 215.122 189.565C216.38 192.054 218.523 193.504 219.908 192.804Z" fill="#101010"/>
<path d="M209.204 174.016C210.484 177.206 209.414 180.596 206.844 181.666C200.464 184.326 203.984 179.296 199.854 177.766C196.594 176.556 199.634 171.156 202.214 170.116C204.794 169.076 207.924 170.826 209.204 174.016Z" fill="#101010"/>
<path d="M212.284 204.516C212.284 204.516 205.894 204.856 209.084 199.886C212.274 194.916 217.964 199.716 218.654 200.746C219.344 201.776 223.454 210.156 214.704 210.256C205.954 210.356 213.484 205.996 213.484 205.996C213.484 205.996 214.864 203.356 212.284 204.526V204.516Z" fill="#101010"/>
<path d="M197.754 158.086C203.944 157.176 202.214 168.836 195.354 163.846Z" fill="#101010"/>
<path d="M215.704 158.986C215.704 161.456 214.624 167.226 211.224 163.466C209.564 161.626 207.764 161.246 206.744 158.986C205.724 156.726 208.934 155.446 211.224 154.506C214.124 153.326 215.704 156.516 215.704 158.986Z" fill="#101010"/>
<path d="M232.024 151.396C232.024 151.396 222.534 154.186 230.134 161.866Z" fill="#101010"/>
<path d="M185.744 150.626C185.744 152.726 184.154 153.936 182.064 153.936C179.974 153.936 177.144 153.406 177.144 151.316C177.144 149.226 171.504 148.896 179.074 145.636C180.994 144.806 185.744 148.536 185.744 150.636V150.626Z" fill="#101010"/>
<path d="M163.334 140.486C163.334 140.486 168.924 131.306 170.194 146.876Z" fill="#101010"/>
<path d="M194.574 138.836C194.574 138.836 192.484 149.096 185.734 138.976Z" fill="#101010"/>
<path d="M239.694 126.926C240.664 126.416 241.064 125.236 240.604 124.246C238.964 120.736 234.804 113.426 229.854 116.896C223.974 121.016 229.204 121.946 232.194 121.476C233.154 121.326 233.944 122.226 233.704 123.166C232.924 126.116 232.614 130.656 239.704 126.936L239.694 126.926Z" fill="#101010"/>
<path d="M244.564 112.516C244.564 112.516 245.654 103.746 233.934 108.376C228.284 110.606 237.504 111.206 237.504 111.206C237.504 111.206 243.634 116.666 244.564 112.506V112.516Z" fill="#101010"/>
<path d="M212.714 132.536C209.344 129.966 197.574 132.236 203.434 135.346Z" fill="#101010"/>
<path d="M256.154 115.806C250.254 109.526 247.654 119.246 247.654 119.246C247.654 119.246 247.374 121.336 249.304 122.156" fill="#101010"/>
<path d="M253.294 104.436C253.294 104.436 244.534 107.186 247.544 98.7759Z" fill="#101010"/>
<path d="M236.424 95.8359C236.424 95.8359 245.354 106.756 229.904 101.916Z" fill="#101010"/>
<path d="M223.374 108.506C228.644 108.186 224.734 122.626 212.534 115.096Z" fill="#101010"/>
<path d="M184.324 194.666C197.484 200.196 198.474 177.166 188.264 182.746Z" fill="#101010"/>
<path d="M163.144 116.636C162.554 116.376 162.024 116.606 162.234 117.046C163.214 119.106 162.184 121.856 164.154 125.076C165.704 127.616 172.954 126.796 169.474 123.476C168.084 122.146 174.144 124.406 173.584 122.586C173.154 121.176 166.194 117.976 163.144 116.636Z" fill="#101010"/>
<path d="M165.944 130.266C165.944 130.266 174.304 127.366 172.664 134.046Z" fill="#101010"/>
<path d="M213.084 120.076C213.044 119.726 212.654 119.466 212.184 119.476C209.164 119.576 198.944 120.056 201.884 121.996C205.324 124.266 200.304 129.456 205.324 127.576C210.344 125.696 208.674 122.266 211.304 123.716C213.394 124.866 213.234 121.506 213.084 120.066V120.076Z" fill="#101010"/>
<path d="M160.834 108.506C160.834 108.506 162.644 118.226 171.054 111.446Z" fill="#101010"/>
<path d="M191.384 138.146C192.984 129.676 183.604 133.306 183.604 133.306C183.604 133.306 181.754 134.306 182.224 136.346" fill="#101010"/>
<path d="M194.494 201.536L198.524 200.896C199.784 200.696 200.614 199.466 200.324 198.226C200.034 196.966 198.904 196.076 197.614 196.076H195.904C195.024 196.076 194.264 196.676 194.064 197.526L193.404 200.356C193.244 201.026 193.814 201.636 194.494 201.526V201.536Z" fill="#101010"/>
<path d="M201.254 187.586C201.754 186.936 202.484 187.936 202.564 188.086C202.844 188.606 203.064 188.596 204.814 187.046C207.164 184.966 206.834 187.536 208.304 190.006C209.774 192.476 206.544 191.476 204.244 193.296C201.944 195.116 204.194 191.476 202.024 191.746C200.224 191.966 200.584 188.436 201.254 187.586Z" fill="#101010"/>
<path d="M222.094 164.946C226.194 163.206 225.424 167.246 225.244 168.466C225.104 169.386 223.804 168.866 223.634 168.766C223.054 168.436 222.834 168.576 221.944 171.116C220.774 174.446 217.014 176.706 216.744 170.806C216.734 170.536 216.764 170.246 216.844 169.986C217.644 167.496 219.484 165.906 222.084 164.956L222.094 164.946Z" fill="#101010"/>
<path d="M224.194 143.556C222.714 145.536 222.544 151.526 219.714 148.036C218.154 146.116 216.254 145.816 215.234 143.556C214.214 141.296 218.454 141.206 219.714 139.076C221.744 135.636 227.094 139.646 224.194 143.556Z" fill="#101010"/>
<path d="M228.764 137.706C228.914 137.466 232.474 132.626 228.564 134.116C223.154 136.186 223.834 126.266 229.604 129.646C231.744 130.896 233.084 131.766 233.924 132.376C234.814 133.016 235.074 134.206 234.544 135.166C233.454 137.126 233.114 138.426 232.564 139.006C231.254 140.396 227.754 139.346 228.774 137.706H228.764Z" fill="#101010"/>
<path d="M182.654 117.416C181.284 121.616 172.874 120.066 175.694 114.726Z" fill="#101010"/>
<path d="M184.304 121.996C185.114 121.796 185.884 121.426 186.514 120.846C187.444 119.986 189.234 119.066 191.954 120.796C196.164 123.476 199.834 127.126 193.184 127.396C186.534 127.666 189.364 130.676 183.414 127.026C178.604 124.076 182.494 122.446 184.304 121.996Z" fill="#101010"/>
<path d="M133.024 37.9661C133.404 39.1761 138.874 47.6761 160.184 51.2561L166.744 36.1861C166.744 36.1861 140.684 27.6061 133.084 37.6661C133.014 37.7561 132.994 37.8661 133.024 37.9661Z" fill="#101010" stroke="#101010" stroke-width="3" stroke-miterlimit="10"/>
<path d="M216.774 5.55594C217.684 -0.22406 230.134 1.05594 228.974 9.29594Z" fill="#9F3641"/>
<path d="M216.774 5.55594C217.684 -0.22406 230.134 1.05594 228.974 9.29594" stroke="#010101" stroke-width="3" stroke-miterlimit="10"/>
<path d="M252.214 60.5059C239.134 46.8559 170.574 27.0459 169.884 26.8459L168.254 26.3759L168.914 24.8159C174.094 12.6159 188.224 5.03589 205.784 5.03589C217.174 5.03589 228.544 8.28589 237.794 14.1959C261.784 29.5259 254.824 59.5159 254.754 59.8159L254.104 62.4759L252.214 60.4959V60.5059Z" fill="#9F3641"/>
<path d="M205.784 6.53589C216.384 6.53589 227.594 9.45589 236.984 15.4659C260.354 30.3959 253.294 59.4659 253.294 59.4659C239.784 45.3659 170.294 25.3959 170.294 25.3959C175.564 12.9959 190.014 6.53589 205.784 6.53589ZM205.784 3.53589C187.614 3.53589 172.954 11.4659 167.534 24.2259L166.214 27.3459L169.474 28.2859C188.584 33.7759 240.514 50.4659 251.134 61.5459L254.924 65.4959L256.214 60.1759C256.294 59.8559 258.094 52.2559 256.884 42.6859C255.254 29.8259 248.934 19.5359 238.604 12.9359C229.114 6.87589 217.464 3.53589 205.784 3.53589Z" fill="#010101"/>
<path d="M233.084 11.9758C233.084 11.9758 241.384 27.2158 237.414 46.1658" stroke="#101010" stroke-width="3" stroke-miterlimit="10" stroke-linecap="round"/>
<path d="M236.954 51.286C236.954 51.286 215.034 54.726 171.934 36.956C164.974 34.086 157.474 32.546 149.884 32.696C143.284 32.826 136.274 33.986 133.174 37.856C133.104 37.936 132.974 37.896 132.984 37.796C133.134 35.786 136.984 18.806 173.944 28.936C212.854 39.596 236.964 51.286 236.964 51.286H236.954Z" fill="#9F3641" stroke="#101010" stroke-width="3" stroke-miterlimit="10"/>
<path d="M196.244 29.686C196.725 29.686 197.114 29.2965 197.114 28.816C197.114 28.3356 196.725 27.946 196.244 27.946C195.764 27.946 195.374 28.3356 195.374 28.816C195.374 29.2965 195.764 29.686 196.244 29.686Z" fill="white"/>
<path d="M212.814 33.656C213.295 33.656 213.684 33.2665 213.684 32.786C213.684 32.3055 213.295 31.916 212.814 31.916C212.334 31.916 211.944 32.3055 211.944 32.786C211.944 33.2665 212.334 33.656 212.814 33.656Z" fill="white"/>
<path d="M190.384 17.0859C190.865 17.0859 191.254 16.6964 191.254 16.2159C191.254 15.7355 190.865 15.3459 190.384 15.3459C189.904 15.3459 189.514 15.7355 189.514 16.2159C189.514 16.6964 189.904 17.0859 190.384 17.0859Z" fill="white"/>
<path d="M215.564 13.9658C216.045 13.9658 216.434 13.5763 216.434 13.0958C216.434 12.6153 216.045 12.2258 215.564 12.2258C215.084 12.2258 214.694 12.6153 214.694 13.0958C214.694 13.5763 215.084 13.9658 215.564 13.9658Z" fill="white"/>
<path d="M209.244 23.406C209.725 23.406 210.114 23.0165 210.114 22.536C210.114 22.0555 209.725 21.666 209.244 21.666C208.764 21.666 208.374 22.0555 208.374 22.536C208.374 23.0165 208.764 23.406 209.244 23.406Z" fill="white"/>
<path d="M223.944 23.186C224.425 23.186 224.814 22.7965 224.814 22.316C224.814 21.8356 224.425 21.446 223.944 21.446C223.464 21.446 223.074 21.8356 223.074 22.316C223.074 22.7965 223.464 23.186 223.944 23.186Z" fill="white"/>
<path d="M201.814 13.2258C202.295 13.2258 202.684 12.8363 202.684 12.3558C202.684 11.8754 202.295 11.4858 201.814 11.4858C201.334 11.4858 200.944 11.8754 200.944 12.3558C200.944 12.8363 201.334 13.2258 201.814 13.2258Z" fill="white"/>
<path d="M150.224 356.366C150.224 356.366 161.764 359.476 168.834 352.596C168.834 352.596 177.124 363.166 171.644 381.766C171.644 381.766 158.314 386.976 148.774 380.566C148.464 381.696 134.264 386.086 108.954 374.846C104.974 373.076 99.2945 371.646 97.5445 368.386C97.5445 368.386 95.5545 362.736 101.754 359.116C101.754 359.116 105.974 342.586 132.664 353.286C132.664 353.286 143.764 343.166 150.224 356.376V356.366Z" fill="#101010"/>
<path d="M145.074 376.416C105.534 376.296 102.234 363.846 102.594 361.026C103.414 366.756 112.124 374.086 145.074 376.416Z" fill="#616160"/>
<path d="M225.12 74.456C223.33 70.896 220.55 69.976 217 71.766C220.56 69.976 221.48 67.196 219.69 63.646C221.48 67.206 224.26 68.126 227.81 66.336C224.25 68.126 223.33 70.906 225.12 74.456Z" fill="white"/>
</svg>
