<svg width="399" height="384" viewBox="0 0 399 384" fill="none" xmlns="http://www.w3.org/2000/svg">
<path d="M344.325 290.386C354.265 264.926 323.095 250.186 316.285 248.446L313.555 241.866L305.455 244.676L306.665 250.566C306.665 250.566 292.685 251.766 286.885 266.046L281.905 260.926L275.035 268.176L280.925 274.996C281.465 275.216 281.705 322.596 322.255 310.226C332.205 307.196 340.545 300.066 344.325 290.386Z" fill="#F3E8CA" stroke="#101010" stroke-width="3" stroke-miterlimit="10"/>
<path d="M318.355 296.636C314.415 296.636 310.045 294.476 306.355 290.716C303.155 287.446 301.505 283.816 301.565 280.216C301.625 277.046 302.995 274.106 305.535 271.716C307.565 269.796 310.075 268.776 312.795 268.776C316.825 268.776 320.995 271.046 324.215 275.016C333.055 285.886 327.185 292.356 325.175 294.076C323.185 295.776 320.895 296.646 318.345 296.646L318.355 296.636Z" fill="#9F3641"/>
<path d="M312.805 270.276C316.385 270.276 320.125 272.346 323.065 275.956C331.045 285.776 325.965 291.426 324.215 292.926C322.505 294.386 320.545 295.126 318.365 295.126C314.825 295.126 310.845 293.136 307.435 289.656C304.525 286.686 303.015 283.426 303.075 280.236C303.125 277.486 304.335 274.906 306.575 272.796C308.325 271.146 310.475 270.266 312.805 270.266M312.805 267.276C309.775 267.276 306.875 268.396 304.515 270.626C298.765 276.066 298.155 284.496 305.285 291.766C309.225 295.796 313.915 298.136 318.355 298.136C321.135 298.136 323.815 297.216 326.155 295.206C329.475 292.356 334.185 284.886 325.385 274.066C321.705 269.536 317.115 267.276 312.805 267.276Z" fill="#101010"/>
<path d="M264.485 252.236C264.995 251.006 265.895 249.686 267.075 248.406C275.525 239.266 294.575 225.346 302.895 224.576C302.975 224.576 303.065 224.566 303.165 224.566C305.185 224.546 306.995 225.856 307.715 227.756C309.835 233.326 313.665 241.056 313.655 241.076C311.595 242.946 309.305 244.376 306.805 245.376L306.535 245.516C306.525 245.316 299.795 235.976 294.415 238.726C289.035 241.476 281.385 247.066 276.495 250.166C275.835 250.586 275.235 251.646 275.635 252.196C276.655 253.606 282.085 260.276 282.995 261.436C282.995 261.436 282.505 263.556 275.625 268.936C275.625 268.936 261.265 260.086 264.495 252.246L264.485 252.236Z" fill="#9F3641" stroke="#101010" stroke-width="3" stroke-miterlimit="10"/>
<path d="M143.635 265.256C153.435 278.166 171.725 282.506 193.525 278.566Z" fill="#101010"/>
<path d="M143.635 265.256C153.435 278.166 171.725 282.506 193.525 278.566" stroke="#101010" stroke-width="3" stroke-miterlimit="10"/>
<path d="M144.315 266.156L192.595 278.436L199.205 239.536" fill="#101010"/>
<path d="M261.135 272.166C253.235 284.786 237.535 291.626 211.825 283.916C220.385 273.826 237.945 262.056 261.135 272.166Z" fill="#101010" stroke="#101010" stroke-width="2" stroke-miterlimit="10"/>
<path d="M161.065 246.746C153.445 276.956 148.285 314.866 144.385 356.766L167.695 363.356C170.335 327.456 176.265 292.826 183.485 257.846L161.065 246.736" fill="#F0847C"/>
<path d="M161.065 246.746C153.445 276.956 148.285 314.866 144.385 356.766L167.695 363.356C170.335 327.456 176.265 292.826 183.485 257.846L161.065 246.736" stroke="#101010" stroke-width="3" stroke-miterlimit="10"/>
<path d="M225.555 264.226C224.965 293.976 233.415 318.686 264.075 347.946C265.245 349.556 267.615 349.676 268.935 348.196L279.615 336.226C260.435 315.256 243.735 290.306 251.625 261.516C243.715 267.326 234.795 266.806 225.555 264.236V264.226Z" fill="#F0847C" stroke="#101010" stroke-width="3" stroke-miterlimit="10"/>
<path d="M151.325 244.876C142.725 245.446 137.745 240.126 137.745 240.126L137.775 239.956L139.395 238.746C139.455 238.706 139.535 238.706 139.575 238.746C140.155 239.396 143.835 243.156 151.195 242.666C151.265 242.666 151.335 242.706 151.335 242.776L151.445 244.726C151.445 244.796 151.385 244.856 151.305 244.866L151.325 244.876Z" fill="#101010" stroke="#101010" stroke-width="2" stroke-miterlimit="10" stroke-linecap="round"/>
<path d="M144.285 264.686C160.965 264.896 177.125 269.486 192.825 277.826L203.045 238.966L200.235 228.346L154.765 218.286L144.295 264.696L144.285 264.686Z" fill="#9F3641" stroke="#101010" stroke-width="3" stroke-miterlimit="10"/>
<path d="M199.815 228.016L211.085 282.126C224.925 274.146 241.365 268.416 260.825 270.016L253.235 225.046C236.835 231.076 218.855 231.456 199.815 228.026V228.016Z" fill="#9F3641" stroke="#101010" stroke-width="3" stroke-miterlimit="10"/>
<path d="M218.105 51.286C218.105 51.286 252.385 78.336 252.385 78.376C253.575 88.606 271.575 99.676 281.895 96.706C281.195 87.266 279.005 78.496 271.655 72.066C280.315 70.746 288.855 68.576 295.225 49.446C278.635 47.796 263.705 47.336 259.195 54.426C259.125 54.536 226.845 40.746 218.095 51.286H218.105Z" fill="#101010"/>
<path d="M256.425 58.0559C261.845 59.2059 262.305 68.5759 256.095 69.7259Z" fill="#F2E8CA"/>
<path d="M289.925 53.7661C276.655 80.8761 259.025 65.2561 271.265 59.9761C250.635 53.0661 292.125 49.2561 289.925 53.7661Z" fill="#F2E8CA"/>
<path d="M277.025 92.9061C277.235 92.9361 277.415 92.7361 277.385 92.5261C274.125 71.4561 257.655 65.2961 265.495 78.2761C250.815 73.2361 256.905 89.6761 277.025 92.9061Z" fill="#F2E8CA"/>
<path d="M244.755 68.016C255.795 76.536 249.905 90.806 235.835 89.956C216.925 136.036 121.675 122.586 167.545 38.196C212.285 26.906 237.485 37.436 244.755 68.016Z" fill="#F0847C" stroke="#101010" stroke-width="3" stroke-miterlimit="10"/>
<path d="M251.145 73.6159C254.095 59.4559 254.745 63.3059 230.365 50.5359L227.185 50.8559C233.185 54.6359 242.835 63.3359 251.155 73.6159H251.145Z" fill="#F2E8CA" stroke="#101010" stroke-width="3" stroke-miterlimit="10"/>
<path d="M241.205 90.666L241.115 91.336C240.935 92.646 239.785 93.616 238.715 93.146C236.005 91.976 239.105 83.886 239.105 83.886" fill="#9F3641"/>
<mask id="mask0_41_727" style="mask-type:luminance" maskUnits="userSpaceOnUse" x="239" y="84" width="3" height="8">
<path d="M239.235 91.556H241.555V87.056L239.375 84.606L239.235 91.556Z" fill="white"/>
</mask>
<g mask="url(#mask0_41_727)">
<path d="M244.735 67.9959C255.775 76.5259 249.885 90.8159 235.815 89.9559C216.905 136.086 121.655 122.626 167.525 38.1359C212.265 26.8359 237.465 37.3759 244.735 67.9959Z" fill="#F0847C" stroke="#101010" stroke-width="3" stroke-miterlimit="10"/>
</g>
<path d="M171.925 93.3758C173.595 100.826 195.165 104.586 202.605 92.9958" stroke="#101010" stroke-width="2" stroke-miterlimit="10" stroke-linecap="round"/>
<path d="M183.895 78.9758C178.725 80.2158 178.195 86.6458 184.375 88.0958" stroke="#101010" stroke-width="2" stroke-miterlimit="10" stroke-linecap="round"/>
<path d="M146.595 64.386C137.715 59.736 147.175 52.706 167.995 55.196C172.405 55.726 176.545 57.476 180.335 59.806C183.175 61.556 186.485 61.516 189.085 61.036C190.685 60.746 192.175 60.036 193.555 59.166C202.505 53.486 219.665 56.816 237.865 61.296L247.435 69.876C242.285 67.996 236.445 66.886 230.115 66.326C223.595 96.386 188.425 89.356 190.355 67.126C187.435 66.296 184.845 66.126 182.835 67.126C179.075 95.266 143.545 88.456 146.605 64.376" fill="#101010"/>
<path d="M164.495 52.446C168.005 49.236 172.775 49.356 179.375 55.686" stroke="#101010" stroke-width="2" stroke-linecap="round" stroke-linejoin="round"/>
<path d="M210.575 205.696L213.355 195.596L210.575 205.696L215.815 207.506L218.645 197.226L215.815 207.506" fill="#F3E8CA"/>
<path d="M210.575 205.696L213.355 195.596L210.575 205.696ZM210.575 205.696L215.815 207.506L218.645 197.226L215.815 207.506" stroke="#101010" stroke-width="2" stroke-miterlimit="10"/>
<path d="M199.725 201.976L201.095 192.856L199.725 201.976L204.505 203.616L205.895 194.326L204.505 203.616" fill="#F3E8CA"/>
<path d="M199.725 201.976L201.095 192.856L199.725 201.976ZM199.725 201.976L204.505 203.616L205.895 194.326L204.505 203.616" stroke="#101010" stroke-width="2" stroke-miterlimit="10"/>
<path d="M134.785 194.046C134.785 194.046 115.945 184.086 123.525 145.776Z" fill="#101010"/>
<path d="M124.475 145.776L138.215 147.826L144.555 174.976L133.315 191.976L124.175 145.766C124.355 145.886 124.255 145.736 124.465 145.766L124.475 145.776Z" fill="#101010"/>
<path d="M127.995 153.936L127.675 153.166L104.055 131.056L104.575 130.416C104.675 130.276 108.745 124.646 104.215 108.266L104.165 108.076L104.185 107.876C104.195 107.756 105.555 95.8059 98.6846 94.4759L98.4946 94.4159C98.4946 94.4159 97.4746 94.0459 96.3746 94.8059C95.1446 95.6559 93.0646 98.4659 93.0146 107.706V108.916C93.0646 109.006 93.1346 109.106 93.1946 109.196C93.1446 110.176 93.1146 110.896 93.0646 111.716C93.0146 112.446 92.8146 113.166 92.4446 113.806C91.9346 114.686 91.3146 115.506 90.7646 116.356L89.9746 118.376C89.9246 119.046 89.8946 119.716 89.8246 120.386L90.2146 122.026C90.1646 121.916 90.7946 123.766 90.7846 123.746L90.6046 123.826L89.6946 122.226V122.206L88.9546 120.556V120.526L88.9346 120.416C88.8946 119.666 88.7346 118.756 88.7846 118.046L88.8546 117.746C88.8746 117.666 88.8946 117.586 88.9146 117.486L88.9746 117.226C89.0446 116.916 89.1246 116.586 89.1946 116.316L89.3246 115.756C89.3246 115.756 89.3446 115.696 89.3546 115.676C89.5946 115.206 89.8046 114.716 90.0146 114.226C90.3246 113.516 90.6246 112.806 90.9646 112.106C91.0446 111.656 91.1646 111.216 91.3046 110.786C91.3446 110.656 91.3946 110.536 91.4346 110.406C91.4946 110.246 91.5346 110.086 91.6046 109.926C91.7646 109.556 91.7646 109.146 91.6346 108.766L78.0546 94.2359C77.7046 93.8659 77.3446 93.5359 76.9346 93.2359C74.6146 91.5259 71.6346 90.0059 70.2146 90.8859C69.5446 91.2959 68.5646 92.7259 69.3246 97.7259L80.7846 109.936L79.3146 111.316L67.7946 99.0359C65.9646 98.2959 61.1146 96.8359 59.4046 98.5259C58.2646 99.6459 58.4946 102.236 60.0546 106.026L60.0746 106.086L74.5846 117.726L73.3246 119.296L58.3846 107.316C57.6046 107.226 56.4346 107.196 55.4646 107.516C55.0246 107.666 54.6346 107.886 54.3446 108.206C53.6046 109.016 53.5446 110.456 54.1646 112.476C54.7846 114.486 55.9546 116.436 57.5446 118.126L73.0746 134.576C74.8746 136.486 76.9946 138.056 79.3546 139.256C83.3846 141.286 86.5246 142.316 88.1946 142.156L88.8146 142.096L89.1446 142.616C94.5246 151.176 107.005 168.056 110.885 170.776L111.065 170.936C111.115 170.996 116.045 176.446 123.345 176.706C128.325 176.876 154.345 169.076 159.155 164.476C161.045 162.776 192.275 131.196 127.985 153.926L127.995 153.936Z" fill="#F0847C" stroke="#F0847C" stroke-miterlimit="10"/>
<path d="M128.425 150.646L107.765 131.056C107.655 130.956 107.635 130.806 107.695 130.676C108.845 128.466 111.095 122.656 107.325 108.836C107.315 108.796 107.315 108.766 107.315 108.726C107.505 106.776 108.205 94.256 100.165 92.626C99.7146 92.476 98.0746 92.066 96.3346 93.216C93.9446 94.806 92.5546 98.606 92.1646 104.516C92.1446 104.796 91.8046 104.936 91.6146 104.726L80.6546 92.996C80.2346 92.536 79.7646 92.126 79.2646 91.756C77.0746 90.146 73.0146 87.686 70.3446 89.316C68.6646 90.336 67.9846 92.626 68.2946 96.286C68.3146 96.516 68.1046 96.696 67.8846 96.626C65.3946 95.866 61.3546 95.096 59.2146 97.196C57.6746 98.716 57.4946 101.236 58.6846 104.876C58.7546 105.086 58.6046 105.296 58.3846 105.306C57.0046 105.336 55.2646 105.656 54.1246 106.896C52.8746 108.266 52.6646 110.346 53.5046 113.086C54.2146 115.376 55.5346 117.596 57.3246 119.496L72.7846 135.866C74.7446 137.936 77.0246 139.646 79.5846 140.936C83.5246 142.916 86.5746 143.966 88.6746 144.046C88.7746 144.046 88.8646 144.096 88.9146 144.186C91.4346 148.106 105.775 168.566 110.615 172.096C111.335 172.876 116.505 177.666 124.165 178.416C129.745 178.956 158.325 168.576 161.605 165.386L161.895 165.106V164.706C161.935 163.796 196.105 131.386 128.755 150.716C128.645 150.746 128.525 150.716 128.445 150.636L128.425 150.646ZM159.645 164.366C159.575 164.476 159.505 164.566 159.405 164.646C153.465 169.096 128.855 176.836 123.955 176.666C116.685 176.416 111.785 170.986 111.735 170.926L111.555 170.766C107.695 168.066 95.2746 151.256 89.9246 142.736L89.5946 142.216L88.9846 142.276C87.3146 142.436 84.1946 141.406 80.1846 139.386C77.8346 138.196 75.7346 136.636 73.9346 134.736L58.4746 118.366C56.8946 116.686 55.7346 114.746 55.1146 112.746C54.4946 110.736 54.5546 109.306 55.2946 108.496C55.5846 108.176 55.9746 107.956 56.4146 107.816C56.9946 107.616 57.6446 107.556 58.2446 107.556C58.9046 107.556 59.5346 107.796 60.0546 108.206L73.5646 119.036C73.9146 119.316 74.4246 119.256 74.6946 118.916L74.9346 118.616C75.2146 118.266 75.1546 117.756 74.8146 117.476L61.0046 106.396L60.9846 106.336C59.4246 102.566 59.2046 99.986 60.3346 98.876C61.7446 97.476 65.3146 98.246 67.5246 98.966C68.2646 99.206 68.9246 99.636 69.4546 100.206L79.6046 111.016C79.9146 111.346 80.4246 111.356 80.7446 111.056L81.0246 110.786C81.3546 110.476 81.3646 109.966 81.0646 109.646L71.4046 99.346C70.5846 98.476 70.0846 97.336 69.9946 96.146C69.7346 92.716 70.5346 91.616 71.1046 91.266C72.5146 90.396 75.4846 91.916 77.7946 93.606C78.1946 93.906 78.5646 94.226 78.9046 94.596L91.8646 108.176C91.9846 108.296 92.4446 109.026 92.6346 109.346C92.6946 109.436 92.6946 109.546 92.6346 109.646C92.4646 109.986 92.3346 110.326 92.2046 110.676C92.1546 110.796 92.1146 110.926 92.0746 111.056C91.9346 111.486 91.9546 111.886 91.8646 112.336C91.5246 113.026 91.0946 113.766 90.7846 114.476C90.5846 114.936 90.3846 115.406 90.1646 115.856C90.1646 115.866 90.0946 115.996 90.1046 116.006C90.1046 116.006 90.0446 116.246 89.9746 116.566L89.7546 117.476C89.7346 117.566 89.7146 117.646 89.6946 117.736L89.6346 117.986C89.5946 118.166 89.5646 118.286 89.5646 118.286C89.5146 118.986 89.6646 119.896 89.7146 120.636V120.746L89.7346 120.776L90.4546 122.416V122.436L91.3746 124.026L91.5546 123.946C91.5546 123.946 91.1046 122.606 91.0046 122.286L90.9746 122.176L90.7946 121.426C90.6646 120.876 90.6246 120.306 90.6646 119.746C90.7146 118.976 90.8846 118.226 91.1746 117.506L91.2946 117.206C91.4546 116.796 91.6646 116.396 91.8846 116.016C94.0846 112.216 93.8346 109.276 93.7746 109.186V107.976C93.8246 98.776 95.8946 95.986 97.1246 95.136C98.2246 94.386 99.2046 94.736 99.2346 94.746L99.4246 94.806C106.255 96.126 104.915 108.016 104.895 108.146L104.875 108.346L104.925 108.536C109.435 124.846 105.385 130.446 105.285 130.586L104.765 131.226L128.175 153.526L128.895 153.766C193.325 132.616 161.145 161.816 159.665 164.366H159.645Z" fill="#101010"/>
<path d="M261.915 382.516C261.915 382.516 233.385 386.376 227.255 377.716C227.255 377.716 225.505 373.036 229.315 369.476C229.315 369.476 230.225 356.166 247.845 353.346C247.845 353.346 253.985 340.336 258.915 341.556C258.915 341.556 258.135 343.226 259.585 344.136C263.685 346.706 268.465 346.006 271.965 342.666C274.905 339.846 279.065 334.266 275.995 330.646C275.995 330.646 284.915 330.006 289.715 336.186C291.235 337.646 297.395 343.846 296.245 350.836C295.425 355.826 291.155 359.616 285.405 364.726C283.575 366.356 281.955 367.596 280.795 368.446C280.795 368.446 277.415 380.326 261.925 382.516" fill="#101010"/>
<path d="M230.245 375.026C238.395 382.176 253.715 380.676 275.025 371.936C250.795 379.656 241.885 380.686 230.245 375.026Z" fill="#616160"/>
<path d="M251.015 355.176C255.435 353.526 259.325 354.536 262.925 357.036C258.885 355.006 254.905 354.276 251.015 355.176Z" fill="#616160"/>
<path d="M283.155 251.656C280.605 251.656 278.875 250.716 278.685 250.616L277.425 249.906L283.325 238.486C282.945 237.676 280.925 235.996 279.705 235.866C279.385 235.836 279.075 235.786 278.775 235.726L272.415 241.186L270.715 233.846C270.245 231.836 270.285 229.716 270.825 227.726C271.535 225.086 272.975 219.956 273.565 218.256C272.385 214.976 265.425 195.836 261.635 185.416L261.165 184.126L287.175 171.936L295.535 209.736C313.015 221.426 306.015 241.876 305.945 242.086C304.585 246.166 300.155 246.926 298.505 247.056C295.775 249.466 292.845 249.986 290.815 249.986C290.095 249.986 289.485 249.916 289.055 249.846C287.205 251.046 285.225 251.656 283.155 251.656Z" fill="#F0847C"/>
<path d="M286.115 174.086L294.205 210.646C311.555 221.766 304.535 241.576 304.535 241.576C303.195 245.586 297.885 245.586 297.885 245.586C295.395 247.986 292.645 248.486 290.815 248.486C289.555 248.486 288.725 248.256 288.725 248.256C286.695 249.736 284.735 250.166 283.155 250.166C280.925 250.166 279.425 249.316 279.425 249.316L284.855 238.796C285.145 237.306 281.795 234.596 279.855 234.386C279.085 234.306 278.325 234.136 277.625 233.836L277.755 234.636L273.305 238.446L272.165 233.516C271.755 231.736 271.785 229.886 272.265 228.126C273.165 224.776 274.695 219.406 275.085 218.446C275.115 218.386 275.125 218.326 275.145 218.256C275.155 218.246 263.035 184.896 263.035 184.896L286.115 174.086ZM288.235 169.776L284.845 171.366L261.765 182.176L259.285 183.336L260.225 185.916C263.855 195.886 270.405 213.926 271.975 218.266C271.205 220.646 269.775 225.826 269.375 227.326C268.775 229.556 268.735 231.926 269.255 234.176L270.395 239.106L271.515 243.936L275.275 240.706L279.225 237.316C279.335 237.326 279.435 237.346 279.545 237.356C280.005 237.436 280.975 238.086 281.555 238.646L276.765 247.926L275.435 250.496L277.955 251.916C278.175 252.046 280.235 253.156 283.155 253.156C285.345 253.156 287.435 252.566 289.385 251.406C289.795 251.456 290.275 251.486 290.815 251.486C293.005 251.486 296.145 250.946 299.105 248.516C301.955 248.186 305.985 246.686 307.365 242.556C307.545 242.046 309.295 236.776 308.865 230.096C308.285 221.226 304.145 213.896 296.875 208.836L289.045 173.446L288.235 169.786V169.776Z" fill="#101010"/>
<path d="M147.435 185.816L153.665 148.996L155.605 149.376L141.015 235.666C144.745 235.046 155.525 234.086 172.675 239.106C172.825 239.146 188.005 243.566 198.255 244.656C215.345 246.476 246.145 248.246 260.655 239.726C261.765 237.916 260.805 222.606 257.295 200.736C253.825 179.086 249.665 162.226 246.965 158.776L248.465 157.416C251.275 160.996 254.845 175.596 257.755 191.626C262.355 190.796 283.315 186.386 297.905 172.976C295.775 167.226 279.995 126.896 255.975 121.696L160.155 126.726L127.035 146.496C130.125 151.546 143.315 174.536 137.805 190.826C141.835 190.156 146.995 188.456 147.435 185.816Z" fill="white"/>
<path d="M299.705 174.066C284.785 188.156 263.045 192.786 258.115 193.686C261.485 212.776 263.835 233.276 262.795 239.286C262.665 240.036 262.405 241.076 261.675 241.516C252.885 246.726 238.415 248.256 224.465 248.256C214.705 248.256 205.195 247.506 198.055 246.746C187.645 245.636 172.305 241.176 172.155 241.126C151.525 235.096 140.135 237.966 140.025 237.996L138.555 238.386L138.825 236.786L146.765 189.856C143.205 192.356 137.245 193.056 136.345 193.146C136.195 193.186 135.885 193.056 135.745 192.996C135.465 192.876 129.445 188.516 128.545 184.316L130.795 184.286C131.065 186.366 134.125 189.186 135.815 190.506C141.945 173.526 124.985 147.006 124.815 146.736L124.195 145.776L159.595 124.636H159.825L256.115 119.576L256.235 119.596C283.125 125.276 299.315 170.966 299.995 172.906L300.235 173.586L299.725 174.066H299.705Z" fill="white" stroke="#101010" stroke-width="3" stroke-miterlimit="10"/>
<path d="M256.815 191.776C256.815 191.776 257.175 191.716 257.745 191.616C254.835 175.586 251.265 160.986 248.455 157.406L246.955 158.766C249.665 162.216 253.815 179.076 257.285 200.726C260.795 222.596 261.755 237.906 260.645 239.716C246.135 248.236 215.335 246.466 198.245 244.646C187.995 243.556 172.815 239.136 172.665 239.096C155.515 234.086 144.745 235.036 141.005 235.656L155.595 149.366L153.655 148.986L147.425 185.806L149.345 186.176C149.095 187.706 148.085 188.906 146.745 189.856L138.805 236.786L138.535 238.386L140.005 237.996C140.115 237.966 151.495 235.096 172.135 241.126C172.285 241.176 187.625 245.636 198.035 246.746C205.175 247.506 214.685 248.256 224.445 248.256C238.395 248.256 252.865 246.726 261.655 241.516C262.395 241.076 262.655 240.036 262.775 239.286C263.815 233.276 261.465 212.766 258.095 193.686C257.465 193.806 257.095 193.856 257.065 193.866L256.805 191.776H256.815Z" fill="#101010" stroke="#101010" stroke-miterlimit="10"/>
<path d="M147.415 185.816C146.975 188.456 141.815 190.166 137.785 190.826C137.585 191.406 137.375 191.986 137.125 192.546C137.125 192.546 136.575 193.096 136.325 193.146C137.225 193.056 143.185 192.356 146.745 189.856L147.425 185.816H147.405H147.415Z" fill="#101010"/>
<path d="M149.355 186.176L147.435 185.806L146.755 189.846C148.105 188.896 149.105 187.696 149.355 186.166V186.176Z" fill="#101010" stroke="#101010" stroke-miterlimit="10"/>
<path d="M256.225 119.596L256.105 119.576L159.815 124.626H159.585L124.185 145.776L124.805 146.736C124.985 147.006 141.945 173.536 135.805 190.506C134.115 189.186 131.055 186.366 130.785 184.286L128.535 184.316C129.435 188.516 135.445 192.876 135.735 192.996C135.875 193.056 136.185 193.176 136.335 193.146L136.145 191.046C136.655 190.996 137.215 190.916 137.785 190.826C143.295 174.526 130.105 151.536 127.015 146.496L160.135 126.726L255.955 121.696C279.975 126.886 295.755 167.226 297.885 172.976C283.305 186.386 262.335 190.796 257.735 191.626C257.855 192.316 257.985 193.006 258.105 193.696C263.045 192.796 284.785 188.166 299.695 174.076L300.205 173.596L299.965 172.916C299.285 170.976 283.095 125.286 256.205 119.606L256.225 119.596Z" fill="#101010"/>
<path d="M256.815 191.776L257.075 193.866C257.075 193.866 257.475 193.806 258.105 193.686C257.985 192.996 257.855 192.306 257.735 191.616C257.165 191.716 256.835 191.766 256.805 191.776H256.815Z" fill="#101010"/>
<path d="M137.785 190.826C137.205 190.926 136.655 190.996 136.145 191.046L136.335 193.146C136.575 193.086 137.135 192.546 137.135 192.546C137.385 191.986 137.595 191.406 137.795 190.826H137.785Z" fill="#101010"/>
<path d="M290.655 238.626C292.385 239.446 291.225 243.046 290.895 244.486C290.495 246.526 289.715 248.286 288.025 249.646L287.835 249.576C287.545 247.416 288.365 245.666 289.395 243.916C289.975 242.636 290.665 241.356 290.895 239.966C290.945 239.526 290.935 239.066 290.575 238.796L290.655 238.616V238.626Z" fill="#101010"/>
<path d="M298.775 235.936C300.575 236.526 299.785 240.086 299.585 241.506C299.385 243.506 298.775 245.246 297.235 246.686L297.045 246.636C296.545 244.586 297.185 242.836 298.045 241.086C298.495 239.816 299.055 238.536 299.145 237.196C299.145 236.776 299.085 236.346 298.715 236.136L298.775 235.946V235.936Z" fill="#101010"/>
<path d="M162.885 127.986C158.935 135.076 164.695 145.966 177.565 153.866C178.345 154.346 179.395 154.416 180.275 154.066C192.085 149.356 213.195 139.256 222.905 132.836C223.405 132.506 223.085 131.726 222.495 131.826C196.905 136.206 176.055 136.316 163.775 128.356" fill="#9F3641"/>
<path d="M162.885 127.986C158.935 135.076 164.695 145.966 177.565 153.866C178.345 154.346 179.395 154.416 180.275 154.066C192.085 149.356 213.195 139.256 222.905 132.836C223.405 132.506 223.085 131.726 222.495 131.826C196.905 136.206 176.055 136.316 163.775 128.356" stroke="#101010" stroke-width="3" stroke-miterlimit="10"/>
<path d="M192.975 203.796L186.335 201.206C185.515 200.886 185.005 200.046 185.115 199.166C187.685 178.126 191.995 162.936 219.005 131.066C174.475 152.346 143.975 118.536 163.635 107.126C180.075 122.116 220.615 121.836 235.385 94.7959L235.465 94.7559C256.875 97.2559 261.165 112.076 251.685 121.546C231.825 142.356 223.905 180.576 222.685 217.716L192.975 203.796Z" fill="#9F3641" stroke="#101010" stroke-width="3" stroke-miterlimit="10"/>
<path d="M220.313 192.809C221.698 192.109 221.801 189.523 220.542 187.034C219.284 184.545 217.141 183.095 215.756 183.795C214.371 184.496 214.268 187.081 215.527 189.57C216.785 192.059 218.928 193.509 220.313 192.809Z" fill="#101010"/>
<path d="M209.615 174.016C210.895 177.206 209.825 180.596 207.255 181.666C200.875 184.326 204.395 179.296 200.265 177.766C197.005 176.556 200.045 171.156 202.625 170.116C205.205 169.076 208.335 170.826 209.615 174.016Z" fill="#101010"/>
<path d="M212.685 204.516C212.685 204.516 206.295 204.856 209.485 199.886C212.675 194.916 218.365 199.716 219.055 200.746C219.745 201.776 223.855 210.156 215.105 210.256C206.355 210.356 213.885 205.996 213.885 205.996C213.885 205.996 215.265 203.356 212.685 204.526V204.516Z" fill="#101010"/>
<path d="M198.155 158.086C204.345 157.176 202.615 168.836 195.755 163.846Z" fill="#101010"/>
<path d="M216.115 158.986C216.115 161.456 215.035 167.226 211.635 163.466C209.975 161.626 208.175 161.246 207.155 158.986C206.135 156.726 209.345 155.446 211.635 154.506C214.535 153.326 216.115 156.516 216.115 158.986Z" fill="#101010"/>
<path d="M232.425 151.396C232.425 151.396 222.935 154.186 230.535 161.866Z" fill="#101010"/>
<path d="M186.145 150.626C186.145 152.726 184.555 153.936 182.465 153.936C180.375 153.936 177.545 153.406 177.545 151.316C177.545 149.226 171.905 148.896 179.475 145.636C181.395 144.806 186.145 148.536 186.145 150.636V150.626Z" fill="#101010"/>
<path d="M163.735 140.486C163.735 140.486 169.325 131.306 170.595 146.876Z" fill="#101010"/>
<path d="M194.975 138.836C194.975 138.836 192.885 149.096 186.135 138.976Z" fill="#101010"/>
<path d="M240.105 126.926C241.075 126.416 241.475 125.236 241.015 124.246C239.375 120.736 235.215 113.426 230.265 116.896C224.385 121.016 229.615 121.946 232.605 121.476C233.565 121.326 234.355 122.226 234.115 123.166C233.335 126.116 233.025 130.656 240.115 126.936L240.105 126.926Z" fill="#101010"/>
<path d="M244.965 112.516C244.965 112.516 246.055 103.746 234.335 108.376C228.685 110.606 237.905 111.206 237.905 111.206C237.905 111.206 244.035 116.666 244.965 112.506V112.516Z" fill="#101010"/>
<path d="M213.115 132.536C209.745 129.966 197.975 132.236 203.835 135.346Z" fill="#101010"/>
<path d="M256.555 115.806C250.655 109.526 248.055 119.246 248.055 119.246C248.055 119.246 247.775 121.336 249.705 122.156" fill="#101010"/>
<path d="M253.695 104.436C253.695 104.436 244.935 107.186 247.945 98.7759Z" fill="#101010"/>
<path d="M236.835 95.8359C236.835 95.8359 245.765 106.756 230.315 101.916Z" fill="#101010"/>
<path d="M223.775 108.506C229.045 108.186 225.135 122.626 212.935 115.096Z" fill="#101010"/>
<path d="M184.725 194.666C197.885 200.196 198.875 177.166 188.665 182.746Z" fill="#101010"/>
<path d="M163.545 116.636C162.955 116.376 162.425 116.606 162.635 117.046C163.615 119.106 162.585 121.856 164.555 125.076C166.105 127.616 173.355 126.796 169.875 123.476C168.485 122.146 174.545 124.406 173.985 122.586C173.555 121.176 166.595 117.976 163.545 116.636Z" fill="#101010"/>
<path d="M166.355 130.266C166.355 130.266 174.715 127.366 173.075 134.046Z" fill="#101010"/>
<path d="M213.495 120.076C213.455 119.726 213.065 119.466 212.595 119.476C209.575 119.576 199.355 120.056 202.295 121.996C205.735 124.266 200.715 129.456 205.735 127.576C210.755 125.696 209.085 122.266 211.715 123.716C213.805 124.866 213.645 121.506 213.495 120.066V120.076Z" fill="#101010"/>
<path d="M161.245 108.506C161.245 108.506 163.055 118.226 171.465 111.446Z" fill="#101010"/>
<path d="M191.785 138.146C193.385 129.676 184.005 133.306 184.005 133.306C184.005 133.306 182.155 134.306 182.625 136.346" fill="#101010"/>
<path d="M194.905 201.536L198.935 200.896C200.195 200.696 201.025 199.466 200.735 198.226C200.445 196.966 199.315 196.076 198.025 196.076H196.315C195.435 196.076 194.675 196.676 194.475 197.526L193.815 200.356C193.655 201.026 194.225 201.636 194.905 201.526V201.536Z" fill="#101010"/>
<path d="M201.655 187.586C202.155 186.936 202.885 187.936 202.965 188.086C203.245 188.606 203.465 188.596 205.215 187.046C207.565 184.966 207.235 187.536 208.705 190.006C210.175 192.476 206.945 191.476 204.645 193.296C202.345 195.116 204.595 191.476 202.425 191.746C200.625 191.966 200.985 188.436 201.655 187.586Z" fill="#101010"/>
<path d="M222.495 164.946C226.595 163.206 225.825 167.246 225.645 168.466C225.505 169.386 224.205 168.866 224.035 168.766C223.455 168.436 223.235 168.576 222.345 171.116C221.175 174.446 217.415 176.706 217.145 170.806C217.135 170.536 217.165 170.246 217.245 169.986C218.045 167.496 219.885 165.906 222.485 164.956L222.495 164.946Z" fill="#101010"/>
<path d="M224.595 143.556C223.115 145.536 222.945 151.526 220.115 148.036C218.555 146.116 216.655 145.816 215.635 143.556C214.615 141.296 218.855 141.206 220.115 139.076C222.145 135.636 227.495 139.646 224.595 143.556Z" fill="#101010"/>
<path d="M229.165 137.706C229.315 137.466 232.875 132.626 228.965 134.116C223.555 136.186 224.235 126.266 230.005 129.646C232.145 130.896 233.485 131.766 234.325 132.376C235.215 133.016 235.475 134.206 234.945 135.166C233.855 137.126 233.515 138.426 232.965 139.006C231.655 140.396 228.155 139.346 229.175 137.706H229.165Z" fill="#101010"/>
<path d="M183.065 117.416C181.695 121.616 173.285 120.066 176.105 114.726Z" fill="#101010"/>
<path d="M184.715 121.996C185.525 121.796 186.295 121.426 186.925 120.846C187.855 119.986 189.645 119.066 192.365 120.796C196.575 123.476 200.245 127.126 193.595 127.396C186.945 127.666 189.775 130.676 183.825 127.026C179.015 124.076 182.905 122.446 184.715 121.996Z" fill="#101010"/>
<path d="M133.425 37.9661C133.805 39.1761 139.275 47.6761 160.585 51.2561L167.145 36.1861C167.145 36.1861 141.085 27.6061 133.485 37.6661C133.415 37.7561 133.395 37.8661 133.425 37.9661Z" fill="#101010" stroke="#101010" stroke-width="3" stroke-miterlimit="10"/>
<path d="M217.175 5.55594C218.085 -0.22406 230.535 1.05594 229.375 9.29594Z" fill="#9F3641"/>
<path d="M217.175 5.55594C218.085 -0.22406 230.535 1.05594 229.375 9.29594" stroke="#010101" stroke-width="3" stroke-miterlimit="10"/>
<path d="M252.615 60.5059C239.535 46.8559 170.975 27.0459 170.285 26.8459L168.655 26.3759L169.315 24.8159C174.495 12.6159 188.625 5.03589 206.185 5.03589C217.575 5.03589 228.945 8.28589 238.195 14.1959C262.185 29.5259 255.225 59.5159 255.155 59.8159L254.505 62.4759L252.615 60.4959V60.5059Z" fill="#9F3641"/>
<path d="M206.185 6.53589C216.785 6.53589 227.995 9.45589 237.385 15.4659C260.755 30.3959 253.695 59.4659 253.695 59.4659C240.185 45.3659 170.695 25.3959 170.695 25.3959C175.965 12.9959 190.415 6.53589 206.185 6.53589ZM206.185 3.53589C188.015 3.53589 173.355 11.4659 167.935 24.2259L166.615 27.3459L169.875 28.2859C188.985 33.7759 240.915 50.4659 251.535 61.5459L255.325 65.4959L256.615 60.1759C256.695 59.8559 258.495 52.2559 257.285 42.6859C255.655 29.8259 249.335 19.5359 239.005 12.9359C229.515 6.87589 217.865 3.53589 206.185 3.53589Z" fill="#010101"/>
<path d="M233.485 11.9758C233.485 11.9758 241.785 27.2158 237.815 46.1658" stroke="#101010" stroke-width="3" stroke-miterlimit="10" stroke-linecap="round"/>
<path d="M237.355 51.286C237.355 51.286 215.435 54.726 172.335 36.956C165.375 34.086 157.875 32.546 150.285 32.696C143.685 32.826 136.675 33.986 133.575 37.856C133.505 37.936 133.375 37.896 133.385 37.796C133.535 35.786 137.385 18.806 174.345 28.936C213.255 39.596 237.365 51.286 237.365 51.286H237.355Z" fill="#9F3641" stroke="#101010" stroke-width="3" stroke-miterlimit="10"/>
<path d="M196.655 29.686C197.135 29.686 197.525 29.2965 197.525 28.816C197.525 28.3356 197.135 27.946 196.655 27.946C196.174 27.946 195.785 28.3356 195.785 28.816C195.785 29.2965 196.174 29.686 196.655 29.686Z" fill="white"/>
<path d="M213.215 33.656C213.695 33.656 214.085 33.2665 214.085 32.786C214.085 32.3055 213.695 31.916 213.215 31.916C212.734 31.916 212.345 32.3055 212.345 32.786C212.345 33.2665 212.734 33.656 213.215 33.656Z" fill="white"/>
<path d="M190.795 17.0859C191.275 17.0859 191.665 16.6964 191.665 16.2159C191.665 15.7355 191.275 15.3459 190.795 15.3459C190.314 15.3459 189.925 15.7355 189.925 16.2159C189.925 16.6964 190.314 17.0859 190.795 17.0859Z" fill="white"/>
<path d="M215.965 13.9658C216.445 13.9658 216.835 13.5763 216.835 13.0958C216.835 12.6153 216.445 12.2258 215.965 12.2258C215.484 12.2258 215.095 12.6153 215.095 13.0958C215.095 13.5763 215.484 13.9658 215.965 13.9658Z" fill="white"/>
<path d="M209.645 23.406C210.125 23.406 210.515 23.0165 210.515 22.536C210.515 22.0555 210.125 21.666 209.645 21.666C209.164 21.666 208.775 22.0555 208.775 22.536C208.775 23.0165 209.164 23.406 209.645 23.406Z" fill="white"/>
<path d="M224.345 23.186C224.825 23.186 225.215 22.7965 225.215 22.316C225.215 21.8356 224.825 21.446 224.345 21.446C223.864 21.446 223.475 21.8356 223.475 22.316C223.475 22.7965 223.864 23.186 224.345 23.186Z" fill="white"/>
<path d="M202.225 13.2258C202.705 13.2258 203.095 12.8363 203.095 12.3558C203.095 11.8754 202.705 11.4858 202.225 11.4858C201.744 11.4858 201.355 11.8754 201.355 12.3558C201.355 12.8363 201.744 13.2258 202.225 13.2258Z" fill="white"/>
<path d="M150.635 356.366C150.635 356.366 162.175 359.476 169.245 352.596C169.245 352.596 177.535 363.166 172.055 381.766C172.055 381.766 158.725 386.976 149.185 380.566C148.875 381.696 134.675 386.086 109.365 374.846C105.385 373.076 99.7046 371.646 97.9546 368.386C97.9546 368.386 95.9646 362.736 102.165 359.116C102.165 359.116 106.385 342.586 133.075 353.286C133.075 353.286 144.175 343.166 150.635 356.376V356.366Z" fill="#101010"/>
<path d="M145.475 376.416C105.935 376.296 102.635 363.846 102.995 361.026C103.815 366.756 112.525 374.086 145.475 376.416Z" fill="#616160"/>
</svg>
