<svg width="854" height="472" viewBox="0 0 854 472" fill="none" xmlns="http://www.w3.org/2000/svg">
<path d="M548.9 363.603C548.9 363.603 552.892 402.455 581.777 412.436C620.251 404.118 654.822 392.11 684.676 368.594" fill="#9F3541"/>
<path d="M548.9 363.603C548.9 363.603 552.892 402.455 581.777 412.436C620.251 404.118 654.822 392.11 684.676 368.594" stroke="#101010" stroke-width="4" stroke-miterlimit="10"/>
<path d="M691.678 293.507C691.678 293.507 742.733 299.557 736.926 356.284C736.472 360.669 739.815 364.541 744.216 364.707C745.94 364.768 748.011 364.783 750.522 364.677C757.085 364.42 754.666 368.276 750.628 372.193C744.095 378.515 735.505 382.371 726.446 383.067C710.022 384.352 682.18 380.042 655.926 345.501C615.275 292.01 691.678 293.507 691.678 293.507Z" fill="#101010" stroke="#101010" stroke-width="4" stroke-miterlimit="10"/>
<path d="M705.576 236.024H670.808V289.53H705.576V236.024Z" fill="#101010" stroke="#101010" stroke-width="4" stroke-miterlimit="10" stroke-linecap="round"/>
<path d="M742.219 285.356C728.639 285.356 717.916 279.11 710.34 266.8L722.347 267.42C735.837 268.115 748.329 275.45 754.726 282.437C754.923 282.649 754.968 282.891 754.892 283.163C754.847 283.329 754.666 283.723 754.121 283.859C750.038 284.872 746.045 285.371 742.234 285.371L742.219 285.356ZM710.37 265.711C712.154 251.994 720.759 220.674 761.471 208.288C761.592 208.258 761.713 208.228 761.819 208.228C762.106 208.228 762.378 208.334 762.56 208.53C762.711 208.681 762.772 208.863 762.756 209.075C762.152 219.57 757.388 254.444 721.924 262.943L710.355 265.711H710.37Z" fill="#F1E8C9"/>
<path d="M760.337 211.025C759.248 223.003 753.305 253.113 721.395 260.75L713.107 262.732C714.468 255.11 717.054 247.956 720.85 241.393C729.138 227.071 742.416 216.863 760.322 211.025M714.786 269.31L722.226 269.688C733.917 270.278 744.805 276.116 751.263 282.165C748.163 282.785 745.138 283.103 742.219 283.103C730.907 283.103 721.712 278.475 714.786 269.31ZM761.819 205.959C761.486 205.959 761.138 206.005 760.806 206.11C710.34 221.476 708.358 264.879 707.905 267.042C707.875 267.042 707.859 267.042 707.829 267.057C707.829 267.117 707.844 267.148 707.859 267.148C717.705 283.783 731.391 287.639 742.189 287.639C747.165 287.639 751.535 286.823 754.62 286.052C757.025 285.462 757.962 282.649 756.359 280.91C749.312 273.227 736.336 265.877 722.423 265.166C757.297 256.818 764.148 223.668 764.995 209.226C765.101 207.396 763.588 205.974 761.789 205.974L761.819 205.959Z" fill="#101010"/>
<path d="M713.319 261.945L725.553 251.283" stroke="#101010" stroke-width="4" stroke-miterlimit="10" stroke-linecap="round"/>
<path d="M714.196 269.416L729.123 275.783" stroke="#101010" stroke-width="4" stroke-miterlimit="10" stroke-linecap="round"/>
<path d="M697.167 321.984C720.064 374.023 636.69 397.101 584.56 386.802C556.431 381.252 536.196 361.622 547.871 335.943C579.403 371.074 664.925 359.097 678.339 317.084L697.152 321.984H697.167Z" fill="#9F3541" stroke="#101010" stroke-width="4" stroke-miterlimit="10"/>
<path d="M510.048 210.783C510.547 212.795 518.502 227.162 552.711 235.253L564.96 211.479C564.96 211.479 523.584 194.768 510.169 210.284C510.048 210.42 510.003 210.602 510.048 210.768V210.783Z" fill="#101010" stroke="#101010" stroke-width="4" stroke-miterlimit="10"/>
<path d="M697.893 241.347L660.342 236.962C660.025 236.916 659.692 236.916 659.359 236.931C653.507 237.219 651.616 244.947 656.668 247.896C661.719 250.845 667.723 254.384 673.787 257.801C675.163 258.573 676.494 259.45 677.764 260.418C677.976 260.584 678.188 260.75 678.369 260.947L697.016 279.08C698.574 280.592 700.827 281.136 702.884 280.471C703.247 280.35 703.61 280.244 703.988 280.138C706.771 279.337 708.54 276.615 708.177 273.741C707.179 265.802 704.396 252.599 702.944 245.945C702.415 243.48 700.373 241.65 697.878 241.362L697.893 241.347Z" fill="#F1E8C9" stroke="#101010" stroke-width="4" stroke-miterlimit="10"/>
<path d="M564.961 211.479C564.961 211.479 532.173 248.047 546.616 272.289C546.616 272.289 531.357 289.908 537.058 314.528C541.126 332.086 554.359 346.06 571.312 352.17C597.233 361.516 663.17 362.439 678.339 317.099C678.339 317.099 700.57 331.557 712.805 307.647C725.039 283.753 708.918 260.72 680.018 285.295C680.018 285.295 667.783 284.297 671.685 245.4C675.571 206.488 564.976 211.494 564.976 211.494L564.961 211.479Z" fill="#EF837B" stroke="#101010" stroke-width="4" stroke-miterlimit="10"/>
<path d="M630.955 277.34C632.212 271.289 630.333 265.781 626.76 265.039C623.186 264.297 619.27 268.602 618.014 274.653C616.757 280.705 618.636 286.212 622.209 286.954C625.783 287.696 629.699 283.392 630.955 277.34Z" fill="#101010" stroke="#101010" stroke-width="4" stroke-miterlimit="10"/>
<path d="M575.527 268.692C576.783 262.641 574.905 257.134 571.331 256.391C567.757 255.649 563.842 259.954 562.585 266.005C561.329 272.057 563.207 277.564 566.781 278.306C570.354 279.048 574.27 274.744 575.527 268.692Z" fill="#101010" stroke="#101010" stroke-width="4" stroke-miterlimit="10"/>
<path d="M581.626 282.694C570.087 285.462 568.893 299.829 582.7 303.065" stroke="#101010" stroke-width="4" stroke-miterlimit="10" stroke-linecap="round"/>
<path d="M709.1 291.239C709.1 291.239 696.199 277.371 688.184 303.08" stroke="#101010" stroke-width="4" stroke-miterlimit="10" stroke-linecap="round"/>
<path d="M673.802 257.801L642.512 234.844L642.542 220.961L676.086 237.839" fill="#F1E8C9"/>
<path d="M673.802 257.801L642.512 234.844L642.542 220.961L676.086 237.839" stroke="#101010" stroke-width="4" stroke-linejoin="round"/>
<path d="M709.099 256.758L709.432 274.437C716.268 276.584 718.99 270.278 718.204 265.045C717.417 259.813 713.349 256.108 709.099 256.758Z" fill="#F1E8C9" stroke="#101010" stroke-width="4" stroke-miterlimit="10"/>
<path d="M649.439 167.108C651.541 157.822 671.609 161.225 668.826 174.473Z" fill="#9F3541"/>
<path d="M649.439 167.108C651.541 157.822 671.609 161.225 668.826 174.473" stroke="#101010" stroke-width="4" stroke-miterlimit="10"/>
<path d="M702.869 260.085C683.073 236.508 572.235 196.9 571.116 196.507L568.696 195.645L569.86 193.346C578.798 175.637 599.577 165.066 625.453 165.066C645.779 165.066 666.588 171.796 682.543 183.532C719.716 210.874 706.937 258.754 706.801 259.238L705.651 263.397L702.884 260.1L702.869 260.085Z" fill="#9F3541"/>
<path d="M625.453 167.335C644.463 167.335 664.864 173.338 681.197 185.361C717.538 212.084 704.623 258.633 704.623 258.633C684.207 234.315 571.887 194.375 571.887 194.375C580.976 176.348 602.179 167.35 625.453 167.35M625.453 162.798C598.7 162.798 577.165 173.838 567.834 192.318L565.52 196.915L570.375 198.64C571.494 199.033 681.757 238.444 701.145 261.552L706.68 268.161L708.978 259.858C709.115 259.344 712.411 247.245 711.035 231.638C709.205 210.708 699.799 193.437 683.859 181.717C667.526 169.709 646.232 162.813 625.438 162.813L625.453 162.798Z" fill="#101010"/>
<path d="M675.224 179.282C675.224 179.282 687.08 204.901 678.596 235.238" stroke="#101010" stroke-width="4" stroke-miterlimit="10" stroke-linecap="round"/>
<path d="M677.311 243.495C677.311 243.495 641.363 246.746 573.309 213.294C562.314 207.895 550.306 204.583 537.981 204.023C527.258 203.524 515.75 204.658 510.305 210.617C510.184 210.738 509.973 210.662 510.003 210.496C510.457 207.245 518.517 180.114 577.422 200.484C639.427 221.944 677.311 243.495 677.311 243.495Z" fill="#9F3541" stroke="#101010" stroke-width="4" stroke-miterlimit="10"/>
<path d="M585.861 399.022C587.071 402.046 585.997 405.283 583.486 406.326C577.256 408.912 580.734 404.103 576.726 402.681C573.566 401.562 576.575 396.39 579.101 395.377C581.626 394.364 584.651 395.997 585.861 399.022Z" fill="#101010" stroke="#101010" stroke-width="4" stroke-miterlimit="10"/>
<path d="M700.252 340.449C691.965 345.017 688.245 327.58 700.6 331.028Z" fill="#101010"/>
<path d="M700.252 340.449C691.965 345.017 688.245 327.58 700.6 331.028" stroke="#101010" stroke-width="4" stroke-miterlimit="10"/>
<path d="M684.131 347.074C684.131 348.767 683.39 352.714 681.061 350.144C679.927 348.888 678.687 348.616 677.991 347.074C677.295 345.531 679.488 344.639 681.061 344.003C683.042 343.187 684.131 345.38 684.131 347.074Z" fill="#101010" stroke="#101010" stroke-width="4" stroke-miterlimit="10"/>
<path d="M614.443 398.583C614.443 400.171 613.249 401.078 611.661 401.078C610.073 401.078 607.941 400.685 607.941 399.097C607.941 397.509 603.676 397.267 609.392 394.802C610.844 394.182 614.443 396.995 614.443 398.583Z" fill="#101010" stroke="#101010" stroke-width="4" stroke-miterlimit="10"/>
<path d="M635.011 378.893C635.011 378.893 636.66 365.63 618.935 372.632C610.391 376.004 624.334 376.911 624.334 376.911C624.334 376.911 633.605 385.169 635.011 378.877V378.893Z" fill="#101010" stroke="#101010" stroke-width="4" stroke-miterlimit="10"/>
<path d="M558.609 374.582C560.015 368.321 549.474 353.576 548.9 363.603Z" fill="#101010"/>
<path d="M558.609 374.582C560.015 368.321 549.474 353.576 548.9 363.603" stroke="#101010" stroke-width="4" stroke-miterlimit="10"/>
<path d="M554.042 378.288C554.042 378.288 564.945 380.39 557.565 386.953Z" fill="#101010"/>
<path d="M554.042 378.288C554.042 378.288 564.945 380.39 557.565 386.953" stroke="#101010" stroke-width="4" stroke-miterlimit="10"/>
<path d="M628.947 397.373C628.947 397.373 631.639 386.59 637.794 394.318Z" fill="#101010"/>
<path d="M628.947 397.373C628.947 397.373 631.639 386.59 637.794 394.318" stroke="#101010" stroke-width="4" stroke-miterlimit="10"/>
<path d="M690.846 363.739C690.846 363.739 673.167 351.807 697.651 352.109Z" fill="#101010"/>
<path d="M690.846 363.739C690.846 363.739 673.167 351.807 697.651 352.109" stroke="#101010" stroke-width="4" stroke-miterlimit="10"/>
<path d="M564.688 355.422C563.796 355.028 562.995 355.376 563.312 356.042C564.794 359.157 563.237 363.316 566.216 368.186C568.56 372.027 579.524 370.787 574.261 365.766C572.159 363.754 581.324 367.172 580.477 364.42C579.827 362.287 569.301 357.448 564.688 355.422Z" fill="#101010" stroke="#101010" stroke-width="4" stroke-miterlimit="10"/>
<path d="M688.955 322.211C688.955 322.211 688.109 334.31 679.67 320.85Z" fill="#101010"/>
<path d="M688.955 322.211C688.955 322.211 688.109 334.31 679.67 320.85" stroke="#101010" stroke-width="4" stroke-miterlimit="10"/>
<path d="M604.523 366.204C604.326 365.705 603.646 365.479 602.98 365.69C598.595 367.021 583.88 371.724 588.931 373.418C594.844 375.399 589.551 384.927 596.145 380.224C602.738 375.52 598.957 371.15 603.358 372.239C606.852 373.101 605.309 368.261 604.523 366.22V366.204Z" fill="#101010" stroke="#101010" stroke-width="4" stroke-miterlimit="10"/>
<path d="M617.74 358.461C617.74 358.461 626.981 370.227 633.499 355.24Z" fill="#101010"/>
<path d="M617.74 358.461C617.74 358.461 626.981 370.227 633.499 355.24" stroke="#101010" stroke-width="4" stroke-miterlimit="10"/>
<path d="M548.612 339.013C540.476 349.191 555.584 350.99 555.584 350.99C555.584 350.99 558.775 350.96 559.577 347.89" fill="#101010"/>
<path d="M548.612 339.013C540.476 349.191 555.584 350.99 555.584 350.99C555.584 350.99 558.775 350.96 559.577 347.89" stroke="#101010" stroke-width="4" stroke-miterlimit="10"/>
<path d="M673.726 330.967C678.067 336.034 669.462 345.697 664.773 337.848Z" fill="#101010"/>
<path d="M673.726 330.967C678.067 336.034 669.462 345.697 664.773 337.848" stroke="#101010" stroke-width="4" stroke-miterlimit="10"/>
<path d="M654.263 353.803C655.488 353.501 656.652 352.941 657.605 352.064C659.011 350.764 661.719 349.372 665.832 351.989C672.199 356.042 677.749 361.561 667.692 361.97C657.635 362.378 661.915 366.93 652.917 361.41C645.643 356.949 651.526 354.484 654.263 353.803Z" fill="#101010" stroke="#101010" stroke-width="4" stroke-miterlimit="10"/>
<path d="M572.174 391.43C572.174 393.774 571.433 399.248 569.104 395.679C567.97 393.94 566.73 393.562 566.034 391.43C565.339 389.297 567.532 388.072 569.104 387.18C571.085 386.061 572.174 389.086 572.174 391.43Z" fill="#101010" stroke="#101010" stroke-width="4" stroke-miterlimit="10"/>
<path d="M593.347 395.725C593.952 395.468 594.466 395.059 594.919 394.59C595.434 394.061 596.175 393.607 597.173 393.94C599.139 394.606 597.869 396.919 596.039 398.84C594.209 400.761 592.47 399.868 592.575 397.464C592.636 396.33 592.984 395.876 593.347 395.725Z" fill="#101010" stroke="#101010" stroke-width="4" stroke-miterlimit="10"/>
<path d="M582.7 377.335C582.7 379.029 581.959 382.976 579.63 380.405C578.496 379.15 577.256 378.878 576.56 377.335C575.864 375.792 578.057 374.9 579.63 374.265C581.611 373.448 582.7 375.641 582.7 377.335Z" fill="#101010" stroke="#101010" stroke-width="4" stroke-miterlimit="10"/>
<path d="M648.456 373.705C648.667 373.554 653.295 370.665 649.59 370.59C644.463 370.484 648.592 362.287 652.04 367.142C653.31 368.941 654.081 370.151 654.55 370.953C655.034 371.8 654.822 372.904 654.036 373.539C652.448 374.824 651.692 375.822 651.042 376.125C649.484 376.851 647.019 374.764 648.44 373.705H648.456Z" fill="#101010" stroke="#101010" stroke-width="4" stroke-miterlimit="10"/>
<path d="M554.45 148.96C551.97 145.073 550.246 141.625 549.293 138.646C548.325 135.667 547.781 133.035 547.66 130.752C547.523 128.468 547.584 126.442 547.811 124.642C548.038 122.857 548.113 121.239 548.068 119.818C548.007 118.396 547.493 117.05 546.525 115.795C545.89 114.933 545.043 114.404 543.985 114.207C542.926 114.025 541.883 114.252 540.854 114.903C539.886 115.523 539.236 116.354 538.933 117.413C538.631 118.472 538.767 119.455 539.342 120.362L544.332 128.211L531.947 136.09L527.213 128.65C525.549 126.033 524.778 123.22 524.884 120.181C525.005 117.141 525.852 114.237 527.455 111.454C529.058 108.672 531.311 106.358 534.23 104.498C537.209 102.607 540.295 101.519 543.486 101.246C546.677 100.974 549.656 101.443 552.438 102.638C555.206 103.832 557.429 105.738 559.093 108.354C560.484 110.547 561.24 112.649 561.376 114.661C561.512 116.672 561.346 118.714 560.907 120.755C560.454 122.797 560.076 124.959 559.773 127.213C559.456 129.466 559.546 131.886 560.03 134.457C560.514 137.028 561.769 139.901 563.766 143.047L554.48 148.96H554.45ZM563.751 164.386L557.187 154.072L567.199 147.69L573.762 158.004L563.751 164.386Z" fill="#101010" stroke="#101010" stroke-miterlimit="10"/>
<path d="M701.886 165.52L709.22 155.735L718.718 162.858L711.383 172.643L701.886 165.52ZM713.047 151.364C715.814 147.674 718.43 144.846 720.88 142.895C723.33 140.945 725.599 139.508 727.686 138.585C729.773 137.663 731.694 136.982 733.448 136.574C735.202 136.151 736.73 135.667 738.06 135.107C739.376 134.547 740.45 133.595 741.282 132.249C741.871 131.341 742.068 130.358 741.871 129.315C741.675 128.256 741.085 127.364 740.102 126.623C739.179 125.927 738.166 125.625 737.077 125.716C735.988 125.806 735.111 126.275 734.461 127.137L728.881 134.578L717.13 125.776L722.423 118.714C724.283 116.233 726.657 114.509 729.531 113.557C732.404 112.589 735.429 112.377 738.605 112.891C741.766 113.405 744.73 114.706 747.497 116.778C750.31 118.895 752.412 121.405 753.804 124.294C755.18 127.182 755.8 130.147 755.664 133.156C755.513 136.166 754.514 138.918 752.654 141.398C751.097 143.47 749.403 144.922 747.558 145.754C745.713 146.586 743.762 147.16 741.69 147.463C739.618 147.765 737.471 148.173 735.247 148.673C733.024 149.172 730.786 150.109 728.563 151.47C726.325 152.831 724.087 155.009 721.848 157.988L713.032 151.38L713.047 151.364Z" fill="#101010" stroke="#101010" stroke-miterlimit="10"/>
<path d="M633.695 117.247C633.786 112.634 634.27 108.823 635.117 105.798C635.964 102.774 636.977 100.294 638.126 98.3124C639.276 96.3464 640.455 94.6828 641.635 93.3066C642.815 91.9456 643.782 90.645 644.524 89.4351C645.265 88.2101 645.582 86.8188 645.476 85.2309C645.431 84.1571 645.007 83.2497 644.236 82.4936C643.465 81.7525 642.467 81.3593 641.242 81.3442C640.092 81.314 639.094 81.6618 638.247 82.3726C637.401 83.0834 636.977 83.9756 636.947 85.0494L636.75 94.335L622.066 94.0325L622.247 85.2157C622.308 82.1155 623.23 79.3328 625.015 76.8829C626.799 74.4178 629.113 72.482 631.986 71.0453C634.86 69.6238 638.021 68.9432 641.484 69.0037C645.007 69.0793 648.183 69.8808 650.996 71.4234C653.809 72.966 656.032 75.0076 657.681 77.5332C659.314 80.0587 660.1 82.8868 660.04 85.9719C659.979 88.558 659.45 90.7357 658.452 92.49C657.439 94.2443 656.183 95.8473 654.686 97.2992C653.174 98.751 651.677 100.339 650.164 102.048C648.652 103.757 647.382 105.813 646.369 108.233C645.34 110.653 644.796 113.723 644.72 117.443L633.71 117.216L633.695 117.247ZM632.894 135.258L633.151 123.024L645.023 123.266L644.765 135.5L632.894 135.258Z" fill="#101010" stroke="#101010" stroke-miterlimit="10"/>
<path d="M628.16 271.473H628.206C630.172 271.442 631.215 271.412 632.773 270.444L633.605 269.915" fill="#EF837B"/>
<path d="M628.16 271.473H628.206C630.172 271.442 631.215 271.412 632.773 270.444L633.605 269.915" stroke="#101010" stroke-width="4" stroke-linecap="round" stroke-linejoin="round"/>
<path d="M565.792 263.654L565.747 263.624C563.993 262.747 563.055 262.293 562.072 260.735L561.543 259.903" fill="#EF837B"/>
<path d="M565.792 263.654L565.747 263.624C563.993 262.747 563.055 262.293 562.072 260.735L561.543 259.903" stroke="#101010" stroke-width="4" stroke-linecap="round" stroke-linejoin="round"/>
<path d="M587.691 335.111C587.691 335.111 599.683 325.598 612.039 331.345" stroke="#101010" stroke-width="4" stroke-miterlimit="10" stroke-linecap="round"/>
<path d="M561.407 240.486C561.407 240.486 575.063 234.179 582.836 244.69" stroke="#101010" stroke-width="4" stroke-miterlimit="10" stroke-linecap="round"/>
<path d="M620.523 251.314C620.523 251.314 630.761 262.323 641.953 255.563" stroke="#101010" stroke-width="4" stroke-miterlimit="10" stroke-linecap="round"/>
<path d="M148.903 218.874H183.052V270.839H148.903V218.874Z" fill="#101010" stroke="#101010" stroke-width="5" stroke-miterlimit="10" stroke-linecap="round"/>
<path d="M113.749 267.855C126.827 267.855 137.153 261.724 144.449 249.641L132.886 250.25C119.895 250.932 107.865 258.132 101.705 264.99C101.516 265.198 101.472 265.435 101.545 265.702C101.588 265.866 101.763 266.252 102.288 266.385C106.22 267.38 110.065 267.87 113.735 267.87L113.749 267.855ZM144.42 248.572C142.702 235.109 134.415 204.366 95.2096 192.209C95.0931 192.179 94.9765 192.15 94.8746 192.15C94.5979 192.15 94.3357 192.254 94.161 192.447C94.0153 192.595 93.9571 192.773 93.9716 192.981C94.5542 203.283 99.1418 237.513 133.294 245.856L144.435 248.572H144.42Z" fill="#F1E8C9"/>
<path d="M95.6018 195.638C96.6764 207.395 102.542 236.95 134.032 244.446L142.21 246.39C140.867 238.909 138.315 231.888 134.569 225.445C126.391 211.388 113.287 201.368 95.6168 195.638M140.554 252.848L133.211 253.219C121.674 253.798 110.929 259.528 104.556 265.465C107.616 266.074 110.601 266.386 113.481 266.386C124.644 266.386 133.718 261.843 140.554 252.848ZM94.1393 190.665C94.4676 190.665 94.8108 190.71 95.1392 190.813C144.941 205.895 146.896 248.498 147.344 250.621C147.374 250.621 147.389 250.621 147.419 250.636C147.419 250.695 147.404 250.725 147.389 250.725C137.673 267.054 124.167 270.839 113.511 270.839C108.601 270.839 104.288 270.037 101.243 269.28C98.8703 268.701 97.9449 265.94 99.5269 264.233C106.482 256.692 119.287 249.478 133.017 248.78C98.6016 240.586 91.8409 208.048 91.0052 193.871C90.9007 192.075 92.3931 190.68 94.1691 190.68L94.1393 190.665Z" fill="#101010"/>
<path d="M141.48 244.114L129.602 235.206" stroke="#101010" stroke-width="5" stroke-miterlimit="10" stroke-linecap="round"/>
<path d="M139.995 253.023L125.148 257.477" stroke="#101010" stroke-width="5" stroke-miterlimit="10" stroke-linecap="round"/>
<path d="M157.16 303.789C134.795 354.142 216.234 376.473 267.154 366.507C294.631 361.137 314.396 342.143 302.992 317.296C272.192 351.289 188.654 339.699 175.551 299.048L157.175 303.789H157.16Z" fill="#9F3541" stroke="#101010" stroke-width="5" stroke-miterlimit="10"/>
<path d="M177.113 353.982C177.113 353.982 197.265 434.715 198.3 435.122C202.868 436.945 205.722 437.699 211.488 436.644C213.336 436.312 214.578 434.519 214.312 432.619L212.375 418.752L216.13 433.509C216.515 435.001 217.786 436.071 219.28 436.177C223.183 436.463 226.82 436.237 229.94 435.016C231.462 434.413 232.349 432.785 232.098 431.127L229.836 416.732L233.798 431.519C234.183 432.936 235.38 434.006 236.829 434.127C240.762 434.489 243.601 434.021 246.41 432.831C248.007 432.152 248.864 430.374 248.45 428.67L244.976 414.501L250.387 429.484C250.845 430.75 251.954 431.685 253.27 431.806C255.665 432.017 258.386 431.806 261.594 430.992C263.546 430.494 264.684 428.399 264.078 426.439L259.406 411.562L264.137 426.635C264.729 428.504 266.665 429.545 268.499 428.957C271.663 427.962 276.172 426.153 277.739 423.651C280.253 419.626 267.73 367.187 267.73 367.187C227.648 372.553 199.704 364.911 177.113 353.982Z" fill="#9F3541" stroke="#101010" stroke-width="5" stroke-miterlimit="10"/>
<path d="M340.414 194.707C339.928 196.693 332.187 210.883 298.901 218.874L286.981 195.394C286.981 195.394 327.243 178.889 340.296 194.214C340.414 194.348 340.458 194.527 340.414 194.692V194.707Z" fill="#9F3541" stroke="#101010" stroke-width="5" stroke-miterlimit="10"/>
<path d="M156.07 224.706L192.913 220.398C193.224 220.353 193.551 220.353 193.877 220.368C199.619 220.65 201.474 228.242 196.518 231.139C191.562 234.036 185.672 237.513 179.722 240.87C178.371 241.628 177.066 242.49 175.819 243.44C175.612 243.604 175.404 243.767 175.226 243.96L156.931 261.774C155.402 263.259 153.191 263.794 151.173 263.141C150.817 263.022 150.461 262.918 150.09 262.814C147.36 262.026 145.624 259.352 145.98 256.529C146.96 248.73 149.69 235.76 151.114 229.223C151.633 226.801 153.637 225.003 156.085 224.721L156.07 224.706Z" fill="#F1E8C9" stroke="#101010" stroke-width="5" stroke-miterlimit="10"/>
<path d="M286.733 195.309C286.733 195.309 318.71 231.373 304.624 255.282C304.624 255.282 319.507 272.657 313.946 296.939C309.979 314.255 297.073 328.036 280.538 334.061C255.257 343.279 190.948 344.189 176.154 299.474C176.154 299.474 154.472 313.733 142.54 290.152C130.607 266.572 146.33 243.872 174.517 268.108C174.517 268.108 186.45 267.124 182.644 228.763C178.839 190.403 286.718 195.324 286.718 195.324L286.733 195.309Z" fill="#EF837C" stroke="#101010" stroke-width="5" stroke-miterlimit="10"/>
<path d="M222.124 260.204C220.895 254.284 222.733 248.897 226.228 248.171C229.724 247.446 233.554 251.656 234.783 257.575C236.012 263.495 234.175 268.882 230.679 269.608C227.184 270.333 223.353 266.123 222.124 260.204Z" fill="#101010"/>
<path d="M276.343 251.745C275.113 245.825 276.951 240.438 280.447 239.712C283.942 238.987 287.772 243.197 289.002 249.116C290.231 255.036 288.393 260.423 284.898 261.149C281.402 261.874 277.572 257.664 276.343 251.745Z" fill="#101010"/>
<path d="M288.466 221.969C288.466 221.969 272.501 212.027 264.71 227.783" stroke="#101010" stroke-width="5" stroke-miterlimit="10" stroke-linecap="round"/>
<path d="M236.501 230.752C236.501 230.752 234.176 236.699 224.623 235.815C215.071 234.932 209.776 242.63 209.776 242.63" stroke="#101010" stroke-width="5" stroke-miterlimit="10" stroke-linecap="round"/>
<path d="M270.117 264.9C280.353 267.522 281.413 281.135 269.164 284.201" stroke="#101010" stroke-width="5" stroke-miterlimit="10" stroke-linecap="round"/>
<path d="M233.073 311.807C231.654 307.898 232.67 303.943 235.343 302.973C238.015 302.003 241.332 304.385 242.751 308.294C244.17 312.203 243.153 316.158 240.481 317.128C237.808 318.098 234.492 315.716 233.073 311.807Z" fill="#101010" stroke="#101010" stroke-width="5" stroke-miterlimit="10" stroke-linecap="round"/>
<path d="M145.934 274.043C145.934 274.043 158.754 262.146 166.72 284.201" stroke="#101010" stroke-width="5" stroke-miterlimit="10" stroke-linecap="round"/>
<path d="M180.718 241.145L209.776 218.015L209.748 204.027L178.598 221.032" fill="#F1E8C9"/>
<path d="M180.718 241.145L209.776 218.015L209.748 204.027L178.598 221.032" stroke="#101010" stroke-width="5"/>
<path d="M145.934 241.211L145.613 257.089C139.02 259.018 136.394 253.354 137.153 248.655C137.911 243.968 141.835 240.627 145.934 241.211Z" fill="#F1E8C9" stroke="#101010" stroke-width="5" stroke-miterlimit="10"/>
<path d="M203.838 151.682C201.773 141.843 182.063 145.448 184.796 159.486L203.838 151.682Z" fill="#9F3541"/>
<path d="M203.838 151.682C201.773 141.843 182.063 145.448 184.796 159.486" stroke="#101010" stroke-width="5" stroke-miterlimit="10"/>
<path d="M151.931 242.399C171.2 219.615 279.082 181.341 280.172 180.961L282.527 180.128L281.393 177.906C272.694 160.793 252.469 150.578 227.283 150.578C207.499 150.578 187.244 157.081 171.715 168.422C135.533 194.844 147.971 241.113 148.104 241.58L149.223 245.599L151.916 242.413L151.931 242.399Z" fill="#9F3541"/>
<path d="M227.801 152.084C209.031 152.084 188.886 158.006 172.758 169.865C136.874 196.224 149.627 242.14 149.627 242.14C169.787 218.153 280.694 178.756 280.694 178.756C271.719 160.975 250.783 152.099 227.801 152.099M227.801 147.609C254.218 147.609 275.482 158.498 284.696 176.727L286.981 181.262L282.187 182.963C281.082 183.351 172.206 222.225 153.062 245.019L147.596 251.538L145.326 243.348C145.192 242.841 141.937 230.907 143.296 215.512C145.102 194.867 154.391 177.831 170.13 166.27C186.258 154.426 207.283 147.624 227.816 147.624L227.801 147.609Z" fill="#101010"/>
<path d="M178.597 163.94C178.597 163.94 167.649 189.091 175.483 218.874" stroke="#101010" stroke-width="5" stroke-miterlimit="10" stroke-linecap="round"/>
<path d="M177.113 227.697C177.113 227.697 212.203 230.94 278.633 197.575C289.365 192.191 301.086 188.887 313.117 188.329C323.584 187.831 334.818 188.963 340.132 194.906C340.25 195.026 340.457 194.951 340.427 194.785C339.985 191.542 332.116 164.483 274.617 184.8C214.092 206.203 177.113 227.697 177.113 227.697Z" fill="#9F3541" stroke="#101010" stroke-width="5" stroke-miterlimit="10"/>
<path d="M240.955 187.696C240.135 187.696 239.47 187.031 239.47 186.211C239.47 185.391 240.135 184.726 240.955 184.726C241.775 184.726 242.44 185.391 242.44 186.211C242.44 187.031 241.775 187.696 240.955 187.696Z" fill="white"/>
<path d="M217.2 195.119C216.38 195.119 215.715 194.454 215.715 193.634C215.715 192.814 216.38 192.15 217.2 192.15C218.02 192.15 218.684 192.814 218.684 193.634C218.684 194.454 218.02 195.119 217.2 195.119Z" fill="white"/>
<path d="M248.379 166.91C247.559 166.91 246.894 166.245 246.894 165.425C246.894 164.605 247.559 163.94 248.379 163.94C249.199 163.94 249.863 164.605 249.863 165.425C249.863 166.245 249.199 166.91 248.379 166.91Z" fill="white"/>
<path d="M209.776 165.425C208.956 165.425 208.292 165.093 208.292 164.683C208.292 164.273 208.956 163.94 209.776 163.94C210.596 163.94 211.261 164.273 211.261 164.683C211.261 165.093 210.596 165.425 209.776 165.425Z" fill="white"/>
<path d="M221.654 178.787C220.834 178.787 220.169 178.123 220.169 177.303C220.169 176.483 220.834 175.818 221.654 175.818C222.474 175.818 223.139 176.483 223.139 177.303C223.139 178.123 222.474 178.787 221.654 178.787Z" fill="white"/>
<path d="M198.641 181.757C198.231 181.757 197.899 181.092 197.899 180.272C197.899 179.452 198.231 178.787 198.641 178.787C199.051 178.787 199.383 179.452 199.383 180.272C199.383 181.092 199.051 181.757 198.641 181.757Z" fill="white"/>
<path d="M230.562 162.456C229.742 162.456 229.077 161.791 229.077 160.971C229.077 160.151 229.742 159.486 230.562 159.486C231.382 159.486 232.047 160.151 232.047 160.971C232.047 161.791 231.382 162.456 230.562 162.456Z" fill="white"/>
<path d="M156.327 305.326L156.475 306.386C156.772 308.459 158.669 309.995 160.433 309.251C164.903 307.399 159.79 294.594 159.79 294.594" fill="#9F3541"/>
<mask id="mask0_39_2995" style="mask-type:luminance" maskUnits="userSpaceOnUse" x="156" y="295" width="4" height="11">
<path d="M159.6 305.878H156.168V299.221L159.392 295.597L159.6 305.878Z" fill="white"/>
</mask>
<g mask="url(#mask0_39_2995)">
<path d="M151.419 270.981C135.088 283.6 143.801 304.739 164.614 303.467C192.587 371.706 333.489 351.795 265.635 226.81C199.451 210.094 162.173 225.686 151.419 270.981Z" fill="#EF837C" stroke="#101010" stroke-width="5" stroke-miterlimit="10"/>
</g>
<path d="M222.125 402.428C220.981 405.422 221.996 408.625 224.37 409.658C230.261 412.217 226.972 407.458 230.762 406.051C233.751 404.943 230.905 399.824 228.517 398.821C226.129 397.818 223.269 399.435 222.125 402.428Z" fill="#101010"/>
<path d="M153.746 322.054C163.014 326.513 167.175 309.488 153.358 312.855L153.746 322.054Z" fill="#101010"/>
<path d="M169.689 328.465C169.689 329.869 170.566 333.142 173.323 331.01C174.665 329.969 176.133 329.744 176.956 328.465C177.779 327.186 175.184 326.446 173.323 325.919C170.978 325.242 169.689 327.06 169.689 328.465Z" fill="#101010"/>
<path d="M258.772 402.134C258.772 403.616 259.876 404.462 261.344 404.462C262.811 404.462 264.782 404.095 264.782 402.614C264.782 401.132 268.724 400.906 263.44 398.605C262.098 398.027 258.772 400.652 258.772 402.134Z" fill="#101010"/>
<path d="M237.986 370.352C237.986 370.352 237.739 388.823 251.348 367.345L237.986 370.352Z" fill="#101010"/>
<path d="M246.97 391.865C245.594 391.068 245.027 389.224 245.679 387.677C248.005 382.193 253.904 370.77 260.922 376.192C269.26 382.63 261.844 384.083 257.604 383.349C256.243 383.115 255.123 384.521 255.463 385.99C256.569 390.599 257.009 397.694 246.955 391.881L246.97 391.865Z" fill="#101010"/>
<path d="M218.723 359.441C218.723 359.441 217.168 348.348 233.887 354.205C241.947 357.025 228.794 357.784 228.794 357.784C228.794 357.784 220.05 364.691 218.723 359.429V359.441Z" fill="#101010"/>
<path d="M291.591 355.467C289.893 349.002 302.619 333.776 303.313 344.129L291.591 355.467Z" fill="#101010"/>
<path d="M186.021 388.464C199.143 385.862 193.891 399.33 193.891 399.33C193.891 399.33 192.411 402.003 189.2 401.406" fill="#101010"/>
<path d="M276.259 404.462C276.259 404.462 262.503 414.735 278.073 417.825L276.259 404.462Z" fill="#101010"/>
<path d="M163.334 345.074C163.334 345.074 181.538 332.894 156.327 333.202L163.334 345.074Z" fill="#101010"/>
<path d="M210.261 367.345C202.955 370.41 217.492 387.88 229.077 369.317L210.261 367.345Z" fill="#101010"/>
<path d="M287.099 336.328C287.942 335.943 288.699 336.283 288.399 336.934C286.999 339.981 288.47 344.047 285.656 348.809C283.442 352.565 273.086 351.353 278.057 346.443C280.043 344.476 271.386 347.818 272.186 345.127C272.801 343.042 282.742 338.309 287.099 336.328Z" fill="#101010"/>
<path d="M165.235 303.607C165.235 303.607 166.048 317.737 174.143 302.018L165.235 303.607Z" fill="#101010"/>
<path d="M247.929 347.168C248.127 346.656 248.814 346.423 249.485 346.64C253.909 348.007 268.755 352.837 263.659 354.577C257.693 356.612 263.033 366.397 256.381 361.566C249.729 356.736 253.543 352.247 249.104 353.365C245.579 354.251 247.135 349.281 247.929 347.184V347.168Z" fill="#101010"/>
<path d="M235.016 339.307C235.016 339.307 226.31 350.781 220.169 336.166L235.016 339.307Z" fill="#101010"/>
<path d="M303.61 321.319C312.645 330.15 295.869 331.712 295.869 331.712C295.869 331.712 292.325 331.686 291.435 329.022" fill="#101010"/>
<path d="M215.542 395.549L209.563 394.506C207.694 394.18 206.463 392.174 206.893 390.152C207.323 388.097 209 386.646 210.914 386.646H213.451C214.756 386.646 215.884 387.624 216.18 389.01L217.16 393.625C217.397 394.718 216.551 395.713 215.542 395.533V395.549Z" fill="#101010"/>
<path d="M238.454 384.501C237.51 383.344 236.171 385.13 236.016 385.393C235.494 386.315 235.071 386.301 231.829 383.549C227.46 379.847 228.066 384.427 225.317 388.804C222.569 393.18 228.587 391.423 232.872 394.643C237.157 397.878 232.957 391.423 237.016 391.892C240.371 392.287 239.694 386.023 238.454 384.501Z" fill="#101010"/>
<path d="M192.626 367.985C186.312 365.386 187.498 371.419 187.775 373.241C187.991 374.615 189.993 373.838 190.255 373.689C191.148 373.196 191.487 373.405 192.857 377.198C194.659 382.171 200.449 385.546 200.865 376.735C200.881 376.332 200.834 375.899 200.711 375.511C199.479 371.793 196.646 369.418 192.642 368L192.626 367.985Z" fill="#101010"/>
<path d="M197.671 411.313C199.877 414.165 200.13 422.795 204.349 417.767C206.674 415.001 209.507 414.569 211.027 411.313C212.548 408.057 206.227 407.927 204.349 404.859C201.323 399.903 193.348 405.68 197.671 411.313Z" fill="#101010"/>
<path d="M247.493 407.515C247.335 407.432 243.62 405.748 246.529 405.759C250.56 405.771 247.125 401.141 244.514 403.803C243.55 404.793 242.972 405.453 242.621 405.889C242.253 406.36 242.464 406.973 243.077 407.338C244.356 408.081 244.97 408.646 245.495 408.823C246.74 409.247 248.632 408.128 247.493 407.515Z" fill="#101010"/>
<path d="M181.126 312.411C177.313 317.759 184.872 327.962 188.991 319.676L181.126 312.411Z" fill="#101010"/>
<path d="M199.301 334.946C198.155 334.649 197.065 334.1 196.174 333.239C194.858 331.962 192.325 330.596 188.476 333.164C182.519 337.143 177.325 342.562 186.736 342.963C196.146 343.363 192.141 347.832 200.561 342.413C207.367 338.034 201.863 335.614 199.301 334.946Z" fill="#101010"/>
<path d="M217.2 418.077C217.2 420.534 217.901 426.272 220.106 422.531C221.18 420.708 222.354 420.312 223.013 418.077C223.672 415.842 221.596 414.558 220.106 413.622C218.231 412.449 217.2 415.62 217.2 418.077Z" fill="#101010"/>
<path d="M238.727 419.471C238.727 419.471 236.673 419.72 236.508 421.739C236.418 422.787 237.242 423.351 238.052 423.666C238.787 423.941 239.641 423.613 239.941 422.958C240.241 422.302 241.141 422.001 241.501 422.066C242.805 422.289 242.37 421.031 242.37 421.031C242.37 421.031 241.456 418.658 238.727 419.484V419.471Z" fill="#101010"/>
<path d="M261.984 423.118C261.013 422.802 260.191 422.307 259.483 421.724C258.677 421.078 257.476 420.521 255.897 420.939C252.755 421.763 254.795 424.601 257.707 426.945C260.618 429.29 263.398 428.2 263.217 425.26C263.135 423.866 262.559 423.308 261.984 423.118Z" fill="#101010"/>
<path d="M269.165 357.347C269.165 359.102 270.042 363.193 272.798 360.529C274.14 359.228 275.608 358.946 276.431 357.347C277.254 355.748 274.659 354.823 272.798 354.165C270.453 353.319 269.165 355.591 269.165 357.347Z" fill="#101010"/>
<path d="M205.317 354.448C205.07 354.301 199.666 351.487 203.992 351.414C209.979 351.311 205.158 343.326 201.131 348.055C199.648 349.808 198.747 350.986 198.2 351.767C197.635 352.592 197.882 353.668 198.8 354.286C200.655 355.539 201.538 356.511 202.297 356.806C204.116 357.513 206.995 355.48 205.335 354.448H205.317Z" fill="#101010"/>
<path d="M207.24 425.611C206.121 424.862 204.973 425.476 203.655 425.656C202.012 425.866 200.326 426.586 201.034 428.701C201.899 431.28 203.825 431.685 204.279 430.68C204.93 429.271 205.823 430.11 206.616 429.975C207.41 429.84 206.631 428.746 207.764 428.176C209.011 427.546 207.722 425.941 207.226 425.626L207.24 425.611Z" fill="#101010"/>
<path d="M143.546 113.271C141.112 109.455 139.419 106.07 138.484 103.145C137.533 100.221 136.999 97.6372 136.88 95.3953C136.747 93.1534 136.806 91.1639 137.029 89.3971C137.251 87.6451 137.326 86.0565 137.281 84.6609C137.222 83.2652 136.717 81.9439 135.767 80.7116C135.143 79.8653 134.312 79.3456 133.272 79.1526C132.233 78.9745 131.209 79.1972 130.199 79.8356C129.249 80.4443 128.61 81.2609 128.313 82.3002C128.016 83.3395 128.15 84.3045 128.714 85.1954L133.614 92.901L121.454 100.636L116.807 93.3315C115.174 90.763 114.417 88.0014 114.52 85.0172C114.639 82.0329 115.471 79.1823 117.044 76.4504C118.618 73.7186 120.83 71.447 123.696 69.6208C126.621 67.7649 129.65 66.6959 132.782 66.4287C135.915 66.1615 138.84 66.6217 141.572 67.7946C144.289 68.9675 146.471 70.8383 148.105 73.4068C149.47 75.5596 150.213 77.6234 150.346 79.598C150.48 81.5727 150.317 83.577 149.886 85.5814C149.441 87.5857 149.07 89.7089 148.773 91.9211C148.461 94.1333 148.55 96.5088 149.025 99.0328C149.5 101.557 150.732 104.378 152.692 107.466L143.576 113.271H143.546ZM152.677 128.415L146.234 118.289L156.063 112.024L162.506 122.15L152.677 128.415Z" fill="#101010"/>
<path d="M288.29 129.529L295.491 119.923L304.815 126.915L297.614 136.522L288.29 129.529ZM299.248 115.632C301.965 112.009 304.533 109.233 306.938 107.317C309.344 105.402 311.571 103.992 313.619 103.086C315.668 102.18 317.554 101.512 319.276 101.111C320.998 100.696 322.498 100.221 323.805 99.6712C325.096 99.1218 326.15 98.1865 326.967 96.8651C327.546 95.9743 327.739 95.0092 327.546 93.9848C327.353 92.9455 326.774 92.0695 325.809 91.342C324.903 90.659 323.908 90.3621 322.839 90.4512C321.77 90.5402 320.909 91.0005 320.271 91.8468L314.792 99.1515L303.256 90.5105L308.453 83.577C310.279 81.1421 312.61 79.4495 315.431 78.5141C318.252 77.5639 321.221 77.3561 324.339 77.8609C327.442 78.3657 330.352 79.6425 333.069 81.6766C335.831 83.7551 337.894 86.2197 339.26 89.0555C340.611 91.8913 341.22 94.8013 341.086 97.7559C340.938 100.71 339.958 103.413 338.132 105.848C336.603 107.882 334.94 109.307 333.128 110.123C331.317 110.94 329.402 111.504 327.368 111.801C325.334 112.098 323.225 112.499 321.043 112.989C318.86 113.479 316.663 114.399 314.481 115.736C312.283 117.072 310.086 119.21 307.888 122.135L299.233 115.647L299.248 115.632Z" fill="#101010"/>
<path d="M221.345 82.1367C221.434 77.6084 221.909 73.867 222.741 70.8975C223.572 67.9281 224.567 65.4932 225.695 63.5483C226.824 61.6181 227.982 59.985 229.14 58.6339C230.298 57.2977 231.248 56.0208 231.976 54.833C232.703 53.6304 233.015 52.2645 232.911 50.7056C232.866 49.6514 232.451 48.7606 231.693 48.0183C230.936 47.2907 229.956 46.9047 228.754 46.8899C227.625 46.8602 226.645 47.2017 225.814 47.8995C224.983 48.5973 224.567 49.4733 224.537 50.5274L224.344 59.6435L209.928 59.3465L210.106 50.6907C210.165 47.6471 211.071 44.9152 212.823 42.51C214.575 40.0899 216.846 38.1895 219.667 36.779C222.488 35.3834 225.591 34.7153 228.991 34.7747C232.451 34.8489 235.569 35.6358 238.33 37.1502C241.092 38.6646 243.274 40.669 244.893 43.1484C246.496 45.6279 247.268 48.4043 247.209 51.4331C247.149 53.9719 246.63 56.1099 245.65 57.8321C244.655 59.5544 243.423 61.1282 241.953 62.5535C240.468 63.9788 238.998 65.5378 237.514 67.2155C236.029 68.8932 234.782 70.9124 233.787 73.2879C232.777 75.6634 232.243 78.6774 232.169 82.3298L221.36 82.1071L221.345 82.1367ZM220.558 99.8196L220.811 87.8083L232.466 88.0459L232.213 100.057L220.558 99.8196Z" fill="#101010"/>
</svg>
