<svg width="399" height="384" viewBox="0 0 399 384" fill="none" xmlns="http://www.w3.org/2000/svg">
<path d="M343.703 290.386C353.643 264.926 322.473 250.186 315.663 248.446L312.932 241.866L304.832 244.676L306.043 250.566C306.043 250.566 292.062 251.766 286.262 266.046L281.283 260.926L274.413 268.176L280.303 274.996C280.843 275.216 281.083 322.596 321.633 310.226C331.583 307.196 339.923 300.066 343.703 290.386Z" fill="#F3E8CA" stroke="#101010" stroke-width="3" stroke-miterlimit="10"/>
<path d="M317.733 296.636C313.793 296.636 309.423 294.476 305.733 290.716C302.533 287.446 300.882 283.816 300.942 280.216C301.002 277.046 302.372 274.106 304.912 271.706C306.942 269.786 309.453 268.766 312.173 268.766C316.203 268.766 320.372 271.036 323.592 275.006C332.432 285.876 326.562 292.346 324.552 294.066C322.562 295.766 320.272 296.636 317.722 296.636H317.733Z" fill="#9F3641"/>
<path d="M312.182 270.276C315.762 270.276 319.503 272.346 322.443 275.956C330.423 285.776 325.343 291.426 323.593 292.926C321.883 294.386 319.922 295.126 317.742 295.126C314.202 295.126 310.223 293.136 306.813 289.656C303.903 286.686 302.393 283.426 302.453 280.236C302.503 277.486 303.713 274.906 305.953 272.796C307.703 271.146 309.852 270.266 312.182 270.266M312.182 267.276C309.152 267.276 306.253 268.396 303.893 270.626C298.143 276.066 297.533 284.496 304.663 291.766C308.603 295.796 313.293 298.136 317.733 298.136C320.513 298.136 323.193 297.216 325.533 295.206C328.853 292.356 333.563 284.886 324.763 274.066C321.083 269.536 316.492 267.276 312.182 267.276Z" fill="#101010"/>
<path d="M263.873 252.236C264.383 251.006 265.283 249.686 266.463 248.406C274.913 239.266 293.963 225.346 302.283 224.576C302.363 224.576 302.452 224.566 302.552 224.566C304.572 224.546 306.383 225.856 307.103 227.756C309.223 233.326 313.053 241.056 313.043 241.076C310.983 242.946 308.693 244.376 306.193 245.376L305.923 245.516C305.913 245.316 299.183 235.976 293.803 238.726C288.423 241.476 280.773 247.066 275.883 250.166C275.223 250.586 274.623 251.646 275.023 252.196C276.043 253.606 281.473 260.276 282.383 261.436C282.383 261.436 281.893 263.556 275.013 268.936C275.013 268.936 260.653 260.086 263.883 252.246L263.873 252.236Z" fill="#9F3641" stroke="#101010" stroke-width="3" stroke-miterlimit="10"/>
<path d="M143.013 265.256C152.813 278.166 171.102 282.506 192.902 278.566Z" fill="#101010"/>
<path d="M143.013 265.256C152.813 278.166 171.102 282.506 192.902 278.566" stroke="#101010" stroke-width="3" stroke-miterlimit="10"/>
<path d="M143.693 266.156L191.982 278.436L198.583 239.536" fill="#101010"/>
<path d="M260.512 272.166C252.612 284.786 236.912 291.626 211.202 283.916C219.762 273.826 237.322 262.056 260.512 272.166Z" fill="#101010" stroke="#101010" stroke-width="2" stroke-miterlimit="10"/>
<path d="M160.443 246.746C152.823 276.956 147.663 314.866 143.763 356.766L167.073 363.356C169.713 327.456 175.643 292.826 182.863 257.846L160.443 246.736" fill="#F0847C"/>
<path d="M160.443 246.746C152.823 276.956 147.663 314.866 143.763 356.766L167.073 363.356C169.713 327.456 175.643 292.826 182.863 257.846L160.443 246.736" stroke="#101010" stroke-width="3" stroke-miterlimit="10"/>
<path d="M224.932 264.226C224.342 293.976 232.792 318.686 263.452 347.946C264.622 349.556 266.992 349.676 268.312 348.196L278.993 336.226C259.813 315.256 243.112 290.306 251.002 261.516C243.092 267.326 234.172 266.806 224.932 264.236V264.226Z" fill="#F0847C" stroke="#101010" stroke-width="3" stroke-miterlimit="10"/>
<path d="M150.702 244.876C142.102 245.446 137.123 240.126 137.123 240.126L137.153 239.956L138.772 238.746C138.832 238.706 138.912 238.706 138.952 238.746C139.532 239.396 143.213 243.156 150.573 242.666C150.643 242.666 150.713 242.706 150.713 242.776L150.823 244.726C150.823 244.796 150.763 244.856 150.683 244.866L150.702 244.876Z" fill="#101010" stroke="#101010" stroke-width="2" stroke-miterlimit="10" stroke-linecap="round"/>
<path d="M143.673 264.686C160.353 264.896 176.513 269.486 192.213 277.826L202.432 238.966L199.622 228.346L154.153 218.286L143.683 264.696L143.673 264.686Z" fill="#9F3641" stroke="#101010" stroke-width="3" stroke-miterlimit="10"/>
<path d="M199.193 228.016L210.463 282.126C224.303 274.146 240.743 268.416 260.202 270.016L252.613 225.046C236.213 231.076 218.233 231.456 199.193 228.026V228.016Z" fill="#9F3641" stroke="#101010" stroke-width="3" stroke-miterlimit="10"/>
<path d="M217.482 51.286C217.482 51.286 251.762 78.336 251.762 78.376C252.952 88.606 270.953 99.676 281.273 96.706C280.573 87.266 278.383 78.496 271.033 72.066C279.693 70.746 288.233 68.576 294.603 49.446C278.013 47.796 263.083 47.336 258.573 54.426C258.503 54.536 226.223 40.746 217.473 51.286H217.482Z" fill="#101010"/>
<path d="M255.803 58.0559C261.223 59.2059 261.683 68.5759 255.473 69.7259Z" fill="#F2E8CA"/>
<path d="M289.303 53.7661C276.033 80.8761 258.403 65.2561 270.643 59.9761C250.013 53.0661 291.503 49.2561 289.303 53.7661Z" fill="#F2E8CA"/>
<path d="M276.403 92.9061C276.613 92.9361 276.793 92.7361 276.763 92.5261C273.503 71.4561 257.033 65.2961 264.873 78.2761C250.193 73.2361 256.283 89.6761 276.403 92.9061Z" fill="#F2E8CA"/>
<path d="M244.133 68.016C255.173 76.536 249.283 90.806 235.213 89.956C216.303 136.036 121.053 122.586 166.923 38.196C211.663 26.906 236.863 37.436 244.133 68.016Z" fill="#F0847C" stroke="#101010" stroke-width="3" stroke-miterlimit="10"/>
<path d="M250.533 73.6159C253.483 59.4559 254.133 63.3059 229.753 50.5359L226.573 50.8559C232.573 54.6359 242.222 63.3359 250.542 73.6159H250.533Z" fill="#F2E8CA" stroke="#101010" stroke-width="3" stroke-miterlimit="10"/>
<path d="M240.582 90.666L240.493 91.336C240.313 92.646 239.162 93.616 238.092 93.146C235.382 91.976 238.482 83.886 238.482 83.886" fill="#9F3641"/>
<mask id="mask0_41_729" style="mask-type:luminance" maskUnits="userSpaceOnUse" x="238" y="84" width="3" height="8">
<path d="M238.613 91.556H240.932V87.056L238.753 84.606L238.613 91.556Z" fill="white"/>
</mask>
<g mask="url(#mask0_41_729)">
<path d="M244.113 67.9959C255.153 76.5259 249.263 90.8159 235.193 89.9559C216.283 136.086 121.033 122.626 166.903 38.1359C211.643 26.8359 236.843 37.3759 244.113 67.9959Z" fill="#F0847C" stroke="#101010" stroke-width="3" stroke-miterlimit="10"/>
</g>
<path d="M171.303 93.3758C172.973 100.826 194.542 104.586 201.982 92.9958" stroke="#101010" stroke-width="2" stroke-miterlimit="10" stroke-linecap="round"/>
<path d="M183.273 78.9758C178.103 80.2158 177.573 86.6458 183.753 88.0958" stroke="#101010" stroke-width="2" stroke-miterlimit="10" stroke-linecap="round"/>
<path d="M145.973 64.386C137.093 59.736 146.553 52.706 167.373 55.196C171.783 55.726 175.923 57.476 179.713 59.806C182.553 61.556 185.863 61.516 188.463 61.036C190.063 60.746 191.552 60.036 192.932 59.166C201.882 53.486 219.043 56.816 237.243 61.296L246.812 69.876C241.662 67.996 235.823 66.886 229.493 66.326C222.973 96.386 187.803 89.356 189.733 67.126C186.813 66.296 184.223 66.126 182.213 67.126C178.453 95.266 142.923 88.456 145.983 64.376" fill="#101010"/>
<path d="M163.882 52.446C167.392 49.236 172.162 49.356 178.762 55.686" stroke="#101010" stroke-width="2" stroke-linecap="round" stroke-linejoin="round"/>
<path d="M209.952 205.696L212.732 195.596L209.952 205.696L215.193 207.506L218.023 197.226L215.193 207.506" fill="#F3E8CA"/>
<path d="M209.952 205.696L212.732 195.596L209.952 205.696ZM209.952 205.696L215.193 207.506L218.023 197.226L215.193 207.506" stroke="#101010" stroke-width="2" stroke-miterlimit="10"/>
<path d="M199.113 201.976L200.482 192.856L199.113 201.976L203.883 203.616L205.283 194.326L203.883 203.616" fill="#F3E8CA"/>
<path d="M199.113 201.976L200.482 192.856L199.113 201.976ZM199.113 201.976L203.883 203.616L205.283 194.326L203.883 203.616" stroke="#101010" stroke-width="2" stroke-miterlimit="10"/>
<path d="M134.163 194.046C134.163 194.046 115.323 184.086 122.903 145.776Z" fill="#101010"/>
<path d="M123.853 145.776L137.592 147.826L143.933 174.976L132.693 191.976L123.553 145.766C123.733 145.886 123.632 145.736 123.842 145.766L123.853 145.776Z" fill="#101010"/>
<path d="M126.632 153.686L126.033 153.096L95.6325 142.026L95.8625 141.236C95.9025 141.076 97.4325 134.296 86.8425 120.996L86.7225 120.846L86.6625 120.656C86.6325 120.536 83.1825 109.016 76.3525 110.486L76.1625 110.506C76.1625 110.506 75.0825 110.566 74.3625 111.696C73.5625 112.966 72.7525 116.366 76.3325 124.886L76.8025 126.006C76.8925 126.066 76.9925 126.126 77.0825 126.196C77.4225 127.116 77.6725 127.786 77.9525 128.566C78.1925 129.256 78.2925 130.006 78.2025 130.736C78.0825 131.746 77.8325 132.736 77.6525 133.736L77.7125 135.906C77.9325 136.536 78.1625 137.166 78.3625 137.816L79.3725 139.176C79.2825 139.086 80.5925 140.556 80.5725 140.536L80.4325 140.686L78.9625 139.576L78.9425 139.556L77.6225 138.326L77.6025 138.306L77.5425 138.206C77.2125 137.536 76.7125 136.756 76.4825 136.086L76.4325 135.776C76.4225 135.696 76.4025 135.616 76.3925 135.516L76.3525 135.256C76.3025 134.946 76.2425 134.606 76.1925 134.326L76.0925 133.756C76.0925 133.756 76.0925 133.696 76.0925 133.666C76.1325 133.136 76.1325 132.606 76.1325 132.076C76.1325 131.306 76.1325 130.526 76.1825 129.756C76.0825 129.306 76.0225 128.856 75.9725 128.406C75.9625 128.276 75.9525 128.136 75.9525 128.006C75.9525 127.836 75.9225 127.666 75.9225 127.496C75.9225 127.096 75.7625 126.716 75.4925 126.416L57.3025 118.376C56.8425 118.166 56.3725 118.016 55.8825 117.896C53.0825 117.236 49.7325 117.006 48.7725 118.366C48.3225 118.996 47.9825 120.706 50.6425 125.006L65.9725 131.746L65.1625 133.586L49.7525 126.806C47.7825 126.846 42.7425 127.396 41.8325 129.626C41.2225 131.106 42.4525 133.396 45.3725 136.266L45.4225 136.306L63.3325 141.316L62.7825 143.256L44.3425 138.096C43.5925 138.316 42.4925 138.746 41.7325 139.426C41.3925 139.736 41.1125 140.086 40.9725 140.496C40.6125 141.536 41.1125 142.886 42.4825 144.496C43.8425 146.106 45.6825 147.446 47.8025 148.366L68.5425 157.406C70.9525 158.456 73.5125 159.076 76.1525 159.246C80.6525 159.536 83.9425 159.246 85.4225 158.446L85.9625 158.146L86.4725 158.496C94.7825 164.256 112.883 174.896 117.513 175.876L117.733 175.946C117.803 175.976 124.473 179.066 131.293 176.436C135.933 174.646 156.813 157.256 159.433 151.136C160.503 148.826 176.842 107.536 126.632 153.656V153.686Z" fill="#F0847C" stroke="#F0847C" stroke-miterlimit="10"/>
<path d="M125.733 150.496L99.0425 140.586C98.9025 140.536 98.8225 140.406 98.8325 140.266C99.0325 137.786 98.8125 131.546 89.9225 120.326C89.9025 120.296 89.8825 120.266 89.8725 120.236C89.2825 118.366 85.0125 106.576 76.9825 108.226C76.5125 108.266 74.8325 108.526 73.6925 110.276C72.1225 112.676 72.3225 116.716 74.2925 122.306C74.3825 122.576 74.1225 122.826 73.8625 122.716L59.1825 116.226C58.6125 115.976 58.0225 115.776 57.4125 115.636C54.7725 115.016 50.0625 114.346 48.2525 116.896C47.1125 118.496 47.3825 120.866 49.1025 124.106C49.2125 124.306 49.0925 124.556 48.8625 124.586C46.2725 124.866 42.2525 125.746 41.1125 128.516C40.2925 130.526 41.1125 132.916 43.6425 135.786C43.7825 135.956 43.7325 136.206 43.5325 136.296C42.2725 136.866 40.7925 137.846 40.2325 139.436C39.6125 141.186 40.2325 143.186 42.0925 145.376C43.6425 147.206 45.7225 148.726 48.1125 149.776L68.7525 158.766C71.3625 159.906 74.1425 160.576 77.0025 160.756C81.4025 161.036 84.6225 160.796 86.5925 160.056C86.6925 160.016 86.7825 160.026 86.8725 160.086C90.7225 162.706 111.943 175.896 117.783 177.256C118.753 177.696 125.383 180.076 132.723 177.756C138.063 176.066 160.293 155.306 162.043 151.086L162.193 150.716L162.043 150.336C161.713 149.486 180.433 106.266 126.053 150.466C125.963 150.536 125.843 150.556 125.733 150.516V150.496ZM159.833 150.866C159.813 150.996 159.783 151.106 159.723 151.226C156.013 157.646 136.403 174.426 131.833 176.186C125.053 178.806 118.402 175.736 118.342 175.706L118.123 175.636C113.513 174.666 95.4925 164.076 87.2325 158.336L86.7225 157.986L86.1825 158.276C84.7125 159.076 81.4325 159.356 76.9525 159.066C74.3225 158.896 71.7725 158.286 69.3825 157.236L48.7425 148.246C46.6325 147.326 44.8025 145.996 43.4525 144.396C42.0925 142.786 41.5925 141.446 41.9525 140.416C42.0925 140.006 42.3725 139.656 42.7125 139.346C43.1725 138.936 43.7425 138.626 44.2925 138.386C44.8925 138.126 45.5725 138.096 46.2125 138.276L62.8825 142.946C63.3125 143.066 63.7525 142.816 63.8825 142.386L63.9825 142.016C64.1025 141.586 63.8525 141.136 63.4225 141.016L46.3725 136.246L46.3225 136.206C43.4125 133.346 42.1925 131.066 42.7925 129.596C43.5425 127.756 47.1225 127.066 49.4425 126.856C50.2225 126.786 50.9925 126.926 51.7025 127.236L65.2825 133.206C65.6925 133.386 66.1625 133.206 66.3425 132.796L66.5025 132.446C66.6825 132.036 66.5025 131.556 66.0925 131.376L53.1725 125.696C52.0725 125.216 51.1725 124.366 50.6225 123.306C49.0425 120.246 49.3425 118.926 49.7325 118.386C50.6925 117.026 54.0125 117.256 56.8125 117.916C57.3025 118.026 57.7625 118.186 58.2225 118.396L75.4725 125.806C75.6325 125.876 76.3425 126.356 76.6425 126.586C76.7325 126.646 76.7725 126.746 76.7725 126.856C76.7525 127.236 76.7725 127.606 76.7825 127.976C76.7825 128.106 76.7925 128.246 76.8025 128.376C76.8425 128.826 77.0125 129.196 77.1125 129.636C77.0725 130.406 76.9625 131.256 76.9625 132.026C76.9625 132.526 76.9625 133.036 76.9225 133.536C76.9225 133.546 76.9125 133.696 76.9225 133.696C76.9225 133.696 76.9625 133.936 77.0225 134.256L77.1825 135.176C77.2025 135.266 77.2125 135.346 77.2225 135.436L77.2625 135.696C77.2925 135.876 77.3125 136.006 77.3125 136.006C77.5425 136.666 78.0325 137.446 78.3725 138.116L78.4325 138.216L78.4525 138.236L79.7625 139.456L79.7825 139.476L81.2425 140.586L81.3825 140.436C81.3825 140.436 80.4425 139.376 80.2225 139.126L80.1525 139.036L79.6925 138.416C79.3525 137.966 79.1025 137.456 78.9125 136.916C78.6625 136.186 78.5225 135.426 78.5025 134.656V134.336C78.4825 133.896 78.5125 133.446 78.5725 133.016C79.1025 128.656 77.7225 126.056 77.6325 125.996L77.1625 124.886C73.6025 116.406 74.4025 113.026 75.2025 111.766C75.9125 110.646 76.9625 110.586 76.9925 110.576L77.1825 110.556C83.9925 109.096 87.4125 120.556 87.4425 120.676L87.5025 120.866L87.6225 121.016C98.1625 134.246 96.6425 140.996 96.6025 141.156L96.3725 141.946L126.653 153.276L127.413 153.216C178.383 108.496 160.233 147.966 159.873 150.896L159.833 150.866Z" fill="#101010"/>
<path d="M261.292 382.516C261.292 382.516 232.763 386.376 226.633 377.716C226.633 377.716 224.883 373.036 228.693 369.476C228.693 369.476 229.603 356.166 247.223 353.346C247.223 353.346 253.362 340.336 258.292 341.556C258.292 341.556 257.513 343.226 258.963 344.136C263.063 346.706 267.842 346.006 271.342 342.666C274.282 339.846 278.442 334.266 275.372 330.646C275.372 330.646 284.292 330.006 289.092 336.186C290.612 337.646 296.772 343.846 295.622 350.836C294.802 355.826 290.532 359.616 284.782 364.726C282.952 366.356 281.332 367.596 280.172 368.446C280.172 368.446 276.793 380.326 261.303 382.516" fill="#101010"/>
<path d="M229.622 375.026C237.772 382.176 253.092 380.676 274.402 371.936C250.172 379.656 241.262 380.686 229.622 375.026Z" fill="#616160"/>
<path d="M250.393 355.176C254.813 353.526 258.703 354.536 262.303 357.036C258.263 355.006 254.283 354.276 250.393 355.176Z" fill="#616160"/>
<path d="M282.533 251.656C279.983 251.656 278.252 250.716 278.062 250.616L276.803 249.906L282.702 238.486C282.322 237.676 280.303 235.996 279.083 235.866C278.763 235.836 278.452 235.786 278.152 235.726L271.792 241.186L270.092 233.846C269.622 231.836 269.662 229.716 270.202 227.726C270.912 225.086 272.353 219.956 272.943 218.256C271.763 214.976 264.802 195.836 261.012 185.416L260.542 184.126L286.553 171.936L294.913 209.736C312.393 221.426 305.393 241.876 305.323 242.086C303.963 246.166 299.533 246.926 297.883 247.056C295.153 249.466 292.223 249.986 290.193 249.986C289.473 249.986 288.862 249.916 288.432 249.846C286.582 251.046 284.603 251.656 282.533 251.656Z" fill="#F0847C"/>
<path d="M285.493 174.086L293.583 210.646C310.933 221.766 303.913 241.576 303.913 241.576C302.573 245.586 297.263 245.586 297.263 245.586C294.773 247.986 292.023 248.486 290.193 248.486C288.933 248.486 288.113 248.256 288.113 248.256C286.083 249.736 284.122 250.166 282.542 250.166C280.312 250.166 278.812 249.316 278.812 249.316L284.243 238.796C284.533 237.306 281.183 234.596 279.243 234.386C278.473 234.306 277.712 234.136 277.012 233.836L277.143 234.636L272.693 238.446L271.553 233.516C271.143 231.736 271.172 229.886 271.652 228.126C272.552 224.776 274.083 219.406 274.473 218.446C274.503 218.386 274.513 218.326 274.533 218.256C274.543 218.246 262.423 184.896 262.423 184.896L285.503 174.086M287.613 169.776L284.223 171.366L261.143 182.176L258.663 183.336L259.603 185.916C263.233 195.886 269.783 213.926 271.353 218.266C270.583 220.646 269.153 225.826 268.753 227.326C268.153 229.556 268.113 231.926 268.633 234.176L269.773 239.106L270.893 243.936L274.652 240.706L278.603 237.316C278.713 237.326 278.813 237.346 278.923 237.356C279.383 237.436 280.352 238.086 280.932 238.646L276.143 247.916L274.812 250.486L277.333 251.906C277.553 252.036 279.613 253.146 282.533 253.146C284.723 253.146 286.812 252.556 288.762 251.396C289.172 251.446 289.652 251.476 290.182 251.476C292.372 251.476 295.513 250.936 298.473 248.506C301.323 248.176 305.353 246.676 306.733 242.546C306.913 242.036 308.663 236.766 308.233 230.086C307.653 221.216 303.512 213.886 296.242 208.826L288.413 173.436L287.603 169.776H287.613Z" fill="#101010"/>
<path d="M146.812 185.816L153.043 148.996L154.983 149.376L140.393 235.666C144.123 235.046 154.903 234.086 172.053 239.106C172.203 239.146 187.383 243.566 197.633 244.656C214.723 246.476 245.523 248.246 260.033 239.726C261.143 237.916 260.183 222.606 256.673 200.736C253.203 179.086 249.042 162.226 246.342 158.776L247.842 157.416C250.652 160.996 254.223 175.596 257.133 191.626C261.733 190.796 282.693 186.386 297.283 172.976C295.153 167.226 279.373 126.896 255.353 121.696L159.533 126.726L126.413 146.496C129.503 151.546 142.693 174.536 137.183 190.826C141.213 190.156 146.373 188.456 146.812 185.816Z" fill="white"/>
<path d="M299.082 174.066C284.162 188.156 262.423 192.786 257.493 193.686C260.863 212.776 263.213 233.276 262.173 239.286C262.043 240.036 261.783 241.076 261.053 241.516C252.263 246.726 237.792 248.256 223.842 248.256C214.082 248.256 204.572 247.506 197.432 246.746C187.022 245.636 171.683 241.176 171.533 241.126C150.903 235.096 139.513 237.966 139.403 237.996L137.933 238.386L138.202 236.786L146.143 189.856C142.583 192.356 136.623 193.056 135.723 193.146C135.573 193.186 135.263 193.056 135.123 192.996C134.843 192.876 128.823 188.516 127.923 184.316L130.173 184.286C130.443 186.366 133.503 189.186 135.193 190.506C141.323 173.526 124.363 147.006 124.193 146.736L123.573 145.776L158.973 124.636H159.202L255.493 119.576L255.613 119.596C282.503 125.276 298.692 170.966 299.372 172.906L299.612 173.586L299.103 174.066H299.082Z" fill="white" stroke="#101010" stroke-width="3" stroke-miterlimit="10"/>
<path d="M256.193 191.776C256.193 191.776 256.552 191.716 257.122 191.616C254.212 175.586 250.643 160.986 247.833 157.406L246.333 158.766C249.043 162.216 253.193 179.076 256.663 200.726C260.173 222.596 261.133 237.906 260.023 239.716C245.513 248.236 214.712 246.466 197.622 244.646C187.372 243.556 172.192 239.136 172.042 239.096C154.892 234.086 144.122 235.036 140.382 235.656L154.973 149.366L153.033 148.986L146.803 185.806L148.723 186.176C148.473 187.706 147.463 188.906 146.123 189.856L138.183 236.786L137.913 238.386L139.382 237.996C139.492 237.966 150.872 235.096 171.512 241.126C171.662 241.176 187.003 245.636 197.413 246.746C204.553 247.506 214.063 248.256 223.823 248.256C237.773 248.256 252.243 246.726 261.033 241.516C261.773 241.076 262.032 240.036 262.152 239.286C263.192 233.276 260.843 212.766 257.473 193.686C256.843 193.806 256.473 193.856 256.443 193.866L256.182 191.776H256.193Z" fill="#101010" stroke="#101010" stroke-miterlimit="10"/>
<path d="M146.793 185.816C146.353 188.456 141.193 190.166 137.163 190.826C136.963 191.406 136.753 191.986 136.503 192.546C136.503 192.546 135.952 193.096 135.702 193.146C136.602 193.056 142.563 192.356 146.123 189.856L146.803 185.816H146.783H146.793Z" fill="#101010"/>
<path d="M148.733 186.176L146.812 185.806L146.132 189.846C147.482 188.896 148.483 187.696 148.733 186.166V186.176Z" fill="#101010" stroke="#101010" stroke-miterlimit="10"/>
<path d="M255.603 119.596L255.482 119.576L159.193 124.626H158.963L123.562 145.776L124.183 146.736C124.363 147.006 141.323 173.536 135.183 190.506C133.493 189.186 130.433 186.366 130.163 184.286L127.913 184.316C128.813 188.516 134.823 192.876 135.113 192.996C135.253 193.056 135.563 193.176 135.713 193.146L135.522 191.046C136.032 190.996 136.593 190.916 137.163 190.826C142.673 174.526 129.483 151.536 126.393 146.496L159.513 126.726L255.333 121.696C279.353 126.886 295.133 167.226 297.263 172.976C282.683 186.386 261.713 190.796 257.113 191.626C257.233 192.316 257.362 193.006 257.482 193.696C262.422 192.796 284.163 188.166 299.073 174.076L299.582 173.596L299.342 172.916C298.662 170.976 282.473 125.286 255.583 119.606L255.603 119.596Z" fill="#101010"/>
<path d="M256.193 191.776L256.452 193.866C256.452 193.866 256.852 193.806 257.482 193.686C257.362 192.996 257.233 192.306 257.113 191.616C256.543 191.716 256.212 191.766 256.182 191.776H256.193Z" fill="#101010"/>
<path d="M137.163 190.826C136.583 190.926 136.032 190.996 135.522 191.046L135.713 193.146C135.953 193.086 136.513 192.546 136.513 192.546C136.763 191.986 136.973 191.406 137.173 190.826H137.163Z" fill="#101010"/>
<path d="M290.033 238.626C291.763 239.446 290.603 243.046 290.273 244.486C289.873 246.526 289.092 248.286 287.402 249.646L287.213 249.576C286.923 247.416 287.743 245.666 288.773 243.916C289.353 242.636 290.043 241.356 290.273 239.966C290.323 239.526 290.313 239.066 289.953 238.796L290.033 238.616V238.626Z" fill="#101010"/>
<path d="M298.152 235.936C299.952 236.526 299.162 240.086 298.962 241.506C298.762 243.506 298.152 245.246 296.612 246.686L296.423 246.636C295.923 244.586 296.563 242.836 297.423 241.086C297.873 239.816 298.432 238.536 298.522 237.196C298.522 236.776 298.463 236.346 298.093 236.136L298.152 235.946V235.936Z" fill="#101010"/>
<path d="M162.263 127.986C158.313 135.076 164.073 145.966 176.943 153.866C177.723 154.346 178.772 154.416 179.652 154.066C191.462 149.356 212.573 139.256 222.283 132.836C222.783 132.506 222.462 131.726 221.872 131.826C196.282 136.206 175.433 136.316 163.153 128.356" fill="#9F3641"/>
<path d="M162.263 127.986C158.313 135.076 164.073 145.966 176.943 153.866C177.723 154.346 178.772 154.416 179.652 154.066C191.462 149.356 212.573 139.256 222.283 132.836C222.783 132.506 222.462 131.726 221.872 131.826C196.282 136.206 175.433 136.316 163.153 128.356" stroke="#101010" stroke-width="3" stroke-miterlimit="10"/>
<path d="M192.353 203.796L185.713 201.206C184.893 200.886 184.383 200.046 184.493 199.166C187.063 178.126 191.373 162.936 218.383 131.066C173.853 152.346 143.353 118.536 163.013 107.126C179.453 122.116 219.992 121.836 234.762 94.7959L234.842 94.7559C256.252 97.2559 260.542 112.076 251.062 121.546C231.202 142.356 223.283 180.576 222.062 217.716L192.353 203.796Z" fill="#9F3641" stroke="#101010" stroke-width="3" stroke-miterlimit="10"/>
<path d="M219.69 192.808C221.075 192.107 221.178 189.522 219.919 187.033C218.661 184.544 216.518 183.094 215.133 183.794C213.748 184.494 213.646 187.08 214.904 189.569C216.162 192.058 218.305 193.508 219.69 192.808Z" fill="#101010"/>
<path d="M208.993 174.016C210.273 177.206 209.203 180.596 206.633 181.666C200.253 184.326 203.773 179.296 199.643 177.766C196.383 176.556 199.423 171.156 202.003 170.116C204.583 169.076 207.713 170.826 208.993 174.016Z" fill="#101010"/>
<path d="M212.062 204.516C212.062 204.516 205.672 204.856 208.862 199.886C212.052 194.916 217.742 199.716 218.432 200.746C219.122 201.776 223.232 210.156 214.482 210.256C205.732 210.356 213.262 205.996 213.262 205.996C213.262 205.996 214.642 203.356 212.062 204.526V204.516Z" fill="#101010"/>
<path d="M197.533 158.086C203.723 157.176 201.993 168.836 195.133 163.846Z" fill="#101010"/>
<path d="M215.493 158.986C215.493 161.456 214.412 167.226 211.012 163.466C209.352 161.626 207.552 161.246 206.532 158.986C205.512 156.726 208.722 155.446 211.012 154.506C213.912 153.326 215.493 156.516 215.493 158.986Z" fill="#101010"/>
<path d="M231.802 151.396C231.802 151.396 222.312 154.186 229.912 161.866Z" fill="#101010"/>
<path d="M185.523 150.626C185.523 152.726 183.932 153.936 181.842 153.936C179.752 153.936 176.923 153.406 176.923 151.316C176.923 149.226 171.283 148.896 178.853 145.636C180.773 144.806 185.523 148.536 185.523 150.636V150.626Z" fill="#101010"/>
<path d="M163.113 140.486C163.113 140.486 168.703 131.306 169.973 146.876Z" fill="#101010"/>
<path d="M194.363 138.836C194.363 138.836 192.273 149.096 185.523 138.976Z" fill="#101010"/>
<path d="M239.482 126.926C240.452 126.416 240.852 125.236 240.392 124.246C238.752 120.736 234.592 113.426 229.642 116.896C223.762 121.016 228.992 121.946 231.982 121.476C232.942 121.326 233.733 122.226 233.493 123.166C232.713 126.116 232.403 130.656 239.493 126.936L239.482 126.926Z" fill="#101010"/>
<path d="M244.342 112.516C244.342 112.516 245.433 103.746 233.713 108.376C228.063 110.606 237.283 111.206 237.283 111.206C237.283 111.206 243.412 116.666 244.342 112.506V112.516Z" fill="#101010"/>
<path d="M212.493 132.536C209.123 129.966 197.353 132.236 203.213 135.346Z" fill="#101010"/>
<path d="M255.943 115.806C250.043 109.526 247.443 119.246 247.443 119.246C247.443 119.246 247.163 121.336 249.093 122.156" fill="#101010"/>
<path d="M253.073 104.436C253.073 104.436 244.313 107.186 247.323 98.7759Z" fill="#101010"/>
<path d="M236.213 95.8359C236.213 95.8359 245.143 106.756 229.693 101.916Z" fill="#101010"/>
<path d="M223.163 108.506C228.433 108.186 224.523 122.626 212.323 115.096Z" fill="#101010"/>
<path d="M184.103 194.666C197.263 200.196 198.252 177.166 188.042 182.746Z" fill="#101010"/>
<path d="M162.922 116.636C162.332 116.376 161.803 116.606 162.013 117.046C162.993 119.106 161.963 121.856 163.933 125.076C165.483 127.616 172.733 126.796 169.253 123.476C167.863 122.146 173.923 124.406 173.363 122.586C172.933 121.176 165.972 117.976 162.922 116.636Z" fill="#101010"/>
<path d="M165.733 130.266C165.733 130.266 174.092 127.366 172.452 134.046Z" fill="#101010"/>
<path d="M212.872 120.076C212.832 119.726 212.442 119.466 211.972 119.476C208.952 119.576 198.732 120.056 201.672 121.996C205.112 124.266 200.092 129.456 205.112 127.576C210.132 125.696 208.462 122.266 211.092 123.716C213.182 124.866 213.022 121.506 212.872 120.066V120.076Z" fill="#101010"/>
<path d="M160.623 108.506C160.623 108.506 162.432 118.226 170.842 111.446Z" fill="#101010"/>
<path d="M191.172 138.146C192.772 129.676 183.392 133.306 183.392 133.306C183.392 133.306 181.542 134.306 182.012 136.346" fill="#101010"/>
<path d="M194.283 201.536L198.313 200.896C199.573 200.696 200.403 199.466 200.113 198.226C199.823 196.966 198.693 196.076 197.403 196.076H195.693C194.813 196.076 194.053 196.676 193.853 197.526L193.193 200.356C193.033 201.026 193.603 201.636 194.283 201.526V201.536Z" fill="#101010"/>
<path d="M201.033 187.586C201.533 186.936 202.263 187.936 202.343 188.086C202.623 188.606 202.843 188.596 204.593 187.046C206.943 184.966 206.613 187.536 208.083 190.006C209.553 192.476 206.323 191.476 204.023 193.296C201.723 195.116 203.973 191.476 201.803 191.746C200.003 191.966 200.363 188.436 201.033 187.586Z" fill="#101010"/>
<path d="M221.883 164.946C225.983 163.206 225.212 167.246 225.032 168.466C224.892 169.386 223.592 168.866 223.422 168.766C222.842 168.436 222.622 168.576 221.732 171.116C220.562 174.446 216.802 176.706 216.532 170.806C216.522 170.536 216.553 170.246 216.633 169.986C217.433 167.496 219.272 165.906 221.872 164.956L221.883 164.946Z" fill="#101010"/>
<path d="M223.972 143.556C222.492 145.536 222.323 151.526 219.493 148.036C217.933 146.116 216.032 145.816 215.012 143.556C213.992 141.296 218.233 141.206 219.493 139.076C221.523 135.636 226.872 139.646 223.972 143.556Z" fill="#101010"/>
<path d="M228.553 137.706C228.703 137.466 232.263 132.626 228.353 134.116C222.943 136.186 223.623 126.266 229.393 129.646C231.533 130.896 232.873 131.766 233.713 132.376C234.603 133.016 234.863 134.206 234.333 135.166C233.243 137.126 232.903 138.426 232.353 139.006C231.043 140.396 227.543 139.346 228.563 137.706H228.553Z" fill="#101010"/>
<path d="M182.443 117.416C181.073 121.616 172.662 120.066 175.482 114.726Z" fill="#101010"/>
<path d="M184.093 121.996C184.903 121.796 185.673 121.426 186.303 120.846C187.233 119.986 189.023 119.066 191.743 120.796C195.953 123.476 199.623 127.126 192.973 127.396C186.323 127.666 189.153 130.676 183.203 127.026C178.393 124.076 182.283 122.446 184.093 121.996Z" fill="#101010"/>
<path d="M132.813 37.9661C133.193 39.1761 138.663 47.6761 159.973 51.2561L166.533 36.1861C166.533 36.1861 140.473 27.6061 132.873 37.6661C132.803 37.7561 132.783 37.8661 132.813 37.9661Z" fill="#101010" stroke="#101010" stroke-width="3" stroke-miterlimit="10"/>
<path d="M216.562 5.55594C217.473 -0.22406 229.922 1.05594 228.762 9.29594Z" fill="#9F3641"/>
<path d="M216.562 5.55594C217.473 -0.22406 229.922 1.05594 228.762 9.29594" stroke="#010101" stroke-width="3" stroke-miterlimit="10"/>
<path d="M251.993 60.5059C238.913 46.8559 170.353 27.0459 169.663 26.8459L168.033 26.3759L168.693 24.8159C173.873 12.6159 188.003 5.03589 205.562 5.03589C216.953 5.03589 228.323 8.28589 237.573 14.1959C261.563 29.5259 254.603 59.5159 254.533 59.8159L253.883 62.4759L251.993 60.4959V60.5059Z" fill="#9F3641"/>
<path d="M205.562 6.53589C216.163 6.53589 227.372 9.45589 236.762 15.4659C260.132 30.3959 253.073 59.4659 253.073 59.4659C239.563 45.3659 170.073 25.3959 170.073 25.3959C175.343 12.9959 189.792 6.53589 205.562 6.53589ZM205.562 3.53589C187.392 3.53589 172.733 11.4659 167.312 24.2259L165.993 27.3459L169.253 28.2859C188.363 33.7759 240.293 50.4659 250.913 61.5459L254.702 65.4959L255.993 60.1759C256.073 59.8559 257.873 52.2559 256.663 42.6859C255.033 29.8259 248.713 19.5359 238.383 12.9359C228.893 6.87589 217.243 3.53589 205.562 3.53589Z" fill="#010101"/>
<path d="M232.863 11.9758C232.863 11.9758 241.163 27.2158 237.193 46.1658" stroke="#101010" stroke-width="3" stroke-miterlimit="10" stroke-linecap="round"/>
<path d="M236.732 51.286C236.732 51.286 214.813 54.726 171.713 36.956C164.753 34.086 157.253 32.546 149.663 32.696C143.063 32.826 136.053 33.986 132.953 37.856C132.883 37.936 132.753 37.896 132.763 37.796C132.913 35.786 136.763 18.806 173.723 28.936C212.633 39.596 236.743 51.286 236.743 51.286H236.732Z" fill="#9F3641" stroke="#101010" stroke-width="3" stroke-miterlimit="10"/>
<path d="M196.033 29.686C196.513 29.686 196.902 29.2965 196.902 28.816C196.902 28.3356 196.513 27.946 196.033 27.946C195.552 27.946 195.163 28.3356 195.163 28.816C195.163 29.2965 195.552 29.686 196.033 29.686Z" fill="white"/>
<path d="M212.603 33.656C213.083 33.656 213.473 33.2665 213.473 32.786C213.473 32.3055 213.083 31.916 212.603 31.916C212.122 31.916 211.732 32.3055 211.732 32.786C211.732 33.2665 212.122 33.656 212.603 33.656Z" fill="white"/>
<path d="M190.173 17.0859C190.653 17.0859 191.042 16.6964 191.042 16.2159C191.042 15.7355 190.653 15.3459 190.173 15.3459C189.692 15.3459 189.303 15.7355 189.303 16.2159C189.303 16.6964 189.692 17.0859 190.173 17.0859Z" fill="white"/>
<path d="M215.342 13.9658C215.823 13.9658 216.213 13.5763 216.213 13.0958C216.213 12.6153 215.823 12.2258 215.342 12.2258C214.862 12.2258 214.473 12.6153 214.473 13.0958C214.473 13.5763 214.862 13.9658 215.342 13.9658Z" fill="white"/>
<path d="M209.033 23.406C209.513 23.406 209.902 23.0165 209.902 22.536C209.902 22.0555 209.513 21.666 209.033 21.666C208.552 21.666 208.163 22.0555 208.163 22.536C208.163 23.0165 208.552 23.406 209.033 23.406Z" fill="white"/>
<path d="M223.723 23.186C224.203 23.186 224.592 22.7965 224.592 22.316C224.592 21.8356 224.203 21.446 223.723 21.446C223.242 21.446 222.853 21.8356 222.853 22.316C222.853 22.7965 223.242 23.186 223.723 23.186Z" fill="white"/>
<path d="M201.603 13.2258C202.083 13.2258 202.473 12.8363 202.473 12.3558C202.473 11.8754 202.083 11.4858 201.603 11.4858C201.122 11.4858 200.732 11.8754 200.732 12.3558C200.732 12.8363 201.122 13.2258 201.603 13.2258Z" fill="white"/>
<path d="M150.012 356.366C150.012 356.366 161.552 359.476 168.622 352.596C168.622 352.596 176.912 363.166 171.432 381.766C171.432 381.766 158.102 386.976 148.562 380.566C148.252 381.696 134.052 386.086 108.742 374.846C104.762 373.076 99.0825 371.646 97.3325 368.386C97.3325 368.386 95.3425 362.736 101.542 359.116C101.542 359.116 105.762 342.586 132.452 353.286C132.452 353.286 143.552 343.166 150.012 356.376V356.366Z" fill="#101010"/>
<path d="M144.862 376.416C105.322 376.296 102.022 363.846 102.382 361.026C103.202 366.756 111.912 374.086 144.862 376.416Z" fill="#616160"/>
<path d="M225.068 73.3861C223.198 71.5161 221.258 71.5161 219.388 73.3861C221.258 71.5161 221.258 69.5761 219.388 67.7061C221.258 69.5761 223.198 69.5761 225.068 67.7061C223.198 69.5761 223.198 71.5161 225.068 73.3861Z" fill="white"/>
</svg>
