<svg width="432" height="574" viewBox="0 0 432 574" fill="none" xmlns="http://www.w3.org/2000/svg">
<rect width="432" height="574" fill="#F1E8CA"/>
<path d="M86.88 190V122.8H101.76C105.216 122.8 108.352 123.632 111.168 125.296C113.984 126.96 116.224 129.2 117.888 132.016C119.616 134.832 120.48 137.968 120.48 141.424V152.944C120.48 156.4 119.616 159.536 117.888 162.352C116.224 165.168 113.984 167.408 111.168 169.072C108.352 170.736 105.216 171.568 101.76 171.568H101.184V190H86.88ZM101.184 159.088H101.472C102.304 159.088 103.072 158.992 103.776 158.8C104.48 158.608 105.024 158.064 105.408 157.168C105.856 156.272 106.08 154.768 106.08 152.656V141.808C106.08 139.632 105.856 138.096 105.408 137.2C105.024 136.304 104.48 135.76 103.776 135.568C103.072 135.376 102.304 135.28 101.472 135.28H101.184V159.088ZM121.474 190L129.634 122.8H146.914L155.074 190H141.634L140.77 177.616H135.682L135.01 190H121.474ZM136.45 163.216H140.098L139.138 142H137.506L136.45 163.216ZM173.805 190.96C170.733 190.96 167.917 190.224 165.357 188.752C162.797 187.216 160.749 185.2 159.213 182.704C157.741 180.144 157.005 177.296 157.005 174.16V166.48H171.309V174.64C171.309 175.28 171.533 175.888 171.981 176.464C172.493 176.976 173.101 177.232 173.805 177.232C174.509 177.232 175.117 176.976 175.629 176.464C176.141 175.888 176.397 175.28 176.397 174.64C176.397 174.064 176.333 173.584 176.205 173.2C176.077 172.752 175.789 172.176 175.341 171.472L163.821 152.656C162.989 151.248 162.029 149.776 160.941 148.24C159.853 146.64 158.925 145.072 158.157 143.536C157.389 141.936 157.005 140.432 157.005 139.024V138.64C157.005 135.504 157.741 132.688 159.213 130.192C160.749 127.632 162.797 125.616 165.357 124.144C167.917 122.608 170.733 121.84 173.805 121.84C176.941 121.84 179.757 122.608 182.253 124.144C184.813 125.616 186.829 127.632 188.301 130.192C189.837 132.688 190.605 135.504 190.605 138.64V145.456H176.397V138.064C176.397 137.36 176.141 136.752 175.629 136.24C175.117 135.728 174.509 135.472 173.805 135.472C173.165 135.472 172.589 135.728 172.077 136.24C171.565 136.752 171.309 137.36 171.309 138.064C171.309 138.512 171.373 138.896 171.501 139.216C171.693 139.472 171.949 139.888 172.269 140.464L184.173 159.376C185.645 161.744 187.085 164.112 188.493 166.48C189.901 168.784 190.605 171.216 190.605 173.776V174.16C190.605 177.296 189.837 180.144 188.301 182.704C186.829 185.2 184.813 187.216 182.253 188.752C179.757 190.224 176.941 190.96 173.805 190.96ZM202.594 190V135.28H193.474V122.8H226.114V135.28H216.994V190H202.594ZM231.911 190V122.8H246.407V190H231.911ZM252.161 190V122.8H266.465V177.616H279.041V190H252.161ZM284.786 190V122.8H299.09V177.616H311.666V190H284.786ZM317.411 190V122.8H344.291V135.28H331.715V149.2H340.067V163.6H331.715V177.616H344.291V190H317.411Z" fill="#4AB170"/>
<path d="M102.961 449.96C99.8893 449.96 97.0733 449.192 94.5133 447.656C91.9533 446.12 89.9053 444.04 88.3693 441.416C86.8973 438.792 86.1613 435.88 86.1613 432.68V426.152H100.561V434.312C100.561 434.952 100.785 435.496 101.233 435.944C101.745 436.392 102.321 436.616 102.961 436.616C103.601 436.616 104.145 436.392 104.593 435.944C105.041 435.432 105.265 434.856 105.265 434.216V425C105.265 424.36 105.041 423.816 104.593 423.368C104.145 422.856 103.601 422.6 102.961 422.6H93.6493V408.2H102.961C103.601 408.2 104.145 407.976 104.593 407.528C105.041 407.08 105.265 406.536 105.265 405.896V396.68C105.265 396.04 105.041 395.496 104.593 395.048C104.145 394.536 103.601 394.28 102.961 394.28C102.321 394.28 101.745 394.504 101.233 394.952C100.785 395.4 100.561 395.976 100.561 396.68V404.648H86.1613V398.12C86.1613 394.92 86.8973 392.008 88.3693 389.384C89.9053 386.76 91.9533 384.68 94.5133 383.144C97.0733 381.608 99.8893 380.84 102.961 380.84C106.033 380.84 108.849 381.608 111.409 383.144C113.969 384.68 115.985 386.76 117.457 389.384C118.993 392.008 119.761 394.92 119.761 398.12V401C119.697 403.496 118.993 405.896 117.649 408.2C116.369 410.504 114.513 412.104 112.081 413V414.536C113.745 415.048 115.121 415.976 116.209 417.32C117.361 418.664 118.225 420.168 118.801 421.832C119.441 423.432 119.761 425.032 119.761 426.632V432.68C119.761 435.88 118.993 438.792 117.457 441.416C115.985 444.04 113.969 446.12 111.409 447.656C108.849 449.192 106.033 449.96 102.961 449.96ZM140.461 449.96C137.389 449.96 134.573 449.224 132.013 447.752C129.453 446.216 127.405 444.2 125.869 441.704C124.397 439.144 123.661 436.296 123.661 433.16V397.64C123.661 394.504 124.397 391.688 125.869 389.192C127.405 386.632 129.453 384.616 132.013 383.144C134.573 381.608 137.389 380.84 140.461 380.84C143.533 380.84 146.349 381.608 148.909 383.144C151.469 384.616 153.485 386.632 154.957 389.192C156.493 391.688 157.261 394.504 157.261 397.64V433.16C157.261 436.296 156.493 439.144 154.957 441.704C153.485 444.2 151.469 446.216 148.909 447.752C146.349 449.224 143.533 449.96 140.461 449.96ZM140.461 437.288C141.165 437.288 141.741 437.064 142.189 436.616C142.637 436.104 142.861 435.528 142.861 434.888V395.816C142.861 395.112 142.637 394.536 142.189 394.088C141.741 393.576 141.165 393.32 140.461 393.32C139.757 393.32 139.149 393.576 138.637 394.088C138.189 394.536 137.965 395.112 137.965 395.816V434.888C137.965 435.528 138.189 436.104 138.637 436.616C139.149 437.064 139.757 437.288 140.461 437.288ZM185.498 449.96C182.426 449.96 179.61 449.224 177.05 447.752C174.49 446.216 172.442 444.2 170.906 441.704C169.434 439.144 168.698 436.296 168.698 433.16V419.144H163.13V416.456H168.698V414.44H163.13V411.656H168.698V397.64C168.698 394.504 169.434 391.688 170.906 389.192C172.442 386.632 174.49 384.616 177.05 383.144C179.61 381.608 182.426 380.84 185.498 380.84C188.57 380.84 191.386 381.608 193.946 383.144C196.506 384.616 198.522 386.632 199.994 389.192C201.53 391.688 202.298 394.504 202.298 397.64V407.24H190.97V401C190.97 399.464 190.426 398.152 189.338 397.064C188.314 395.976 187.034 395.432 185.498 395.432C183.898 395.432 182.554 395.976 181.466 397.064C180.442 398.152 179.93 399.464 179.93 401V411.656H196.634V414.536H179.93V416.264H196.634V419.144H179.93V431.144C179.93 432.616 180.442 433.896 181.466 434.984C182.554 436.072 183.898 436.616 185.498 436.616C187.034 436.616 188.314 436.072 189.338 434.984C190.426 433.896 190.97 432.616 190.97 431.144V423.56H202.298V433.16C202.298 436.296 201.53 439.144 199.994 441.704C198.522 444.2 196.506 446.216 193.946 447.752C191.386 449.224 188.57 449.96 185.498 449.96ZM227.255 453.416V451.976L244.055 377.864H246.455V379.304L229.655 453.416H227.255ZM271.411 449V381.8H285.715V401H286.675L290.611 381.8H305.011V383.72L295.411 410.984V412.424L305.011 447.08V449H290.611L286.675 428.264H285.715V449H271.411ZM322.278 449.96C319.206 449.96 316.582 449.224 314.406 447.752C312.294 446.216 310.694 444.2 309.606 441.704C308.518 439.144 307.974 436.296 307.974 433.16V397.64C307.974 395.336 308.55 393.16 309.702 391.112C310.854 389.064 312.358 387.272 314.214 385.736C316.134 384.2 318.246 383.016 320.55 382.184C322.854 381.288 325.158 380.84 327.462 380.84C330.598 380.84 333.638 381.608 336.582 383.144C339.526 384.616 341.958 386.632 343.878 389.192C345.862 391.688 346.854 394.504 346.854 397.64V404.456H332.646V399.08C332.646 397.608 332.07 396.456 330.918 395.624C329.83 394.728 328.678 394.28 327.462 394.28C326.246 394.28 325.062 394.728 323.91 395.624C322.822 396.456 322.278 397.608 322.278 399.08V431.24C322.278 432.648 322.886 433.896 324.102 434.984C325.318 436.072 326.63 436.616 328.038 436.616C329.51 436.616 330.854 436.072 332.07 434.984C333.286 433.896 333.894 432.648 333.894 431.24V425.096H327.366V411.656H346.854V449H333.894V445.64H332.454C332.134 446.472 331.366 447.208 330.15 447.848C328.998 448.488 327.686 449 326.214 449.384C324.806 449.768 323.494 449.96 322.278 449.96Z" fill="#4AB170"/>
<path d="M227.93 281.22C227.93 281.22 262.21 308.27 262.21 308.31C263.4 318.54 281.4 329.61 291.72 326.64C291.02 317.2 288.83 308.43 281.48 302C290.14 300.68 298.68 298.51 305.05 279.38C288.46 277.73 273.53 277.27 269.02 284.36C268.95 284.47 236.67 270.68 227.92 281.22H227.93Z" fill="#4AB170"/>
<path d="M263.56 289.23C271.81 261.15 261.67 242.64 235.77 235.78C231.74 229.95 227.26 230.29 222.59 233.35C192.17 229.26 181.36 240.69 174.32 254.44C136.27 242.25 119.41 277.28 161.55 280.91L263.57 289.23H263.56Z" fill="#4AB170"/>
<path d="M254.59 297.9C265.63 306.43 259.74 320.72 245.67 319.86C226.76 365.99 131.51 352.53 177.38 268.04C222.12 256.74 247.32 267.28 254.59 297.9Z" fill="#4AB170"/>
<path d="M156.43 294.32C147.55 289.67 157.01 282.64 177.83 285.13C182.24 285.66 186.38 287.41 190.17 289.74C193.01 291.49 196.32 291.45 198.92 290.97C200.52 290.68 202.01 289.97 203.39 289.1C212.34 283.42 229.5 286.75 247.7 291.23L257.27 299.81C252.12 297.93 246.28 296.82 239.95 296.26C233.43 326.32 198.26 319.29 200.19 297.06C197.27 296.23 194.68 296.06 192.67 297.06C188.91 325.2 153.38 318.39 156.44 294.31" fill="#4AB170"/>
</svg>
