<svg width="432" height="574" viewBox="0 0 432 574" fill="none" xmlns="http://www.w3.org/2000/svg">
<rect width="432" height="574" fill="#F1E8CA"/>
<path d="M86.88 190V122.8H101.76C105.216 122.8 108.352 123.632 111.168 125.296C113.984 126.96 116.224 129.2 117.888 132.016C119.616 134.832 120.48 137.968 120.48 141.424V152.944C120.48 156.4 119.616 159.536 117.888 162.352C116.224 165.168 113.984 167.408 111.168 169.072C108.352 170.736 105.216 171.568 101.76 171.568H101.184V190H86.88ZM101.184 159.088H101.472C102.304 159.088 103.072 158.992 103.776 158.8C104.48 158.608 105.024 158.064 105.408 157.168C105.856 156.272 106.08 154.768 106.08 152.656V141.808C106.08 139.632 105.856 138.096 105.408 137.2C105.024 136.304 104.48 135.76 103.776 135.568C103.072 135.376 102.304 135.28 101.472 135.28H101.184V159.088ZM121.474 190L129.634 122.8H146.914L155.074 190H141.634L140.77 177.616H135.682L135.01 190H121.474ZM136.45 163.216H140.098L139.138 142H137.506L136.45 163.216ZM173.805 190.96C170.733 190.96 167.917 190.224 165.357 188.752C162.797 187.216 160.749 185.2 159.213 182.704C157.741 180.144 157.005 177.296 157.005 174.16V166.48H171.309V174.64C171.309 175.28 171.533 175.888 171.981 176.464C172.493 176.976 173.101 177.232 173.805 177.232C174.509 177.232 175.117 176.976 175.629 176.464C176.141 175.888 176.397 175.28 176.397 174.64C176.397 174.064 176.333 173.584 176.205 173.2C176.077 172.752 175.789 172.176 175.341 171.472L163.821 152.656C162.989 151.248 162.029 149.776 160.941 148.24C159.853 146.64 158.925 145.072 158.157 143.536C157.389 141.936 157.005 140.432 157.005 139.024V138.64C157.005 135.504 157.741 132.688 159.213 130.192C160.749 127.632 162.797 125.616 165.357 124.144C167.917 122.608 170.733 121.84 173.805 121.84C176.941 121.84 179.757 122.608 182.253 124.144C184.813 125.616 186.829 127.632 188.301 130.192C189.837 132.688 190.605 135.504 190.605 138.64V145.456H176.397V138.064C176.397 137.36 176.141 136.752 175.629 136.24C175.117 135.728 174.509 135.472 173.805 135.472C173.165 135.472 172.589 135.728 172.077 136.24C171.565 136.752 171.309 137.36 171.309 138.064C171.309 138.512 171.373 138.896 171.501 139.216C171.693 139.472 171.949 139.888 172.269 140.464L184.173 159.376C185.645 161.744 187.085 164.112 188.493 166.48C189.901 168.784 190.605 171.216 190.605 173.776V174.16C190.605 177.296 189.837 180.144 188.301 182.704C186.829 185.2 184.813 187.216 182.253 188.752C179.757 190.224 176.941 190.96 173.805 190.96ZM202.594 190V135.28H193.474V122.8H226.114V135.28H216.994V190H202.594ZM231.911 190V122.8H246.407V190H231.911ZM252.161 190V122.8H266.465V177.616H279.041V190H252.161ZM284.786 190V122.8H299.09V177.616H311.666V190H284.786ZM317.411 190V122.8H344.291V135.28H331.715V149.2H340.067V163.6H331.715V177.616H344.291V190H317.411Z" fill="#315CA7"/>
<path d="M105.408 449V435.176H86.2081V420.776L96.5761 381.8H110.88V383.24L97.8241 419.336V420.776H105.408V406.952H117.888V449H105.408ZM140.414 449.96C137.342 449.96 134.526 449.224 131.966 447.752C129.406 446.216 127.358 444.2 125.822 441.704C124.35 439.144 123.614 436.296 123.614 433.16V397.64C123.614 394.504 124.35 391.688 125.822 389.192C127.358 386.632 129.406 384.616 131.966 383.144C134.526 381.608 137.342 380.84 140.414 380.84C143.486 380.84 146.302 381.608 148.862 383.144C151.422 384.616 153.438 386.632 154.91 389.192C156.446 391.688 157.214 394.504 157.214 397.64V433.16C157.214 436.296 156.446 439.144 154.91 441.704C153.438 444.2 151.422 446.216 148.862 447.752C146.302 449.224 143.486 449.96 140.414 449.96ZM140.414 437.288C141.118 437.288 141.694 437.064 142.142 436.616C142.59 436.104 142.814 435.528 142.814 434.888V395.816C142.814 395.112 142.59 394.536 142.142 394.088C141.694 393.576 141.118 393.32 140.414 393.32C139.71 393.32 139.102 393.576 138.59 394.088C138.142 394.536 137.918 395.112 137.918 395.816V434.888C137.918 435.528 138.142 436.104 138.59 436.616C139.102 437.064 139.71 437.288 140.414 437.288ZM185.451 449.96C182.379 449.96 179.563 449.224 177.003 447.752C174.443 446.216 172.395 444.2 170.859 441.704C169.387 439.144 168.651 436.296 168.651 433.16V419.144H163.083V416.456H168.651V414.44H163.083V411.656H168.651V397.64C168.651 394.504 169.387 391.688 170.859 389.192C172.395 386.632 174.443 384.616 177.003 383.144C179.563 381.608 182.379 380.84 185.451 380.84C188.523 380.84 191.339 381.608 193.899 383.144C196.459 384.616 198.475 386.632 199.947 389.192C201.483 391.688 202.251 394.504 202.251 397.64V407.24H190.923V401C190.923 399.464 190.379 398.152 189.291 397.064C188.267 395.976 186.987 395.432 185.451 395.432C183.851 395.432 182.507 395.976 181.419 397.064C180.395 398.152 179.883 399.464 179.883 401V411.656H196.587V414.536H179.883V416.264H196.587V419.144H179.883V431.144C179.883 432.616 180.395 433.896 181.419 434.984C182.507 436.072 183.851 436.616 185.451 436.616C186.987 436.616 188.267 436.072 189.291 434.984C190.379 433.896 190.923 432.616 190.923 431.144V423.56H202.251V433.16C202.251 436.296 201.483 439.144 199.947 441.704C198.475 444.2 196.459 446.216 193.899 447.752C191.339 449.224 188.523 449.96 185.451 449.96ZM227.208 453.416V451.976L244.008 377.864H246.408V379.304L229.608 453.416H227.208ZM271.364 449V381.8H285.668V401H286.628L290.564 381.8H304.964V383.72L295.364 410.984V412.424L304.964 447.08V449H290.564L286.628 428.264H285.668V449H271.364ZM322.231 449.96C319.159 449.96 316.535 449.224 314.359 447.752C312.247 446.216 310.647 444.2 309.559 441.704C308.471 439.144 307.927 436.296 307.927 433.16V397.64C307.927 395.336 308.503 393.16 309.655 391.112C310.807 389.064 312.311 387.272 314.167 385.736C316.087 384.2 318.199 383.016 320.503 382.184C322.807 381.288 325.111 380.84 327.415 380.84C330.551 380.84 333.591 381.608 336.535 383.144C339.479 384.616 341.911 386.632 343.831 389.192C345.815 391.688 346.807 394.504 346.807 397.64V404.456H332.599V399.08C332.599 397.608 332.023 396.456 330.871 395.624C329.783 394.728 328.631 394.28 327.415 394.28C326.199 394.28 325.015 394.728 323.863 395.624C322.775 396.456 322.231 397.608 322.231 399.08V431.24C322.231 432.648 322.839 433.896 324.055 434.984C325.271 436.072 326.583 436.616 327.991 436.616C329.463 436.616 330.807 436.072 332.023 434.984C333.239 433.896 333.847 432.648 333.847 431.24V425.096H327.319V411.656H346.807V449H333.847V445.64H332.407C332.087 446.472 331.319 447.208 330.103 447.848C328.951 448.488 327.639 449 326.167 449.384C324.759 449.768 323.447 449.96 322.231 449.96Z" fill="#315CA7"/>
<path d="M227.93 281.22C227.93 281.22 262.21 308.27 262.21 308.31C263.4 318.54 281.4 329.61 291.72 326.64C291.02 317.2 288.83 308.43 281.48 302C290.14 300.68 298.68 298.51 305.05 279.38C288.46 277.73 273.53 277.27 269.02 284.36C268.95 284.47 236.67 270.68 227.92 281.22H227.93Z" fill="#315CA7"/>
<path d="M263.56 289.23C271.81 261.15 261.67 242.64 235.77 235.78C231.74 229.95 227.26 230.29 222.59 233.35C192.17 229.26 181.36 240.69 174.32 254.44C136.27 242.25 119.41 277.28 161.55 280.91L263.57 289.23H263.56Z" fill="#315CA7"/>
<path d="M254.59 297.9C265.63 306.43 259.74 320.72 245.67 319.86C226.76 365.99 131.51 352.53 177.38 268.04C222.12 256.74 247.32 267.28 254.59 297.9Z" fill="#315CA7"/>
<path d="M156.43 294.32C147.55 289.67 157.01 282.64 177.83 285.13C182.24 285.66 186.38 287.41 190.17 289.74C193.01 291.49 196.32 291.45 198.92 290.97C200.52 290.68 202.01 289.97 203.39 289.1C212.34 283.42 229.5 286.75 247.7 291.23L257.27 299.81C252.12 297.93 246.28 296.82 239.95 296.26C233.43 326.32 198.26 319.29 200.19 297.06C197.27 296.23 194.68 296.06 192.67 297.06C188.91 325.2 153.38 318.39 156.44 294.31" fill="#315CA7"/>
</svg>
