<?xml version="1.0" encoding="UTF-8"?>
<svg id="masco" xmlns="http://www.w3.org/2000/svg" xmlns:xlink="http://www.w3.org/1999/xlink" viewBox="0 0 302.55 283.46">
  <defs>
    <style>
      .cls-1 {
        fill: #f39fb6;
      }

      .cls-2 {
        fill: #ec6f43;
      }

      .cls-3 {
        fill: #feeb15;
      }

      .cls-4 {
        fill: #1d1d1b;
      }

      .cls-5 {
        fill: #fff;
      }

      .cls-6, .cls-7, .cls-8 {
        fill: none;
      }

      .cls-7, .cls-8 {
        stroke-width: 2px;
      }

      .cls-7, .cls-8, .cls-9 {
        stroke: #000;
      }

      .cls-7, .cls-9 {
        stroke-miterlimit: 10;
      }

      .cls-8 {
        stroke-linecap: round;
        stroke-linejoin: round;
      }

      .cls-9 {
        fill: #f0847c;
        stroke-width: 3px;
      }

      .cls-10 {
        clip-path: url(#clippath);
      }
    </style>
    <clipPath id="clippath">
      <rect class="cls-6" x="179.38" y="170.9" width="2.32" height="4.5"/>
    </clipPath>
  </defs>
  <g id="foulard">
    <path d="M158.25,135.13s34.28,27.05,34.28,27.09c1.19,10.23,19.19,21.3,29.51,18.33-.7-9.44-2.89-18.21-10.24-24.64,8.66-1.32,17.2-3.49,23.57-22.62-16.59-1.65-31.52-2.11-36.03,4.98-.07.11-32.35-13.68-41.1-3.14Z"/>
    <g>
      <path class="cls-1" d="M196.57,141.91c5.42,1.15,5.88,10.52-.33,11.67"/>
      <path class="cls-1" d="M230.07,137.62c-13.27,27.11-30.9,11.49-18.66,6.21-20.63-6.91,20.86-10.72,18.66-6.21Z"/>
      <path class="cls-1" d="M217.17,176.75c.21.03.39-.17.36-.38-3.26-21.07-19.73-27.23-11.89-14.25-14.68-5.04-8.59,11.4,11.53,14.63Z"/>
    </g>
  </g>
  <path d="M193.88,143.15c8.25-28.08-1.89-46.59-27.79-53.45-4.03-5.83-8.51-5.49-13.18-2.43-30.42-4.09-41.23,7.34-48.27,21.09-38.05-12.19-54.91,22.84-12.77,26.47l102.02,8.32Z"/>
  <path class="cls-9" d="M184.9,151.82c11.04,8.53,5.15,22.82-8.92,21.96-18.91,46.13-114.16,32.67-68.29-51.82,44.74-11.3,69.94-.76,77.21,29.86Z"/>
  <path d="M105.05,125.15s6.54.24,22.91,7.26c18.1,7.75,60.45,7,44.96-.69-12.68-6.29-49.99-19.63-52.16-14.07l-15.7,7.5"/>
  <path class="cls-2" d="M107.6,108.3c17.92,6.55,43.43,15.1,52.54,18.13,2.28.76,4.51,1.66,6.68,2.7l26.03,12.49c3.47-20.99-2.1-36.68-15.07-42.88-29.65-15.07-56.88-12.43-70.18,9.55Z"/>
  <path class="cls-2" d="M159.67,131.45c-44.34-13.1-15.53-2.65-57.47-19.92,0,0-20.06-6.91-29.41,3.39,0,0,12.33-8.67,35.51,3.52,23.18,12.2,37.27,17.35,51.37,13.01Z"/>
  <path d="M163.79,128.08s6.06-22.68-.08-31.74c-.44-.65.11-1.56.88-1.4,8.82,1.8,2.23,34.2,2.23,34.2"/>
  <circle class="cls-5" cx="132.49" cy="112.92" r=".87"/>
  <circle class="cls-5" cx="155.06" cy="120.53" r=".87"/>
  <circle class="cls-5" cx="160.78" cy="112.15" r=".87"/>
  <circle class="cls-5" cx="149.52" cy="112.43" r=".87"/>
  <g>
    <path class="cls-1" d="M190.13,158.41c-8.65-10.68-18.09-18.96-23.6-22.43l-3.69-2.32,7.98-.8.4.21c4.48,2.35,8.13,4.14,11.05,5.57,12.21,5.99,13.21,6.48,10.94,17.09-.14.64-.28,1.32-.43,2.05l-.65,3.09-1.99-2.46Z"/>
    <path class="cls-4" d="M170.51,134.38c24.39,12.77,23.74,8.91,20.78,23.08-8.32-10.28-17.96-18.98-23.97-22.76l3.18-.32M171.11,131.31l-.9.09-3.18.32-8.69.88,7.39,4.65c5.24,3.29,14.74,11.61,23.23,22.1l3.98,4.91,1.29-6.19c.15-.73.3-1.4.43-2.04,1.11-5.19,1.78-8.33-.17-11.3-1.72-2.61-5.01-4.23-11.57-7.45-2.92-1.43-6.55-3.22-11.02-5.55l-.8-.42h0Z"/>
  </g>
  <path class="cls-3" d="M181.35,174.52c.36,3.93-4.22,4.02-4.1.04.04-2.44.83-4.72,2-6.81-.34,1.96-1.04,4.85-1,6.79-.04,3.28,2.66,2.53,3.1-.02h0Z"/>
  <g class="cls-10">
    <path class="cls-9" d="M184.9,151.82c11.04,8.53,5.15,22.82-8.92,21.96-18.91,46.13-114.16,32.67-68.29-51.82,44.74-11.3,69.94-.76,77.21,29.86Z"/>
  </g>
  <path class="cls-7" d="M112.07,177.23c1.67,7.45,23.24,11.21,30.68-.38"/>
  <path class="cls-7" d="M124.04,162.82c-5.17,1.24-5.7,7.67.48,9.12"/>
  <path d="M84.33,147.86c-8.88-4.65.58-11.68,21.4-9.19,4.41.53,8.55,2.28,12.34,4.61,2.84,1.75,6.15,1.71,8.75,1.23,1.6-.29,3.09-1,4.47-1.87,8.95-5.68,26.11-2.35,44.31,2.13l9.57,8.58c-5.15-1.88-10.99-2.99-17.32-3.55-6.52,30.06-41.69,23.03-39.76.8-2.92-.83-5.51-1-7.52,0-3.76,28.14-39.29,21.33-36.23-2.75"/>
  <path class="cls-8" d="M104.65,136.3c3.51-3.21,8.28-3.09,14.88,3.24"/>
  <g>
    <circle class="cls-5" cx="123.55" cy="102.28" r=".87"/>
    <circle class="cls-5" cx="147.03" cy="92.71" r=".87"/>
    <circle class="cls-5" cx="143.4" cy="103.46" r=".87"/>
    <circle class="cls-5" cx="157.53" cy="99.42" r=".87"/>
    <circle class="cls-5" cx="133.57" cy="95.57" r=".87"/>
  </g>
</svg>